<svg width="16" height="16" viewBox="0 0 16 16" fill="none" xmlns="http://www.w3.org/2000/svg">
<path d="M12.5938 12.5625C12.9492 12.5625 13.25 12.8633 13.25 13.2188C13.25 13.6016 12.9492 13.875 12.5938 13.875H3.40625C3.02344 13.875 2.75 13.6016 2.75 13.2188C2.75 12.8359 3.02344 12.5625 3.40625 12.5625H12.5938ZM11.0078 6.4375C11.2539 6.16406 11.6641 6.16406 11.9375 6.41016C12.2109 6.65625 12.2109 7.06641 11.9648 7.33984L8.46484 11.0586C8.21875 11.332 7.75391 11.332 7.50781 11.0586L4.00781 7.33984C3.76172 7.06641 3.76172 6.65625 4.03516 6.41016C4.17188 6.30078 4.33594 6.24609 4.5 6.24609C4.66406 6.24609 4.82812 6.30078 4.96484 6.4375L7.34375 8.95312V2.30859C7.34375 1.92578 7.61719 1.625 8 1.625C8.35547 1.625 8.65625 1.92578 8.65625 2.30859V8.95312L11.0078 6.4375Z" fill="currentColor"/>
</svg>
