<svg width="16" height="16" viewBox="0 0 16 16" fill="none" xmlns="http://www.w3.org/2000/svg">
<path d="M12.5938 12.5625C12.9492 12.5625 13.25 12.8633 13.25 13.2188C13.25 13.6016 12.9492 13.875 12.5938 13.875H3.40625C3.02344 13.875 2.75 13.6016 2.75 13.2188C2.75 12.8359 3.02344 12.5625 3.40625 12.5625H12.5938ZM4.96484 6.46484C4.71875 6.71094 4.30859 6.73828 4.03516 6.49219C3.76172 6.24609 3.76172 5.80859 4.00781 5.5625L7.50781 1.84375C7.75391 1.57031 8.21875 1.57031 8.46484 1.84375L11.9648 5.5625C12.2109 5.80859 12.2109 6.24609 11.9375 6.49219C11.8008 6.60156 11.6367 6.65625 11.5 6.65625C11.3086 6.65625 11.1445 6.60156 11.0078 6.46484L8.65625 3.94922V10.5938C8.65625 10.9766 8.35547 11.25 8 11.25C7.61719 11.25 7.34375 10.9766 7.34375 10.5938V3.94922L4.96484 6.46484Z" fill="currentColor"/>
</svg>
