<svg width="12" height="12" viewBox="0 0 12 12" fill="none" xmlns="http://www.w3.org/2000/svg">
<path d="M9.28125 9.6875C9.53516 9.6875 9.75 9.90234 9.75 10.1562C9.75 10.4297 9.53516 10.625 9.28125 10.625H2.71875C2.44531 10.625 2.25 10.4297 2.25 10.1562C2.25 9.88281 2.44531 9.6875 2.71875 9.6875H9.28125ZM8.14844 5.3125C8.32422 5.11719 8.61719 5.11719 8.8125 5.29297C9.00781 5.46875 9.00781 5.76172 8.83203 5.95703L6.33203 8.61328C6.15625 8.80859 5.82422 8.80859 5.64844 8.61328L3.14844 5.95703C2.97266 5.76172 2.97266 5.46875 3.16797 5.29297C3.26562 5.21484 3.38281 5.17578 3.5 5.17578C3.61719 5.17578 3.73438 5.21484 3.83203 5.3125L5.53125 7.10938V2.36328C5.53125 2.08984 5.72656 1.875 6 1.875C6.25391 1.875 6.46875 2.08984 6.46875 2.36328V7.10938L8.14844 5.3125Z" fill="currentColor"/>
</svg>
