<svg width="12" height="12" viewBox="0 0 12 12" fill="none" xmlns="http://www.w3.org/2000/svg">
<path d="M9.28125 9.6875C9.53516 9.6875 9.75 9.90234 9.75 10.1562C9.75 10.4297 9.53516 10.625 9.28125 10.625H2.71875C2.44531 10.625 2.25 10.4297 2.25 10.1562C2.25 9.88281 2.44531 9.6875 2.71875 9.6875H9.28125ZM3.83203 5.33203C3.65625 5.50781 3.36328 5.52734 3.16797 5.35156C2.97266 5.17578 2.97266 4.86328 3.14844 4.6875L5.64844 2.03125C5.82422 1.83594 6.15625 1.83594 6.33203 2.03125L8.83203 4.6875C9.00781 4.86328 9.00781 5.17578 8.8125 5.35156C8.71484 5.42969 8.59766 5.46875 8.5 5.46875C8.36328 5.46875 8.24609 5.42969 8.14844 5.33203L6.46875 3.53516V8.28125C6.46875 8.55469 6.25391 8.75 6 8.75C5.72656 8.75 5.53125 8.55469 5.53125 8.28125V3.53516L3.83203 5.33203Z" fill="currentColor"/>
</svg>
