<svg width="12" height="12" viewBox="0 0 12 12" fill="none" xmlns="http://www.w3.org/2000/svg">
<path d="M1.625 2.96875C1.625 2.71484 1.82031 2.5 2.09375 2.5H9.90625C10.1602 2.5 10.375 2.71484 10.375 2.96875C10.375 3.24219 10.1602 3.4375 9.90625 3.4375H2.09375C1.82031 3.4375 1.625 3.24219 1.625 2.96875ZM1.625 6.09375C1.625 5.83984 1.82031 5.625 2.09375 5.625H9.90625C10.1602 5.625 10.375 5.83984 10.375 6.09375C10.375 6.36719 10.1602 6.5625 9.90625 6.5625H2.09375C1.82031 6.5625 1.625 6.36719 1.625 6.09375ZM9.90625 9.6875H2.09375C1.82031 9.6875 1.625 9.49219 1.625 9.21875C1.625 8.96484 1.82031 8.75 2.09375 8.75H9.90625C10.1602 8.75 10.375 8.96484 10.375 9.21875C10.375 9.49219 10.1602 9.6875 9.90625 9.6875Z" fill="currentColor"/>
</svg>
