<svg width="16" height="16" viewBox="0 0 16 16" fill="none" xmlns="http://www.w3.org/2000/svg">
<path d="M1.875 3.15625C1.875 2.80078 2.14844 2.5 2.53125 2.5H13.4688C13.8242 2.5 14.125 2.80078 14.125 3.15625C14.125 3.53906 13.8242 3.8125 13.4688 3.8125H2.53125C2.14844 3.8125 1.875 3.53906 1.875 3.15625ZM1.875 7.53125C1.875 7.17578 2.14844 6.875 2.53125 6.875H13.4688C13.8242 6.875 14.125 7.17578 14.125 7.53125C14.125 7.91406 13.8242 8.1875 13.4688 8.1875H2.53125C2.14844 8.1875 1.875 7.91406 1.875 7.53125ZM13.4688 12.5625H2.53125C2.14844 12.5625 1.875 12.2891 1.875 11.9062C1.875 11.5508 2.14844 11.25 2.53125 11.25H13.4688C13.8242 11.25 14.125 11.5508 14.125 11.9062C14.125 12.2891 13.8242 12.5625 13.4688 12.5625Z" fill="currentColor"/>
</svg>
