<svg width="18" height="16" viewBox="0 0 18 16" fill="none" xmlns="http://www.w3.org/2000/svg">
<path d="M4.375 9.5C2.89844 9.5 1.75 8.32422 1.75 6.875C1.75 5.42578 2.89844 4.25 4.375 4.25C5.82422 4.25 7 5.42578 7 6.875C7 8.35156 5.82422 9.5 4.375 9.5ZM4.375 5.5625C3.63672 5.5625 3.0625 6.16406 3.0625 6.875C3.0625 7.61328 3.63672 8.1875 4.375 8.1875C5.08594 8.1875 5.6875 7.61328 5.6875 6.875C5.6875 6.16406 5.08594 5.5625 4.375 5.5625ZM5.25 10.375C7.16406 10.375 8.75 11.9609 8.75 13.875C8.75 14.3672 8.33984 14.75 7.875 14.75H0.875C0.382812 14.75 0 14.3672 0 13.875C0 11.9609 1.55859 10.375 3.5 10.375H5.25ZM1.33984 13.4375H7.38281C7.16406 12.4531 6.28906 11.6875 5.25 11.6875H3.5C2.43359 11.6875 1.55859 12.4531 1.33984 13.4375ZM15.9688 0.75C16.7891 0.75 17.5 1.46094 17.5 2.28125V10.5938C17.5 11.4414 16.7891 12.125 15.9688 12.125H9.625C9.24219 12.125 8.96875 11.8516 8.96875 11.4688C8.96875 11.1133 9.24219 10.8125 9.625 10.8125H15.9688C16.0781 10.8125 16.1875 10.7305 16.1875 10.5938V2.28125C16.1875 2.17188 16.0781 2.0625 15.9688 2.0625H5.90625C5.76953 2.0625 5.6875 2.17188 5.6875 2.28125V2.9375C5.6875 3.32031 5.38672 3.59375 5.03125 3.59375C4.64844 3.59375 4.375 3.32031 4.375 2.9375V2.28125C4.375 1.46094 5.05859 0.75 5.90625 0.75H15.9688ZM8.96875 5.31641L10.5 6.82031L12.6328 4.6875H12.0312C11.6484 4.6875 11.375 4.41406 11.375 4.03125C11.375 3.67578 11.6484 3.375 12.0312 3.375H14.2188C14.5742 3.375 14.875 3.67578 14.875 4.03125V6.21875C14.875 6.60156 14.5742 6.875 14.2188 6.875C13.8359 6.875 13.5625 6.60156 13.5625 6.21875V5.61719L10.9375 8.21484C10.8281 8.35156 10.6641 8.40625 10.5 8.40625C10.3086 8.40625 10.1445 8.35156 10.0078 8.21484L8.03906 6.24609C7.76562 6 7.76562 5.58984 8.03906 5.31641C8.28516 5.07031 8.69531 5.07031 8.96875 5.31641Z" fill="currentColor"/>
</svg>
