<svg width="13" height="12" viewBox="0 0 13 12" fill="none" xmlns="http://www.w3.org/2000/svg">
<path d="M3.125 7.5C2.07031 7.5 1.25 6.66016 1.25 5.625C1.25 4.58984 2.07031 3.75 3.125 3.75C4.16016 3.75 5 4.58984 5 5.625C5 6.67969 4.16016 7.5 3.125 7.5ZM3.125 4.6875C2.59766 4.6875 2.1875 5.11719 2.1875 5.625C2.1875 6.15234 2.59766 6.5625 3.125 6.5625C3.63281 6.5625 4.0625 6.15234 4.0625 5.625C4.0625 5.11719 3.63281 4.6875 3.125 4.6875ZM3.75 8.125C5.11719 8.125 6.25 9.25781 6.25 10.625C6.25 10.9766 5.95703 11.25 5.625 11.25H0.625C0.273438 11.25 0 10.9766 0 10.625C0 9.25781 1.11328 8.125 2.5 8.125H3.75ZM0.957031 10.3125H5.27344C5.11719 9.60938 4.49219 9.0625 3.75 9.0625H2.5C1.73828 9.0625 1.11328 9.60938 0.957031 10.3125ZM11.4062 1.25C11.9922 1.25 12.5 1.75781 12.5 2.34375V8.28125C12.5 8.88672 11.9922 9.375 11.4062 9.375H6.875C6.60156 9.375 6.40625 9.17969 6.40625 8.90625C6.40625 8.65234 6.60156 8.4375 6.875 8.4375H11.4062C11.4844 8.4375 11.5625 8.37891 11.5625 8.28125V2.34375C11.5625 2.26562 11.4844 2.1875 11.4062 2.1875H4.21875C4.12109 2.1875 4.0625 2.26562 4.0625 2.34375V2.8125C4.0625 3.08594 3.84766 3.28125 3.59375 3.28125C3.32031 3.28125 3.125 3.08594 3.125 2.8125V2.34375C3.125 1.75781 3.61328 1.25 4.21875 1.25H11.4062ZM6.40625 4.51172L7.5 5.58594L9.02344 4.0625H8.59375C8.32031 4.0625 8.125 3.86719 8.125 3.59375C8.125 3.33984 8.32031 3.125 8.59375 3.125H10.1562C10.4102 3.125 10.625 3.33984 10.625 3.59375V5.15625C10.625 5.42969 10.4102 5.625 10.1562 5.625C9.88281 5.625 9.6875 5.42969 9.6875 5.15625V4.72656L7.8125 6.58203C7.73438 6.67969 7.61719 6.71875 7.5 6.71875C7.36328 6.71875 7.24609 6.67969 7.14844 6.58203L5.74219 5.17578C5.54688 5 5.54688 4.70703 5.74219 4.51172C5.91797 4.33594 6.21094 4.33594 6.40625 4.51172Z" fill="currentColor"/>
</svg>
