<svg width="16" height="16" viewBox="0 0 16 16" fill="none" xmlns="http://www.w3.org/2000/svg">
<path d="M8.4375 2.9375H7.5625V12.5625H8.4375V2.9375ZM7.5625 1.625H8.4375C9.14844 1.625 9.75 2.22656 9.75 2.9375V12.5625C9.75 13.3008 9.14844 13.875 8.4375 13.875H7.5625C6.82422 13.875 6.25 13.3008 6.25 12.5625V2.9375C6.25 2.22656 6.82422 1.625 7.5625 1.625ZM4.0625 8.1875H3.1875V12.5625H4.0625V8.1875ZM3.1875 6.875H4.0625C4.77344 6.875 5.375 7.47656 5.375 8.1875V12.5625C5.375 13.3008 4.77344 13.875 4.0625 13.875H3.1875C2.44922 13.875 1.875 13.3008 1.875 12.5625V8.1875C1.875 7.47656 2.44922 6.875 3.1875 6.875ZM11.9375 4.6875V12.5625H12.8125V4.6875H11.9375ZM10.625 4.6875C10.625 3.97656 11.1992 3.375 11.9375 3.375H12.8125C13.5234 3.375 14.125 3.97656 14.125 4.6875V12.5625C14.125 13.3008 13.5234 13.875 12.8125 13.875H11.9375C11.1992 13.875 10.625 13.3008 10.625 12.5625V4.6875Z" fill="currentColor"/>
</svg>
