<svg width="12" height="12" viewBox="0 0 12 12" fill="none" xmlns="http://www.w3.org/2000/svg">
<path d="M6.3125 2.8125H5.6875V9.6875H6.3125V2.8125ZM5.6875 1.875H6.3125C6.82031 1.875 7.25 2.30469 7.25 2.8125V9.6875C7.25 10.2148 6.82031 10.625 6.3125 10.625H5.6875C5.16016 10.625 4.75 10.2148 4.75 9.6875V2.8125C4.75 2.30469 5.16016 1.875 5.6875 1.875ZM3.1875 6.5625H2.5625V9.6875H3.1875V6.5625ZM2.5625 5.625H3.1875C3.69531 5.625 4.125 6.05469 4.125 6.5625V9.6875C4.125 10.2148 3.69531 10.625 3.1875 10.625H2.5625C2.03516 10.625 1.625 10.2148 1.625 9.6875V6.5625C1.625 6.05469 2.03516 5.625 2.5625 5.625ZM8.8125 4.0625V9.6875H9.4375V4.0625H8.8125ZM7.875 4.0625C7.875 3.55469 8.28516 3.125 8.8125 3.125H9.4375C9.94531 3.125 10.375 3.55469 10.375 4.0625V9.6875C10.375 10.2148 9.94531 10.625 9.4375 10.625H8.8125C8.28516 10.625 7.875 10.2148 7.875 9.6875V4.0625Z" fill="currentColor"/>
</svg>
