<svg width="12" height="12" viewBox="0 0 12 12" fill="none" xmlns="http://www.w3.org/2000/svg">
<path d="M3.05078 6.25L6.17578 9.53125C6.25391 9.62891 6.3125 9.74609 6.3125 9.84375C6.3125 9.98047 6.25391 10.0977 6.15625 10.1953C5.98047 10.3711 5.66797 10.3711 5.49219 10.1758L2.05469 6.58203C1.87891 6.40625 1.87891 6.11328 2.05469 5.9375L5.49219 2.34375C5.66797 2.14844 5.96094 2.14844 6.15625 2.32422C6.35156 2.5 6.35156 2.8125 6.17578 2.98828L3.05078 6.25ZM9.92578 9.53125C10.0039 9.62891 10.0625 9.72656 10.0625 9.84375C10.0625 9.98047 10.0039 10.0977 9.90625 10.1953C9.71094 10.3711 9.41797 10.3711 9.24219 10.1758L5.80469 6.58203C5.62891 6.40625 5.62891 6.11328 5.80469 5.9375L9.24219 2.34375C9.41797 2.14844 9.71094 2.14844 9.90625 2.32422C10.1016 2.5 10.1016 2.8125 9.92578 2.98828L6.80078 6.25L9.92578 9.53125Z" fill="currentColor"/>
</svg>
