<svg width="12" height="12" viewBox="0 0 12 12" fill="none" xmlns="http://www.w3.org/2000/svg">
<path d="M6.17578 5.9375C6.35156 6.11328 6.35156 6.40625 6.17578 6.58203L2.73828 10.1758C2.5625 10.3711 2.26953 10.3711 2.07422 10.1953C1.87891 10.0195 1.87891 9.70703 2.05469 9.53125L5.17969 6.25L2.05469 2.98828C1.97656 2.89062 1.9375 2.77344 1.9375 2.65625C1.9375 2.53906 1.97656 2.42188 2.07422 2.32422C2.26953 2.14844 2.5625 2.14844 2.73828 2.34375L6.17578 5.9375ZM9.92578 5.9375C10.1016 6.11328 10.1016 6.40625 9.92578 6.58203L6.48828 10.1758C6.3125 10.3711 6.01953 10.3711 5.82422 10.1953C5.62891 10.0195 5.62891 9.70703 5.80469 9.53125L8.92969 6.25L5.80469 2.98828C5.72656 2.89062 5.6875 2.77344 5.6875 2.65625C5.6875 2.53906 5.72656 2.42188 5.82422 2.32422C6.01953 2.14844 6.3125 2.14844 6.48828 2.34375L9.92578 5.9375Z" fill="currentColor"/>
</svg>
