<svg width="16" height="16" viewBox="0 0 16 16" fill="none" xmlns="http://www.w3.org/2000/svg">
<path d="M8.24609 7.3125C8.49219 7.55859 8.49219 7.96875 8.24609 8.21484L3.43359 13.2461C3.1875 13.5195 2.77734 13.5195 2.50391 13.2734C2.23047 13.0273 2.23047 12.5898 2.47656 12.3438L6.85156 7.75L2.47656 3.18359C2.36719 3.04688 2.3125 2.88281 2.3125 2.71875C2.3125 2.55469 2.36719 2.39062 2.50391 2.25391C2.77734 2.00781 3.1875 2.00781 3.43359 2.28125L8.24609 7.3125ZM13.4961 7.3125C13.7422 7.55859 13.7422 7.96875 13.4961 8.21484L8.68359 13.2461C8.4375 13.5195 8.02734 13.5195 7.75391 13.2734C7.48047 13.0273 7.48047 12.5898 7.72656 12.3438L12.1016 7.75L7.72656 3.18359C7.61719 3.04688 7.5625 2.88281 7.5625 2.71875C7.5625 2.55469 7.61719 2.39062 7.75391 2.25391C8.02734 2.00781 8.4375 2.00781 8.68359 2.28125L13.4961 7.3125Z" fill="currentColor"/>
</svg>
