<svg width="16" height="16" viewBox="0 0 16 16" fill="none" xmlns="http://www.w3.org/2000/svg">
<path d="M3.87109 7.75L8.24609 12.3438C8.35547 12.4805 8.4375 12.6445 8.4375 12.7812C8.4375 12.9727 8.35547 13.1367 8.21875 13.2734C7.97266 13.5195 7.53516 13.5195 7.28906 13.2461L2.47656 8.21484C2.23047 7.96875 2.23047 7.55859 2.47656 7.3125L7.28906 2.28125C7.53516 2.00781 7.94531 2.00781 8.21875 2.25391C8.49219 2.5 8.49219 2.9375 8.24609 3.18359L3.87109 7.75ZM13.4961 12.3438C13.6055 12.4805 13.6875 12.6172 13.6875 12.7812C13.6875 12.9727 13.6055 13.1367 13.4688 13.2734C13.1953 13.5195 12.7852 13.5195 12.5391 13.2461L7.72656 8.21484C7.48047 7.96875 7.48047 7.55859 7.72656 7.3125L12.5391 2.28125C12.7852 2.00781 13.1953 2.00781 13.4688 2.25391C13.7422 2.5 13.7422 2.9375 13.4961 3.18359L9.12109 7.75L13.4961 12.3438Z" fill="currentColor"/>
</svg>
