<svg width="12" height="12" viewBox="0 0 12 12" fill="none" xmlns="http://www.w3.org/2000/svg">
<path d="M6 1.25C8.75391 1.25 11 3.49609 11 6.25C11 9.02344 8.75391 11.25 6 11.25C3.22656 11.25 1 9.02344 1 6.25C1 3.49609 3.22656 1.25 6 1.25ZM6 10.3125C8.22656 10.3125 10.0625 8.49609 10.0625 6.25C10.0625 4.02344 8.22656 2.1875 6 2.1875C3.75391 2.1875 1.9375 4.02344 1.9375 6.25C1.9375 8.49609 3.75391 10.3125 6 10.3125ZM6 7.1875C5.72656 7.1875 5.53125 6.99219 5.53125 6.71875V4.21875C5.53125 3.96484 5.72656 3.75 6 3.75C6.25391 3.75 6.46875 3.96484 6.46875 4.21875V6.71875C6.46875 6.99219 6.25391 7.1875 6 7.1875ZM6 7.85156C6.33203 7.85156 6.60547 8.125 6.60547 8.45703C6.60547 8.78906 6.33203 9.0625 6 9.0625C5.64844 9.0625 5.375 8.78906 5.375 8.45703C5.375 8.125 5.64844 7.85156 6 7.85156Z" fill="currentColor"/>
</svg>
