<svg width="12" height="12" viewBox="0 0 12 12" fill="none" xmlns="http://www.w3.org/2000/svg">
<path d="M6 1.25C8.75391 1.25 11 3.49609 11 6.25C11 9.02344 8.75391 11.25 6 11.25C3.22656 11.25 1 9.02344 1 6.25C1 3.49609 3.22656 1.25 6 1.25ZM6 10.3125C8.22656 10.3125 10.0625 8.49609 10.0625 6.25C10.0625 4.02344 8.22656 2.1875 6 2.1875C3.75391 2.1875 1.9375 4.02344 1.9375 6.25C1.9375 8.49609 3.75391 10.3125 6 10.3125ZM6 7.8125C6.33203 7.8125 6.625 8.08594 6.625 8.4375C6.625 8.78906 6.33203 9.0625 6 9.0625C5.62891 9.0625 5.375 8.78906 5.375 8.4375C5.375 8.08594 5.64844 7.8125 6 7.8125ZM6.64453 3.75C7.42578 3.75 8.03125 4.35547 8.01172 5.11719C8.01172 5.58594 7.75781 6.03516 7.34766 6.28906L6.46875 6.83594V6.875C6.46875 7.12891 6.25391 7.34375 6 7.34375C5.74609 7.34375 5.53125 7.12891 5.53125 6.875V6.5625C5.53125 6.40625 5.60938 6.25 5.76562 6.15234L6.87891 5.48828C7.01562 5.41016 7.09375 5.27344 7.09375 5.11719C7.09375 4.88281 6.87891 4.6875 6.625 4.6875H5.62891C5.39453 4.6875 5.21875 4.88281 5.21875 5.11719C5.21875 5.37109 5.00391 5.58594 4.75 5.58594C4.49609 5.58594 4.28125 5.37109 4.28125 5.11719C4.28125 4.35547 4.88672 3.75 5.64844 3.75H6.64453Z" fill="currentColor"/>
</svg>
