<svg width="16" height="16" viewBox="0 0 16 16" fill="none" xmlns="http://www.w3.org/2000/svg">
<path d="M8 0.75C11.8555 0.75 15 3.89453 15 7.75C15 11.6328 11.8555 14.75 8 14.75C4.11719 14.75 1 11.6328 1 7.75C1 3.89453 4.11719 0.75 8 0.75ZM8 13.4375C11.1172 13.4375 13.6875 10.8945 13.6875 7.75C13.6875 4.63281 11.1172 2.0625 8 2.0625C4.85547 2.0625 2.3125 4.63281 2.3125 7.75C2.3125 10.8945 4.85547 13.4375 8 13.4375ZM8 9.9375C8.46484 9.9375 8.875 10.3203 8.875 10.8125C8.875 11.3047 8.46484 11.6875 8 11.6875C7.48047 11.6875 7.125 11.3047 7.125 10.8125C7.125 10.3203 7.50781 9.9375 8 9.9375ZM8.90234 4.25C9.99609 4.25 10.8438 5.09766 10.8164 6.16406C10.8164 6.82031 10.4609 7.44922 9.88672 7.80469L8.65625 8.57031V8.625C8.65625 8.98047 8.35547 9.28125 8 9.28125C7.64453 9.28125 7.34375 8.98047 7.34375 8.625V8.1875C7.34375 7.96875 7.45312 7.75 7.67188 7.61328L9.23047 6.68359C9.42188 6.57422 9.53125 6.38281 9.53125 6.16406C9.53125 5.83594 9.23047 5.5625 8.875 5.5625H7.48047C7.15234 5.5625 6.90625 5.83594 6.90625 6.16406C6.90625 6.51953 6.60547 6.82031 6.25 6.82031C5.89453 6.82031 5.59375 6.51953 5.59375 6.16406C5.59375 5.09766 6.44141 4.25 7.50781 4.25H8.90234Z" fill="currentColor"/>
</svg>
