<svg width="16" height="16" viewBox="0 0 16 16" fill="none" xmlns="http://www.w3.org/2000/svg">
<path d="M8.65625 4.44141L11.7188 7.28516C11.8555 7.39453 11.9375 7.58594 11.9375 7.75C11.9375 7.94141 11.8555 8.10547 11.7188 8.24219L8.65625 11.0859C8.38281 11.332 7.97266 11.332 7.72656 11.0586C7.48047 10.7852 7.48047 10.375 7.75391 10.1289L9.58594 8.40625H4.9375C4.55469 8.40625 4.28125 8.13281 4.28125 7.75C4.28125 7.39453 4.55469 7.09375 4.9375 7.09375H9.58594L7.75391 5.39844C7.48047 5.15234 7.48047 4.74219 7.72656 4.46875C7.97266 4.19531 8.38281 4.19531 8.65625 4.44141ZM8 0.75C11.8555 0.75 15 3.89453 15 7.75C15 11.6328 11.8555 14.75 8 14.75C4.11719 14.75 1 11.6328 1 7.75C1 3.89453 4.11719 0.75 8 0.75ZM8 13.4375C11.1172 13.4375 13.6875 10.8945 13.6875 7.75C13.6875 4.63281 11.1172 2.0625 8 2.0625C4.85547 2.0625 2.3125 4.63281 2.3125 7.75C2.3125 10.8945 4.85547 13.4375 8 13.4375Z" fill="currentColor"/>
</svg>
