<svg width="12" height="12" viewBox="0 0 12 12" fill="none" xmlns="http://www.w3.org/2000/svg">
<path d="M6.46875 3.88672L8.65625 5.91797C8.75391 5.99609 8.8125 6.13281 8.8125 6.25C8.8125 6.38672 8.75391 6.50391 8.65625 6.60156L6.46875 8.63281C6.27344 8.80859 5.98047 8.80859 5.80469 8.61328C5.62891 8.41797 5.62891 8.125 5.82422 7.94922L7.13281 6.71875H3.8125C3.53906 6.71875 3.34375 6.52344 3.34375 6.25C3.34375 5.99609 3.53906 5.78125 3.8125 5.78125H7.13281L5.82422 4.57031C5.62891 4.39453 5.62891 4.10156 5.80469 3.90625C5.98047 3.71094 6.27344 3.71094 6.46875 3.88672ZM6 1.25C8.75391 1.25 11 3.49609 11 6.25C11 9.02344 8.75391 11.25 6 11.25C3.22656 11.25 1 9.02344 1 6.25C1 3.49609 3.22656 1.25 6 1.25ZM6 10.3125C8.22656 10.3125 10.0625 8.49609 10.0625 6.25C10.0625 4.02344 8.22656 2.1875 6 2.1875C3.75391 2.1875 1.9375 4.02344 1.9375 6.25C1.9375 8.49609 3.75391 10.3125 6 10.3125Z" fill="currentColor"/>
</svg>
