<svg width="12" height="12" viewBox="0 0 12 12" fill="none" xmlns="http://www.w3.org/2000/svg">
<path d="M6 1.25C8.75391 1.25 11 3.49609 11 6.25C11 9.02344 8.75391 11.25 6 11.25C3.22656 11.25 1 9.02344 1 6.25C1 3.49609 3.22656 1.25 6 1.25ZM6 10.3125C8.22656 10.3125 10.0625 8.49609 10.0625 6.25C10.0625 4.02344 8.22656 2.1875 6 2.1875C3.75391 2.1875 1.9375 4.02344 1.9375 6.25C1.9375 8.49609 3.75391 10.3125 6 10.3125ZM6.78125 7.8125C7.03516 7.8125 7.25 8.02734 7.25 8.28125C7.25 8.55469 7.03516 8.75 6.78125 8.75H5.21875C4.94531 8.75 4.75 8.55469 4.75 8.28125C4.75 8.02734 4.94531 7.8125 5.21875 7.8125H5.53125V6.5625H5.375C5.10156 6.5625 4.90625 6.36719 4.90625 6.09375C4.90625 5.83984 5.10156 5.625 5.375 5.625H6C6.25391 5.625 6.46875 5.83984 6.46875 6.09375V7.8125H6.78125ZM6 5C5.64844 5 5.375 4.72656 5.375 4.375C5.375 4.04297 5.64844 3.75 6 3.75C6.33203 3.75 6.625 4.04297 6.625 4.375C6.625 4.72656 6.33203 5 6 5Z" fill="currentColor"/>
</svg>
