<svg width="12" height="12" viewBox="0 0 12 12" fill="none" xmlns="http://www.w3.org/2000/svg">
<path d="M8.96875 8.57422C9.14453 8.76953 9.14453 9.0625 8.96875 9.23828C8.77344 9.43359 8.48047 9.43359 8.30469 9.23828L6 6.91406L3.67578 9.23828C3.48047 9.43359 3.1875 9.43359 3.01172 9.23828C2.81641 9.0625 2.81641 8.76953 3.01172 8.57422L5.33594 6.25L3.01172 3.92578C2.81641 3.73047 2.81641 3.4375 3.01172 3.26172C3.1875 3.06641 3.48047 3.06641 3.65625 3.26172L6 5.60547L8.32422 3.28125C8.5 3.08594 8.79297 3.08594 8.96875 3.28125C9.16406 3.45703 9.16406 3.75 8.96875 3.94531L6.64453 6.25L8.96875 8.57422Z" fill="currentColor"/>
</svg>
