<svg width="16" height="16" viewBox="0 0 16 16" fill="none" xmlns="http://www.w3.org/2000/svg">
<path d="M12.1562 11.0039C12.4023 11.2773 12.4023 11.6875 12.1562 11.9336C11.8828 12.207 11.4727 12.207 11.2266 11.9336L8 8.67969L4.74609 11.9336C4.47266 12.207 4.0625 12.207 3.81641 11.9336C3.54297 11.6875 3.54297 11.2773 3.81641 11.0039L7.07031 7.75L3.81641 4.49609C3.54297 4.22266 3.54297 3.8125 3.81641 3.56641C4.0625 3.29297 4.47266 3.29297 4.71875 3.56641L8 6.84766L11.2539 3.59375C11.5 3.32031 11.9102 3.32031 12.1562 3.59375C12.4297 3.83984 12.4297 4.25 12.1562 4.52344L8.90234 7.75L12.1562 11.0039Z" fill="currentColor"/>
</svg>
