<svg width="13" height="12" viewBox="0 0 13 12" fill="none" xmlns="http://www.w3.org/2000/svg">
<path d="M5.625 2.5C5.625 2.83203 5.48828 3.14453 5.27344 3.35938L5.80078 4.49219C6.03516 4.41406 6.28906 4.375 6.5625 4.375C7.32422 4.375 8.00781 4.6875 8.51562 5.17578L10.0195 4.0625C10 3.96484 10 3.86719 10 3.75C10 3.06641 10.5469 2.5 11.25 2.5C11.9336 2.5 12.5 3.06641 12.5 3.75C12.5 4.45312 11.9336 5 11.25 5C10.9961 5 10.7812 4.94141 10.5859 4.82422L9.0625 5.9375C9.25781 6.30859 9.375 6.73828 9.375 7.1875C9.375 7.55859 9.29688 7.91016 9.17969 8.22266L10.4883 9.00391C10.7031 8.84766 10.957 8.75 11.2305 8.75C11.9336 8.75 12.4805 9.31641 12.4805 10C12.4805 10.7031 11.9336 11.25 11.2305 11.25C10.5469 11.25 9.98047 10.7031 9.98047 10C9.98047 9.94141 10 9.88281 10 9.80469L8.69141 9.02344C8.18359 9.62891 7.40234 10 6.5625 10C5.15625 10 4.00391 9.00391 3.78906 7.65625H2.40234C2.20703 8.125 1.75781 8.4375 1.25 8.4375C0.546875 8.4375 0 7.89062 0 7.1875C0 6.50391 0.546875 5.9375 1.25 5.9375C1.75781 5.9375 2.20703 6.26953 2.40234 6.71875H3.78906C3.90625 5.95703 4.33594 5.3125 4.96094 4.88281L4.43359 3.75C4.41406 3.75 4.39453 3.75 4.375 3.75C3.67188 3.75 3.125 3.20312 3.125 2.5C3.125 1.81641 3.67188 1.25 4.375 1.25C5.05859 1.25 5.625 1.81641 5.625 2.5ZM6.5625 9.0625C7.22656 9.0625 7.83203 8.71094 8.18359 8.125C8.51562 7.55859 8.51562 6.83594 8.18359 6.25C7.83203 5.68359 7.22656 5.3125 6.5625 5.3125C5.87891 5.3125 5.27344 5.68359 4.92188 6.25C4.58984 6.83594 4.58984 7.55859 4.92188 8.125C5.27344 8.71094 5.87891 9.0625 6.5625 9.0625Z" fill="currentColor"/>
</svg>
