<svg width="12" height="12" viewBox="0 0 12 12" fill="none" xmlns="http://www.w3.org/2000/svg">
<path d="M6.41016 3.75C7.05469 3.75 7.5625 4.25781 7.5625 4.88281C7.5625 5.27344 7.34766 5.64453 6.99609 5.85938L6.25391 6.30859V6.34766C6.25391 6.54297 6.07812 6.71875 5.86328 6.71875C5.64844 6.71875 5.47266 6.54297 5.47266 6.34766V6.07422C5.47266 5.95703 5.53125 5.82031 5.66797 5.74219L6.58594 5.19531C6.70312 5.13672 6.76172 5.01953 6.76172 4.88281C6.76172 4.6875 6.60547 4.53125 6.41016 4.53125H5.57031C5.375 4.53125 5.21875 4.6875 5.21875 4.88281C5.21875 5.09766 5.02344 5.27344 4.82812 5.27344C4.61328 5.27344 4.4375 5.09766 4.4375 4.88281C4.4375 4.25781 4.92578 3.75 5.57031 3.75H6.41016ZM5.86328 7.10938C6.15625 7.10938 6.37109 7.34375 6.37109 7.61719C6.37109 7.91016 6.13672 8.125 5.86328 8.125C5.58984 8.125 5.375 7.91016 5.375 7.61719C5.375 7.34375 5.58984 7.10938 5.86328 7.10938ZM6 1.875C8.75391 1.875 10.9805 3.71094 10.9805 5.9375C10.9805 8.18359 8.75391 10 6 10C5.35547 10 4.73047 9.90234 4.18359 9.72656C3.59766 10.1367 2.66016 10.625 1.46875 10.625C1.27344 10.625 1.09766 10.5273 1.03906 10.332C0.980469 10.1562 1 9.96094 1.13672 9.82422C1.13672 9.82422 1.74219 9.16016 2.03516 8.39844C1.39062 7.71484 1 6.85547 1 5.9375C1 3.69141 3.22656 1.875 6 1.875ZM6 9.0625C8.22656 9.0625 10.0234 7.67578 10.0234 5.9375C10.0234 4.21875 8.20703 2.8125 5.98047 2.8125C3.75391 2.8125 1.9375 4.21875 1.9375 5.9375C1.9375 6.77734 2.34766 7.40234 2.69922 7.77344L3.10938 8.20312L2.89453 8.75C2.79688 9.02344 2.66016 9.29688 2.50391 9.53125C2.97266 9.375 3.36328 9.16016 3.63672 8.96484L4.00781 8.69141L4.45703 8.82812C4.94531 8.98438 5.47266 9.0625 6 9.0625Z" fill="currentColor"/>
</svg>
