<svg width="18" height="16" viewBox="0 0 18 16" fill="none" xmlns="http://www.w3.org/2000/svg">
<path d="M7.875 2.5C7.875 2.96484 7.68359 3.40234 7.38281 3.70312L8.12109 5.28906C8.44922 5.17969 8.80469 5.125 9.1875 5.125C10.2539 5.125 11.2109 5.5625 11.9219 6.24609L14.0273 4.6875C14 4.55078 14 4.41406 14 4.25C14 3.29297 14.7656 2.5 15.75 2.5C16.707 2.5 17.5 3.29297 17.5 4.25C17.5 5.23438 16.707 6 15.75 6C15.3945 6 15.0938 5.91797 14.8203 5.75391L12.6875 7.3125C12.9609 7.83203 13.125 8.43359 13.125 9.0625C13.125 9.58203 13.0156 10.0742 12.8516 10.5117L14.6836 11.6055C14.9844 11.3867 15.3398 11.25 15.7227 11.25C16.707 11.25 17.4727 12.043 17.4727 13C17.4727 13.9844 16.707 14.75 15.7227 14.75C14.7656 14.75 13.9727 13.9844 13.9727 13C13.9727 12.918 14 12.8359 14 12.7266L12.168 11.6328C11.457 12.4805 10.3633 13 9.1875 13C7.21875 13 5.60547 11.6055 5.30469 9.71875H3.36328C3.08984 10.375 2.46094 10.8125 1.75 10.8125C0.765625 10.8125 0 10.0469 0 9.0625C0 8.10547 0.765625 7.3125 1.75 7.3125C2.46094 7.3125 3.08984 7.77734 3.36328 8.40625H5.30469C5.46875 7.33984 6.07031 6.4375 6.94531 5.83594L6.20703 4.25C6.17969 4.25 6.15234 4.25 6.125 4.25C5.14062 4.25 4.375 3.48438 4.375 2.5C4.375 1.54297 5.14062 0.75 6.125 0.75C7.08203 0.75 7.875 1.54297 7.875 2.5ZM9.1875 11.6875C10.1172 11.6875 10.9648 11.1953 11.457 10.375C11.9219 9.58203 11.9219 8.57031 11.457 7.75C10.9648 6.95703 10.1172 6.4375 9.1875 6.4375C8.23047 6.4375 7.38281 6.95703 6.89062 7.75C6.42578 8.57031 6.42578 9.58203 6.89062 10.375C7.38281 11.1953 8.23047 11.6875 9.1875 11.6875Z" fill="currentColor"/>
</svg>
