<svg width="16" height="16" viewBox="0 0 16 16" fill="none" xmlns="http://www.w3.org/2000/svg">
<path d="M8.57422 4.25C9.47656 4.25 10.1875 4.96094 10.1875 5.83594C10.1875 6.38281 9.88672 6.90234 9.39453 7.20312L8.35547 7.83203V7.88672C8.35547 8.16016 8.10938 8.40625 7.80859 8.40625C7.50781 8.40625 7.26172 8.16016 7.26172 7.88672V7.50391C7.26172 7.33984 7.34375 7.14844 7.53516 7.03906L8.82031 6.27344C8.98438 6.19141 9.06641 6.02734 9.06641 5.83594C9.06641 5.5625 8.84766 5.34375 8.57422 5.34375H7.39844C7.125 5.34375 6.90625 5.5625 6.90625 5.83594C6.90625 6.13672 6.63281 6.38281 6.35938 6.38281C6.05859 6.38281 5.8125 6.13672 5.8125 5.83594C5.8125 4.96094 6.49609 4.25 7.39844 4.25H8.57422ZM7.80859 8.95312C8.21875 8.95312 8.51953 9.28125 8.51953 9.66406C8.51953 10.0742 8.19141 10.375 7.80859 10.375C7.42578 10.375 7.125 10.0742 7.125 9.66406C7.125 9.28125 7.42578 8.95312 7.80859 8.95312ZM8 1.625C11.8555 1.625 14.9727 4.19531 14.9727 7.3125C14.9727 10.457 11.8555 13 8 13C7.09766 13 6.22266 12.8633 5.45703 12.6172C4.63672 13.1914 3.32422 13.875 1.65625 13.875C1.38281 13.875 1.13672 13.7383 1.05469 13.4648C0.972656 13.2188 1 12.9453 1.19141 12.7539C1.19141 12.7539 2.03906 11.8242 2.44922 10.7578C1.54688 9.80078 1 8.59766 1 7.3125C1 4.16797 4.11719 1.625 8 1.625ZM8 11.6875C11.1172 11.6875 13.6328 9.74609 13.6328 7.3125C13.6328 4.90625 11.0898 2.9375 7.97266 2.9375C4.85547 2.9375 2.3125 4.90625 2.3125 7.3125C2.3125 8.48828 2.88672 9.36328 3.37891 9.88281L3.95312 10.4844L3.65234 11.25C3.51562 11.6328 3.32422 12.0156 3.10547 12.3438C3.76172 12.125 4.30859 11.8242 4.69141 11.5508L5.21094 11.168L5.83984 11.3594C6.52344 11.5781 7.26172 11.6875 8 11.6875Z" fill="currentColor"/>
</svg>
