<svg width="12" height="12" viewBox="0 0 12 12" fill="none" xmlns="http://www.w3.org/2000/svg">
<path fill-rule="evenodd" clip-rule="evenodd" d="M1.125 8.625C1.125 8.41789 1.29289 8.25 1.5 8.25H2.625C2.83211 8.25 3 8.41789 3 8.625C3 8.83211 2.83211 9 2.625 9H1.5C1.29289 9 1.125 8.83211 1.125 8.625Z" fill="currentColor" stroke="#0D0D0D" stroke-width="0.1875" stroke-linecap="round" stroke-linejoin="round"/>
<path fill-rule="evenodd" clip-rule="evenodd" d="M3.75 8.625C3.75 8.41789 3.91789 8.25 4.125 8.25H5.25C5.45711 8.25 5.625 8.41789 5.625 8.625C5.625 8.83211 5.45711 9 5.25 9H4.125C3.91789 9 3.75 8.83211 3.75 8.625Z" fill="currentColor" stroke="#0D0D0D" stroke-width="0.1875" stroke-linecap="round" stroke-linejoin="round"/>
<path fill-rule="evenodd" clip-rule="evenodd" d="M6.375 8.625C6.375 8.41789 6.54289 8.25 6.75 8.25H7.875C8.08211 8.25 8.25 8.41789 8.25 8.625C8.25 8.83211 8.08211 9 7.875 9H6.75C6.54289 9 6.375 8.83211 6.375 8.625Z" fill="currentColor" stroke="#0D0D0D" stroke-width="0.1875" stroke-linecap="round" stroke-linejoin="round"/>
<path fill-rule="evenodd" clip-rule="evenodd" d="M9 8.625C9 8.41789 9.16789 8.25 9.375 8.25H10.5C10.7071 8.25 10.875 8.41789 10.875 8.625C10.875 8.83211 10.7071 9 10.5 9H9.375C9.16789 9 9 8.83211 9 8.625Z" fill="currentColor" stroke="#0D0D0D" stroke-width="0.1875" stroke-linecap="round" stroke-linejoin="round"/>
<path fill-rule="evenodd" clip-rule="evenodd" d="M7.03764 4.58749C7.86017 5.04544 8.62192 4.93345 9.17774 4.41595C9.7339 3.89814 10.1432 2.91737 10.1245 1.50063C8.70776 1.4819 7.72699 1.89123 7.20918 2.44739C6.69168 3.00321 6.57969 3.76496 7.03764 4.58749ZM6.66026 1.93633C7.4247 1.11527 8.77777 0.662489 10.5085 0.764283C10.6983 0.775445 10.8497 0.926844 10.8608 1.11662C10.9626 2.84736 10.5099 4.20043 9.6888 4.96487C8.84228 5.75302 7.67654 5.84708 6.57031 5.1835C6.5175 5.15182 6.47331 5.10763 6.44163 5.05482C5.77805 3.94859 5.87211 2.78285 6.66026 1.93633Z" fill="currentColor" stroke="#0D0D0D" stroke-width="0.1875" stroke-linecap="round" stroke-linejoin="round"/>
<path fill-rule="evenodd" clip-rule="evenodd" d="M4.7436 2.77125C5.35139 3.42407 5.41873 4.32261 4.91547 5.16165C4.88374 5.21455 4.83945 5.25881 4.78652 5.2905C3.94708 5.79311 3.04843 5.72551 2.39567 5.11777C1.76829 4.53365 1.436 3.51474 1.51157 2.23862C1.52281 2.04891 1.67418 1.89759 1.8639 1.88644C3.14041 1.81136 4.15951 2.1439 4.7436 2.77125ZM2.25097 2.62598C3.20781 2.63254 3.85582 2.91836 4.19468 3.28232C4.53225 3.64489 4.61637 4.14031 4.31902 4.69369C3.76514 4.99078 3.26937 4.90648 2.90674 4.56885C2.54283 4.23003 2.25721 3.58231 2.25097 2.62598Z" fill="currentColor" stroke="#0D0D0D" stroke-width="0.1875" stroke-linecap="round" stroke-linejoin="round"/>
<path fill-rule="evenodd" clip-rule="evenodd" d="M6.98427 4.58219C7.146 4.71157 7.17222 4.94755 7.04284 5.10927L5.54284 6.98427C5.41346 7.146 5.17748 7.17222 5.01575 7.04284C4.85403 6.91346 4.82781 6.67748 4.95719 6.51575L6.45719 4.64075C6.58657 4.47903 6.82255 4.45281 6.98427 4.58219Z" fill="currentColor" stroke="#0D0D0D" stroke-width="0.1875" stroke-linecap="round" stroke-linejoin="round"/>
<path fill-rule="evenodd" clip-rule="evenodd" d="M4.32761 4.70267C4.47405 4.55622 4.71149 4.55622 4.85794 4.70267L5.89013 5.73486C6.03657 5.8813 6.03657 6.11874 5.89013 6.26519C5.74368 6.41163 5.50624 6.41163 5.3598 6.26519L4.32761 5.233C4.18116 5.08655 4.18116 4.84912 4.32761 4.70267Z" fill="currentColor" stroke="#0D0D0D" stroke-width="0.1875" stroke-linecap="round" stroke-linejoin="round"/>
<path fill-rule="evenodd" clip-rule="evenodd" d="M1.125 6.75C1.125 6.54289 1.29289 6.375 1.5 6.375H5.25C5.45711 6.375 5.625 6.54289 5.625 6.75C5.625 6.95711 5.45711 7.125 5.25 7.125H1.5C1.29289 7.125 1.125 6.95711 1.125 6.75Z" fill="currentColor" stroke="#0D0D0D" stroke-width="0.1875" stroke-linecap="round" stroke-linejoin="round"/>
<path fill-rule="evenodd" clip-rule="evenodd" d="M6.75 6.75C6.75 6.54289 6.91789 6.375 7.125 6.375L10.5 6.375C10.7071 6.375 10.875 6.54289 10.875 6.75C10.875 6.95711 10.7071 7.125 10.5 7.125L7.125 7.125C6.91789 7.125 6.75 6.95711 6.75 6.75Z" fill="currentColor" stroke="#0D0D0D" stroke-width="0.1875" stroke-linecap="round" stroke-linejoin="round"/>
<path fill-rule="evenodd" clip-rule="evenodd" d="M1.125 10.5C1.125 10.2929 1.29289 10.125 1.5 10.125H3.375C3.58211 10.125 3.75 10.2929 3.75 10.5C3.75 10.7071 3.58211 10.875 3.375 10.875H1.5C1.29289 10.875 1.125 10.7071 1.125 10.5Z" fill="currentColor" stroke="#0D0D0D" stroke-width="0.1875" stroke-linecap="round" stroke-linejoin="round"/>
<path fill-rule="evenodd" clip-rule="evenodd" d="M8.25 10.5C8.25 10.2929 8.41789 10.125 8.625 10.125H10.5C10.7071 10.125 10.875 10.2929 10.875 10.5C10.875 10.7071 10.7071 10.875 10.5 10.875H8.625C8.41789 10.875 8.25 10.7071 8.25 10.5Z" fill="currentColor" stroke="#0D0D0D" stroke-width="0.1875" stroke-linecap="round" stroke-linejoin="round"/>
<path fill-rule="evenodd" clip-rule="evenodd" d="M4.5 10.5C4.5 10.2929 4.66789 10.125 4.875 10.125H7.125C7.33211 10.125 7.5 10.2929 7.5 10.5C7.5 10.7071 7.33211 10.875 7.125 10.875H4.875C4.66789 10.875 4.5 10.7071 4.5 10.5Z" fill="currentColor" stroke="#0D0D0D" stroke-width="0.1875" stroke-linecap="round" stroke-linejoin="round"/>
</svg>
