<svg width="16" height="16" viewBox="0 0 16 16" fill="none" xmlns="http://www.w3.org/2000/svg">
<path fill-rule="evenodd" clip-rule="evenodd" d="M1.5 11.5C1.5 11.2239 1.72386 11 2 11H3.5C3.77614 11 4 11.2239 4 11.5C4 11.7761 3.77614 12 3.5 12H2C1.72386 12 1.5 11.7761 1.5 11.5Z" fill="currentColor" stroke="#0D0D0D" stroke-width="0.25" stroke-linecap="round" stroke-linejoin="round"/>
<path fill-rule="evenodd" clip-rule="evenodd" d="M5 11.5C5 11.2239 5.22386 11 5.5 11H7C7.27614 11 7.5 11.2239 7.5 11.5C7.5 11.7761 7.27614 12 7 12H5.5C5.22386 12 5 11.7761 5 11.5Z" fill="currentColor" stroke="#0D0D0D" stroke-width="0.25" stroke-linecap="round" stroke-linejoin="round"/>
<path fill-rule="evenodd" clip-rule="evenodd" d="M8.5 11.5C8.5 11.2239 8.72386 11 9 11H10.5C10.7761 11 11 11.2239 11 11.5C11 11.7761 10.7761 12 10.5 12H9C8.72386 12 8.5 11.7761 8.5 11.5Z" fill="currentColor" stroke="#0D0D0D" stroke-width="0.25" stroke-linecap="round" stroke-linejoin="round"/>
<path fill-rule="evenodd" clip-rule="evenodd" d="M12 11.5C12 11.2239 12.2239 11 12.5 11H14C14.2761 11 14.5 11.2239 14.5 11.5C14.5 11.7761 14.2761 12 14 12H12.5C12.2239 12 12 11.7761 12 11.5Z" fill="currentColor" stroke="#0D0D0D" stroke-width="0.25" stroke-linecap="round" stroke-linejoin="round"/>
<path fill-rule="evenodd" clip-rule="evenodd" d="M9.38344 6.11661C10.4801 6.72721 11.4958 6.57789 12.2369 5.8879C12.9785 5.19749 13.5242 3.88979 13.4993 2.0008C11.6103 1.97583 10.3026 2.5216 9.61215 3.26315C8.92216 4.00424 8.77284 5.01991 9.38344 6.11661ZM8.88026 2.58173C9.89951 1.48698 11.7036 0.883278 14.0113 1.019C14.2643 1.03389 14.4662 1.23575 14.481 1.48878C14.6168 3.79644 14.0131 5.60054 12.9183 6.61979C11.7896 7.67065 10.2353 7.79606 8.76033 6.91129C8.68992 6.86905 8.631 6.81013 8.58876 6.73972C7.70399 5.26474 7.8294 3.71042 8.88026 2.58173Z" fill="currentColor" stroke="#0D0D0D" stroke-width="0.25" stroke-linecap="round" stroke-linejoin="round"/>
<path fill-rule="evenodd" clip-rule="evenodd" d="M6.32471 3.69498C7.13511 4.5654 7.22489 5.76346 6.55388 6.88218C6.51157 6.95271 6.45252 7.01172 6.38195 7.05397C5.2627 7.72413 4.06449 7.634 3.19415 6.82367C2.35764 6.04485 1.91458 4.6863 2.01535 2.98481C2.03033 2.73186 2.23216 2.53011 2.48512 2.51523C4.18713 2.41513 5.54593 2.85852 6.32471 3.69498ZM3.00121 3.50129C4.277 3.51004 5.14101 3.89113 5.59282 4.37641C6.04291 4.85983 6.15508 5.52039 5.75862 6.25823C5.0201 6.65435 4.35908 6.54195 3.87557 6.09178C3.39036 5.64002 3.00953 4.77639 3.00121 3.50129Z" fill="currentColor" stroke="#0D0D0D" stroke-width="0.25" stroke-linecap="round" stroke-linejoin="round"/>
<path fill-rule="evenodd" clip-rule="evenodd" d="M9.31237 6.10958C9.528 6.28209 9.56296 6.59674 9.39045 6.81237L7.39045 9.31237C7.21795 9.528 6.9033 9.56296 6.68767 9.39045C6.47204 9.21795 6.43708 8.9033 6.60958 8.68767L8.60958 6.18767C8.78209 5.97204 9.09674 5.93708 9.31237 6.10958Z" fill="currentColor" stroke="#0D0D0D" stroke-width="0.25" stroke-linecap="round" stroke-linejoin="round"/>
<path fill-rule="evenodd" clip-rule="evenodd" d="M5.77023 6.27023C5.96549 6.07496 6.28207 6.07496 6.47733 6.27023L7.85358 7.64648C8.04884 7.84174 8.04884 8.15832 7.85358 8.35358C7.65832 8.54884 7.34174 8.54884 7.14648 8.35358L5.77023 6.97733C5.57496 6.78207 5.57496 6.46549 5.77023 6.27023Z" fill="currentColor" stroke="#0D0D0D" stroke-width="0.25" stroke-linecap="round" stroke-linejoin="round"/>
<path fill-rule="evenodd" clip-rule="evenodd" d="M1.5 9C1.5 8.72386 1.72386 8.5 2 8.5H7C7.27614 8.5 7.5 8.72386 7.5 9C7.5 9.27614 7.27614 9.5 7 9.5H2C1.72386 9.5 1.5 9.27614 1.5 9Z" fill="currentColor" stroke="#0D0D0D" stroke-width="0.25" stroke-linecap="round" stroke-linejoin="round"/>
<path fill-rule="evenodd" clip-rule="evenodd" d="M9 9C9 8.72386 9.22386 8.5 9.5 8.5L14 8.5C14.2761 8.5 14.5 8.72386 14.5 9C14.5 9.27614 14.2761 9.5 14 9.5L9.5 9.5C9.22386 9.5 9 9.27614 9 9Z" fill="currentColor" stroke="#0D0D0D" stroke-width="0.25" stroke-linecap="round" stroke-linejoin="round"/>
<path fill-rule="evenodd" clip-rule="evenodd" d="M1.5 14C1.5 13.7239 1.72386 13.5 2 13.5H4.5C4.77614 13.5 5 13.7239 5 14C5 14.2761 4.77614 14.5 4.5 14.5H2C1.72386 14.5 1.5 14.2761 1.5 14Z" fill="currentColor" stroke="#0D0D0D" stroke-width="0.25" stroke-linecap="round" stroke-linejoin="round"/>
<path fill-rule="evenodd" clip-rule="evenodd" d="M11 14C11 13.7239 11.2239 13.5 11.5 13.5H14C14.2761 13.5 14.5 13.7239 14.5 14C14.5 14.2761 14.2761 14.5 14 14.5H11.5C11.2239 14.5 11 14.2761 11 14Z" fill="currentColor" stroke="#0D0D0D" stroke-width="0.25" stroke-linecap="round" stroke-linejoin="round"/>
<path fill-rule="evenodd" clip-rule="evenodd" d="M6 14C6 13.7239 6.22386 13.5 6.5 13.5H9.5C9.77614 13.5 10 13.7239 10 14C10 14.2761 9.77614 14.5 9.5 14.5H6.5C6.22386 14.5 6 14.2761 6 14Z" fill="currentColor" stroke="#0D0D0D" stroke-width="0.25" stroke-linecap="round" stroke-linejoin="round"/>
</svg>
