<svg width="16" height="16" viewBox="0 0 16 16" fill="none" xmlns="http://www.w3.org/2000/svg">
<path d="M9.39453 6.41016C11.6641 6.16406 13.4414 4.35938 13.6602 2.0625H13.4688C11.3633 2.0625 9.58594 3.42969 8.90234 5.28906C8.68359 4.82422 8.38281 4.38672 8.05469 4.00391C9.09375 2.0625 11.1172 0.75 13.4688 0.75H14.125C14.5898 0.75 15 1.16016 15 1.625C15 4.74219 12.6758 7.3125 9.66797 7.69531C9.61328 7.25781 9.53125 6.84766 9.39453 6.41016ZM2.3125 3.8125V4.25C2.3125 6.92969 4.44531 9.0625 7.125 9.0625H7.34375V8.625C7.34375 5.97266 5.18359 3.8125 2.53125 3.8125H2.3125ZM8.65625 8.625V9.0625V10.375V14.0938C8.65625 14.4766 8.35547 14.75 8 14.75C7.61719 14.75 7.34375 14.4766 7.34375 14.0938V10.375H7.125C3.73438 10.375 1 7.64062 1 4.25V3.375C1 2.91016 1.38281 2.5 1.875 2.5H2.53125C5.89453 2.5 8.65625 5.26172 8.65625 8.625Z" fill="currentColor"/>
</svg>
