<svg width="12" height="12" viewBox="0 0 12 12" fill="none" xmlns="http://www.w3.org/2000/svg">
<path d="M3 6C3.25 6 3.75 6 3.75 6" stroke="#0D0D0D" stroke-width="0.975" stroke-linecap="round"/>
<path d="M3.74042 4.00244C3.40662 4.06158 2.73901 4.40162 2.73901 5.28867C2.73901 6.17573 2.73901 7.13671 2.73901 7.50632" stroke="#0D0D0D" stroke-width="0.975" stroke-linecap="round"/>
<path d="M0.959492 2.20728C1.06382 2.19144 1.20989 2.18863 1.37865 2.21211C1.72005 2.25965 2.0908 2.40505 2.36128 2.67546C2.66892 2.98311 2.85082 3.32645 2.9137 3.6132C2.97792 3.90616 2.90929 4.07061 2.83429 4.1456C2.75913 4.22047 2.59509 4.28844 2.30258 4.22433C2.01583 4.16144 1.67248 3.97955 1.36484 3.6719C1.09443 3.40142 0.949027 3.03068 0.901487 2.68927C0.878003 2.52052 0.880819 2.37444 0.896654 2.27011C0.899708 2.25006 0.905311 2.23344 0.908393 2.21971C0.922278 2.21657 0.93904 2.21039 0.959492 2.20728Z" stroke="#0D0D0D" stroke-width="0.975"/>
<path d="M6 6C6.25 6 6.75 6 6.75 6" stroke="#0D0D0D" stroke-width="0.975" stroke-linecap="round"/>
<path d="M7.00141 4.00244C6.66761 4.06158 6 4.40162 6 5.28867C6 6.17573 6 7.13671 6 7.50632" stroke="#0D0D0D" stroke-width="0.975" stroke-linecap="round"/>
<path d="M9 6C9.25 6 9.75 6 9.75 6" stroke="#0D0D0D" stroke-width="0.975" stroke-linecap="round"/>
<path d="M10.0014 4.00244C9.66761 4.06158 9 4.40162 9 5.28867C9 6.17573 9 7.13671 9 7.50632" stroke="#0D0D0D" stroke-width="0.975" stroke-linecap="round"/>
<path d="M1.5 7.5H4H9" stroke="#0D0D0D" stroke-width="0.975" stroke-linecap="round"/>
<path d="M5.25 9.75L7.25 9.75L11.25 9.75" stroke="#0D0D0D" stroke-width="0.975" stroke-linecap="round"/>
<path d="M10.875 7.5L11 7.5L11.25 7.5" stroke="#0D0D0D" stroke-width="0.975" stroke-linecap="round"/>
<path d="M2.625 9.75H2.875H3.375" stroke="#0D0D0D" stroke-width="0.975" stroke-linecap="round"/>
</svg>
