<svg width="12" height="12" viewBox="0 0 12 12" fill="none" xmlns="http://www.w3.org/2000/svg">
<path d="M6.99609 5.29297C8.61719 5.11719 9.88672 3.82812 10.043 2.1875H9.90625C8.40234 2.1875 7.13281 3.16406 6.64453 4.49219C6.48828 4.16016 6.27344 3.84766 6.03906 3.57422C6.78125 2.1875 8.22656 1.25 9.90625 1.25H10.375C10.707 1.25 11 1.54297 11 1.875C11 4.10156 9.33984 5.9375 7.19141 6.21094C7.15234 5.89844 7.09375 5.60547 6.99609 5.29297ZM1.9375 3.4375V3.75C1.9375 5.66406 3.46094 7.1875 5.375 7.1875H5.53125V6.875C5.53125 4.98047 3.98828 3.4375 2.09375 3.4375H1.9375ZM6.46875 6.875V7.1875V8.125V10.7812C6.46875 11.0547 6.25391 11.25 6 11.25C5.72656 11.25 5.53125 11.0547 5.53125 10.7812V8.125H5.375C2.95312 8.125 1 6.17188 1 3.75V3.125C1 2.79297 1.27344 2.5 1.625 2.5H2.09375C4.49609 2.5 6.46875 4.47266 6.46875 6.875Z" fill="currentColor"/>
</svg>
