<svg width="12" height="12" viewBox="0 0 12 12" fill="none" xmlns="http://www.w3.org/2000/svg">
<path d="M8.1875 6.25C8.1875 5.74219 8.59766 5.3125 9.125 5.3125C9.63281 5.3125 10.0625 5.74219 10.0625 6.25C10.0625 6.77734 9.63281 7.1875 9.125 7.1875C8.59766 7.1875 8.1875 6.77734 8.1875 6.25ZM5.0625 6.25C5.0625 5.74219 5.47266 5.3125 6 5.3125C6.50781 5.3125 6.9375 5.74219 6.9375 6.25C6.9375 6.77734 6.50781 7.1875 6 7.1875C5.47266 7.1875 5.0625 6.77734 5.0625 6.25ZM3.8125 6.25C3.8125 6.77734 3.38281 7.1875 2.875 7.1875C2.34766 7.1875 1.9375 6.77734 1.9375 6.25C1.9375 5.74219 2.34766 5.3125 2.875 5.3125C3.38281 5.3125 3.8125 5.74219 3.8125 6.25Z" fill="currentColor"/>
</svg>
