<svg width="16" height="16" viewBox="0 0 16 16" fill="none" xmlns="http://www.w3.org/2000/svg">
<path d="M11.0625 7.75C11.0625 7.03906 11.6367 6.4375 12.375 6.4375C13.0859 6.4375 13.6875 7.03906 13.6875 7.75C13.6875 8.48828 13.0859 9.0625 12.375 9.0625C11.6367 9.0625 11.0625 8.48828 11.0625 7.75ZM6.6875 7.75C6.6875 7.03906 7.26172 6.4375 8 6.4375C8.71094 6.4375 9.3125 7.03906 9.3125 7.75C9.3125 8.48828 8.71094 9.0625 8 9.0625C7.26172 9.0625 6.6875 8.48828 6.6875 7.75ZM4.9375 7.75C4.9375 8.48828 4.33594 9.0625 3.625 9.0625C2.88672 9.0625 2.3125 8.48828 2.3125 7.75C2.3125 7.03906 2.88672 6.4375 3.625 6.4375C4.33594 6.4375 4.9375 7.03906 4.9375 7.75Z" fill="currentColor"/>
</svg>
