<svg width="12" height="12" viewBox="0 0 12 12" fill="none" xmlns="http://www.w3.org/2000/svg">
<path d="M3.5 6.25C3.5 4.88281 4.61328 3.75 6 3.75C7.36719 3.75 8.5 4.88281 8.5 6.25C8.5 7.63672 7.36719 8.75 6 8.75C4.61328 8.75 3.5 7.63672 3.5 6.25ZM6 7.8125C6.85938 7.8125 7.5625 7.12891 7.5625 6.25C7.5625 5.39062 6.85938 4.6875 6 4.6875C5.98047 4.6875 5.96094 4.6875 5.94141 4.6875C5.98047 4.80469 6 4.90234 6 5C6 5.70312 5.43359 6.25 4.75 6.25C4.63281 6.25 4.53516 6.25 4.4375 6.21094C4.4375 6.23047 4.4375 6.25 4.4375 6.25C4.4375 7.12891 5.12109 7.8125 6 7.8125ZM2.23047 3.45703C3.14844 2.59766 4.41797 1.875 6 1.875C7.5625 1.875 8.83203 2.59766 9.75 3.45703C10.668 4.29688 11.2734 5.3125 11.5664 6.01562C11.625 6.17188 11.625 6.34766 11.5664 6.50391C11.2734 7.1875 10.668 8.20312 9.75 9.0625C8.83203 9.92188 7.5625 10.625 6 10.625C4.41797 10.625 3.14844 9.92188 2.23047 9.0625C1.3125 8.20312 0.707031 7.1875 0.414062 6.50391C0.355469 6.34766 0.355469 6.17188 0.414062 6.01562C0.707031 5.3125 1.3125 4.29688 2.23047 3.45703ZM6 2.8125C4.71094 2.8125 3.67578 3.39844 2.875 4.14062C2.11328 4.84375 1.60547 5.66406 1.33203 6.25C1.60547 6.83594 2.11328 7.67578 2.875 8.37891C3.67578 9.12109 4.71094 9.6875 6 9.6875C7.26953 9.6875 8.30469 9.12109 9.10547 8.37891C9.86719 7.67578 10.375 6.83594 10.6484 6.25C10.375 5.66406 9.86719 4.84375 9.10547 4.14062C8.30469 3.39844 7.26953 2.8125 6 2.8125Z" fill="currentColor"/>
</svg>
