<svg width="16" height="16" viewBox="0 0 16 16" fill="none" xmlns="http://www.w3.org/2000/svg">
<path d="M1.4375 13.4375H3.625C3.65234 13.957 3.87109 14.3945 4.17188 14.75H1.4375C0.699219 14.75 0.125 14.1758 0.125 13.4375V3.8125C0.125 2.14453 1.49219 0.75 3.1875 0.75C4.66406 0.75 5.92188 1.84375 6.16797 3.23828C5.75781 3.42969 5.40234 3.78516 5.21094 4.19531L4.58203 5.5625H1.4375V13.4375ZM4.9375 4.25V3.8125C4.9375 2.85547 4.14453 2.0625 3.1875 2.0625C2.20312 2.0625 1.4375 2.85547 1.4375 3.8125V4.25H4.9375ZM8.875 7.53125C8.875 7.17578 9.14844 6.875 9.53125 6.875H10.8438C11.1992 6.875 11.5 7.17578 11.5 7.53125V8.84375C11.5 9.22656 11.1992 9.5 10.8438 9.5H9.53125C9.14844 9.5 8.875 9.22656 8.875 8.84375V7.53125ZM13.7969 4.03125C14.043 4.14062 14.2344 4.33203 14.3438 4.57812L15.7656 7.61328C15.8203 7.75 15.875 7.91406 15.875 8.07812V13.2188C15.875 14.0664 15.1641 14.75 14.3438 14.75H6.03125C5.18359 14.75 4.5 14.0664 4.5 13.2188V8.07812C4.5 7.91406 4.52734 7.75 4.58203 7.61328L6.00391 4.57812C6.11328 4.33203 6.30469 4.14062 6.55078 4.03125L9.72266 2.63672C10.0234 2.52734 10.3242 2.52734 10.625 2.63672L13.7969 4.03125ZM5.8125 8.13281V13.2188C5.8125 13.3555 5.89453 13.4375 6.03125 13.4375H8.4375V11.9062C8.4375 11.3047 8.90234 10.8125 9.53125 10.8125H10.8438C11.4453 10.8125 11.9375 11.3047 11.9375 11.9062V13.4375H14.3438C14.4531 13.4375 14.5625 13.3555 14.5625 13.2188V8.13281L13.1953 5.20703L10.1875 3.89453L7.15234 5.20703L5.8125 8.13281Z" fill="currentColor"/>
</svg>
