<svg width="12" height="12" viewBox="0 0 12 12" fill="none" xmlns="http://www.w3.org/2000/svg">
<path d="M1.3125 10.3125H2.875C2.89453 10.6836 3.05078 10.9961 3.26562 11.25H1.3125C0.785156 11.25 0.375 10.8398 0.375 10.3125V3.4375C0.375 2.24609 1.35156 1.25 2.5625 1.25C3.61719 1.25 4.51562 2.03125 4.69141 3.02734C4.39844 3.16406 4.14453 3.41797 4.00781 3.71094L3.55859 4.6875H1.3125V10.3125ZM3.8125 3.75V3.4375C3.8125 2.75391 3.24609 2.1875 2.5625 2.1875C1.85938 2.1875 1.3125 2.75391 1.3125 3.4375V3.75H3.8125ZM6.625 6.09375C6.625 5.83984 6.82031 5.625 7.09375 5.625H8.03125C8.28516 5.625 8.5 5.83984 8.5 6.09375V7.03125C8.5 7.30469 8.28516 7.5 8.03125 7.5H7.09375C6.82031 7.5 6.625 7.30469 6.625 7.03125V6.09375ZM10.1406 3.59375C10.3164 3.67188 10.4531 3.80859 10.5312 3.98438L11.5469 6.15234C11.5859 6.25 11.625 6.36719 11.625 6.48438V10.1562C11.625 10.7617 11.1172 11.25 10.5312 11.25H4.59375C3.98828 11.25 3.5 10.7617 3.5 10.1562V6.48438C3.5 6.36719 3.51953 6.25 3.55859 6.15234L4.57422 3.98438C4.65234 3.80859 4.78906 3.67188 4.96484 3.59375L7.23047 2.59766C7.44531 2.51953 7.66016 2.51953 7.875 2.59766L10.1406 3.59375ZM4.4375 6.52344V10.1562C4.4375 10.2539 4.49609 10.3125 4.59375 10.3125H6.3125V9.21875C6.3125 8.78906 6.64453 8.4375 7.09375 8.4375H8.03125C8.46094 8.4375 8.8125 8.78906 8.8125 9.21875V10.3125H10.5312C10.6094 10.3125 10.6875 10.2539 10.6875 10.1562V6.52344L9.71094 4.43359L7.5625 3.49609L5.39453 4.43359L4.4375 6.52344Z" fill="currentColor"/>
</svg>
