<svg width="12" height="12" viewBox="0 0 12 12" fill="none" xmlns="http://www.w3.org/2000/svg">
<path d="M1.125 3.88044C1.125 3.60129 1.35129 3.375 1.63044 3.375H9.24456C9.52371 3.375 9.75 3.60129 9.75 3.88044V4.74456C9.75 5.02371 9.52371 5.25 9.24456 5.25H7.875H7.125H3.5625H1.63044C1.35129 5.25 1.125 5.02371 1.125 4.74456V3.88044Z" stroke="#0D0D0D" stroke-width="0.975"/>
<path d="M2.3625 3.1875C2.3625 2.86924 2.48893 2.56402 2.71397 2.33897C2.93902 2.11393 3.24424 1.9875 3.5625 1.9875" stroke="#0D0D0D" stroke-width="0.975" stroke-linecap="round"/>
<path d="M4.62928 10.7306C4.59943 10.5269 4.60953 10.3185 4.65855 10.1203C4.70755 9.92208 4.79369 9.74117 4.90845 9.58906C5.02312 9.43707 5.16287 9.31835 5.31583 9.23759C5.46853 9.15696 5.63226 9.1152 5.79635 9.11263" stroke="#0D0D0D" stroke-width="0.975" stroke-linecap="round"/>
<path d="M7.2375 10.3859C7.2375 10.2471 7.29264 10.1139 7.39079 10.0158C7.48894 9.91764 7.62207 9.8625 7.76087 9.8625" stroke="#0D0D0D" stroke-width="0.975" stroke-linecap="round"/>
<path d="M7.3125 1.9875C7.63076 1.9875 7.93598 2.11393 8.16103 2.33897C8.38607 2.56402 8.5125 2.86924 8.5125 3.1875" stroke="#0D0D0D" stroke-width="0.975" stroke-linecap="round"/>
<path d="M9.9375 9.1125C10.2382 9.1125 10.5384 9.24477 10.7684 9.50029C10.9999 9.75752 11.1375 10.1164 11.1375 10.5" stroke="#0D0D0D" stroke-width="0.975" stroke-linecap="round"/>
<path d="M3.8625 2.0625C3.8625 1.92016 3.89657 1.7759 3.96694 1.63691C4.03757 1.4974 4.14467 1.36367 4.2878 1.24656C4.43106 1.12935 4.60607 1.03247 4.80469 0.965159C5.00325 0.897865 5.21851 0.8625 5.4375 0.8625C5.65649 0.8625 5.87175 0.897865 6.07031 0.965159C6.26893 1.03247 6.44394 1.12935 6.5872 1.24656C6.73033 1.36367 6.83743 1.4974 6.90806 1.63691C6.97843 1.7759 7.0125 1.92016 7.0125 2.0625" stroke="#0D0D0D" stroke-width="0.975" stroke-linecap="round"/>
<path d="M6.1125 9.1875C6.1125 8.98685 6.15555 8.78701 6.24052 8.59896C6.32556 8.41077 6.45151 8.23688 6.61343 8.08845C6.77543 7.93995 6.97001 7.82015 7.18701 7.73775C7.40404 7.65534 7.63794 7.6125 7.875 7.6125C8.11206 7.6125 8.34596 7.65534 8.56299 7.73775C8.77999 7.82015 8.97457 7.93995 9.13657 8.08846C9.29849 8.23688 9.42444 8.41077 9.50948 8.59896C9.59445 8.78701 9.6375 8.98685 9.6375 9.1875" stroke="#0D0D0D" stroke-width="0.975" stroke-linecap="round"/>
<path d="M1.875 5.25V9.2122C1.875 9.31806 1.84177 9.42124 1.77999 9.50719L1.59501 9.76455C1.53323 9.8505 1.5 9.95368 1.5 10.0595V10.3696C1.5 10.6487 1.72629 10.875 2.00544 10.875H4.6875M9 5.25V7.6875" stroke="#0D0D0D" stroke-width="0.975" stroke-linecap="round"/>
</svg>
