<svg width="16" height="16" viewBox="0 0 16 16" fill="none" xmlns="http://www.w3.org/2000/svg">
<path d="M1.5 5.17391C1.5 4.80172 1.80172 4.5 2.17391 4.5H12.3261C12.6983 4.5 13 4.80172 13 5.17391V6.32609C13 6.69828 12.6983 7 12.3261 7H10.5H9.5H4.75H2.17391C1.80172 7 1.5 6.69828 1.5 6.32609V5.17391Z" stroke="#0D0D0D" stroke-width="1.3"/>
<path d="M3.15 4.25C3.15 3.82565 3.31857 3.41869 3.61863 3.11863C3.91869 2.81857 4.32565 2.65 4.75 2.65" stroke="#0D0D0D" stroke-width="1.3" stroke-linecap="round"/>
<path d="M6.17237 14.3075C6.13258 14.0359 6.14605 13.758 6.2114 13.4937C6.27674 13.2294 6.39159 12.9882 6.5446 12.7854C6.6975 12.5828 6.88383 12.4245 7.08778 12.3168C7.29137 12.2093 7.50968 12.1536 7.72847 12.1502" stroke="#0D0D0D" stroke-width="1.3" stroke-linecap="round"/>
<path d="M9.65 13.8478C9.65 13.6628 9.72352 13.4853 9.85439 13.3544C9.98526 13.2235 10.1628 13.15 10.3478 13.15" stroke="#0D0D0D" stroke-width="1.3" stroke-linecap="round"/>
<path d="M9.75 2.65C10.1743 2.65 10.5813 2.81857 10.8814 3.11863C11.1814 3.41869 11.35 3.82565 11.35 4.25" stroke="#0D0D0D" stroke-width="1.3" stroke-linecap="round"/>
<path d="M13.25 12.15C13.6509 12.15 14.0512 12.3264 14.3578 12.6671C14.6665 13.01 14.85 13.4885 14.85 14" stroke="#0D0D0D" stroke-width="1.3" stroke-linecap="round"/>
<path d="M5.15 2.75C5.15 2.56021 5.19543 2.36787 5.28925 2.18255C5.38342 1.99653 5.52622 1.81822 5.71706 1.66208C5.90808 1.50579 6.14143 1.37663 6.40625 1.28688C6.67101 1.19715 6.95801 1.15 7.25 1.15C7.54199 1.15 7.82899 1.19715 8.09375 1.28688C8.35857 1.37663 8.59192 1.50579 8.78294 1.66208C8.97378 1.81822 9.11658 1.99653 9.21075 2.18255C9.30457 2.36787 9.35 2.56021 9.35 2.75" stroke="#0D0D0D" stroke-width="1.3" stroke-linecap="round"/>
<path d="M8.15 12.25C8.15 11.9825 8.2074 11.716 8.3207 11.4653C8.43408 11.2144 8.60201 10.9825 8.8179 10.7846C9.03391 10.5866 9.29334 10.4269 9.58268 10.317C9.87206 10.2071 10.1839 10.15 10.5 10.15C10.8161 10.15 11.1279 10.2071 11.4173 10.317C11.7067 10.4269 11.9661 10.5866 12.1821 10.7846C12.398 10.9825 12.5659 11.2144 12.6793 11.4653C12.7926 11.716 12.85 11.9825 12.85 12.25" stroke="#0D0D0D" stroke-width="1.3" stroke-linecap="round"/>
<path d="M2.5 7V12.2829C2.5 12.4241 2.45569 12.5617 2.37331 12.6763L2.12669 13.0194C2.04431 13.134 2 13.2716 2 13.4127V13.8261C2 14.1983 2.30172 14.5 2.67391 14.5H6.25M12 7V10.25" stroke="#0D0D0D" stroke-width="1.3" stroke-linecap="round"/>
</svg>
