<svg width="12" height="12" viewBox="0 0 12 12" fill="none" xmlns="http://www.w3.org/2000/svg">
<path fill-rule="evenodd" clip-rule="evenodd" d="M5.81395 1.54941C5.92923 1.48353 6.07077 1.48353 6.18605 1.54941L11.4361 4.54941C11.5529 4.61617 11.625 4.74043 11.625 4.875C11.625 5.00957 11.5529 5.13382 11.4361 5.20059L6.18605 8.20059C6.07077 8.26647 5.92923 8.26647 5.81395 8.20059L0.563948 5.20059C0.447107 5.13382 0.375 5.00957 0.375 4.875C0.375 4.74043 0.447107 4.61617 0.563948 4.54941L5.81395 1.54941ZM1.50584 4.875L6 7.44309L10.4942 4.875L6 2.30691L1.50584 4.875Z" fill="currentColor" stroke="#0D0D0D" stroke-width="0.25" stroke-linecap="round" stroke-linejoin="round"/>
<path fill-rule="evenodd" clip-rule="evenodd" d="M0.424473 6.56395C0.527227 6.38413 0.756297 6.32166 0.936116 6.42441L6.00006 9.3181L11.064 6.42441C11.2438 6.32166 11.4729 6.38413 11.5757 6.56395C11.6784 6.74377 11.6159 6.97284 11.4361 7.07559L6.18612 10.0756C6.07083 10.1415 5.9293 10.1415 5.81401 10.0756L0.564012 7.07559C0.384193 6.97284 0.321719 6.74377 0.424473 6.56395Z" fill="currentColor" stroke="#0D0D0D" stroke-width="0.25" stroke-linecap="round" stroke-linejoin="round"/>
<path fill-rule="evenodd" clip-rule="evenodd" d="M9.69988 3.75011C9.80338 3.9295 9.74185 4.15883 9.56246 4.26232L4.68746 7.07482C4.50807 7.17832 4.27874 7.11679 4.17524 6.9374C4.07175 6.758 4.13327 6.52868 4.31267 6.42518L9.18767 3.61268C9.36706 3.50919 9.59639 3.57071 9.69988 3.75011Z" fill="currentColor" stroke="#0D0D0D" stroke-width="0.25" stroke-linecap="round" stroke-linejoin="round"/>
<path fill-rule="evenodd" clip-rule="evenodd" d="M7.82488 2.62511C7.92838 2.8045 7.86685 3.03383 7.68746 3.13732L2.81246 5.94982C2.63307 6.05332 2.40374 5.99179 2.30024 5.8124C2.19675 5.63301 2.25827 5.40368 2.43767 5.30018L7.31267 2.48768C7.49206 2.38419 7.72139 2.44571 7.82488 2.62511Z" fill="currentColor" stroke="#0D0D0D" stroke-width="0.25" stroke-linecap="round" stroke-linejoin="round"/>
</svg>
