<svg width="16" height="16" viewBox="0 0 16 16" fill="none" xmlns="http://www.w3.org/2000/svg">
<path fill-rule="evenodd" clip-rule="evenodd" d="M7.75193 2.06588C7.90565 1.97804 8.09435 1.97804 8.24807 2.06588L15.2481 6.06588C15.4039 6.1549 15.5 6.32057 15.5 6.5C15.5 6.67943 15.4039 6.8451 15.2481 6.93412L8.24807 10.9341C8.09435 11.022 7.90565 11.022 7.75193 10.9341L0.751931 6.93412C0.596143 6.8451 0.5 6.67943 0.5 6.5C0.5 6.32057 0.596143 6.1549 0.751931 6.06588L7.75193 2.06588ZM2.00778 6.5L8 9.92412L13.9922 6.5L8 3.07588L2.00778 6.5Z" fill="currentColor" stroke="#0D0D0D" stroke-width="0.25" stroke-linecap="round" stroke-linejoin="round"/>
<path fill-rule="evenodd" clip-rule="evenodd" d="M0.565964 8.75196C0.702969 8.5122 1.0084 8.4289 1.24816 8.5659L8.00009 12.4241L14.752 8.5659C14.9918 8.4289 15.2972 8.5122 15.4342 8.75196C15.5712 8.99171 15.4879 9.29714 15.2482 9.43415L8.24815 13.4341C8.09444 13.522 7.90573 13.522 7.75202 13.4341L0.752016 9.43415C0.512257 9.29714 0.428959 8.99171 0.565964 8.75196Z" fill="currentColor" stroke="#0D0D0D" stroke-width="0.25" stroke-linecap="round" stroke-linejoin="round"/>
<path fill-rule="evenodd" clip-rule="evenodd" d="M12.9332 5.00016C13.0712 5.23935 12.9891 5.54512 12.7499 5.68312L6.24994 9.43312C6.01075 9.57111 5.70499 9.48907 5.56699 9.24988C5.429 9.01069 5.51103 8.70492 5.75022 8.56693L12.2502 4.81693C12.4894 4.67894 12.7952 4.76097 12.9332 5.00016Z" fill="currentColor" stroke="#0D0D0D" stroke-width="0.25" stroke-linecap="round" stroke-linejoin="round"/>
<path fill-rule="evenodd" clip-rule="evenodd" d="M10.4332 3.50016C10.5712 3.73935 10.4891 4.04512 10.2499 4.18312L3.74994 7.93312C3.51075 8.07111 3.20499 7.98908 3.06699 7.74988C2.929 7.51069 3.01103 7.20493 3.25022 7.06693L9.75022 3.31693C9.98941 3.17894 10.2952 3.26097 10.4332 3.50016Z" fill="currentColor" stroke="#0D0D0D" stroke-width="0.25" stroke-linecap="round" stroke-linejoin="round"/>
</svg>
