<svg width="16" height="16" viewBox="0 0 16 16" fill="none" xmlns="http://www.w3.org/2000/svg">
<path d="M1.4375 13C1.4375 13.2461 1.62891 13.4375 1.875 13.4375H10.543C10.3516 14.2031 9.66797 14.75 8.875 14.75H1.84766C0.890625 14.75 0.125 13.9844 0.125 13V2.5C0.125 1.54297 0.890625 0.75 1.84766 0.75H6.82422C7.28906 0.75 7.72656 0.941406 8.05469 1.26953L10.1055 3.32031C10.4336 3.64844 10.625 4.08594 10.625 4.55078V6.41016L9.28516 7.72266V5.125H7.125C6.63281 5.125 6.25 4.74219 6.25 4.25V2.08984H1.875C1.62891 2.08984 1.4375 2.28125 1.4375 2.52734V13ZM8.10938 10.1289L12.4297 5.83594L14.2891 7.69531L9.99609 12.0156C9.91406 12.0977 9.80469 12.125 9.69531 12.125H7.5625C7.125 12.125 6.71484 11.8789 6.52344 11.4961C6.44141 11.332 6.30469 11.3047 6.25 11.3047C6.16797 11.3047 6.03125 11.332 5.94922 11.4688L5.75781 11.9062C5.67578 12.043 5.51172 12.125 5.375 12.125H5.32031C5.15625 12.125 4.99219 12.0156 4.9375 11.8242L4.5 10.457L4.19922 11.332C4.03516 11.8242 3.59766 12.125 3.07812 12.125H2.75C2.50391 12.125 2.3125 11.9336 2.3125 11.6875C2.3125 11.4688 2.50391 11.25 2.75 11.25H3.07812C3.21484 11.25 3.32422 11.168 3.37891 11.0586L3.87109 9.55469C3.95312 9.28125 4.19922 9.11719 4.5 9.11719C4.77344 9.11719 5.01953 9.28125 5.10156 9.55469L5.48438 10.7031C6.03125 10.2656 6.96094 10.4297 7.28906 11.0859C7.34375 11.1953 7.45312 11.25 7.5625 11.25H8V10.4297C8 10.3203 8.02734 10.2109 8.10938 10.1289ZM15.6562 5.34375C15.9297 5.61719 15.9297 6.05469 15.6562 6.32812L14.918 7.06641L13.0586 5.20703L13.7969 4.46875C14.0703 4.19531 14.5078 4.19531 14.7812 4.46875L15.6562 5.34375Z" fill="currentColor"/>
</svg>
