<svg width="16" height="16" viewBox="0 0 16 16" fill="none" xmlns="http://www.w3.org/2000/svg">
<path d="M8.65625 10.1289L9.72266 9.03516C9.96875 8.78906 10.3789 8.78906 10.625 9.03516C10.8984 9.30859 10.8984 9.71875 10.625 9.96484L8.4375 12.1523C8.19141 12.4258 7.78125 12.4258 7.53516 12.1523L5.34766 9.96484C5.07422 9.71875 5.07422 9.30859 5.34766 9.03516C5.45703 8.92578 5.62109 8.84375 5.8125 8.84375C5.97656 8.84375 6.14062 8.92578 6.25 9.03516L7.34375 10.1289V7.3125C7.34375 6.95703 7.61719 6.65625 8 6.65625C8.35547 6.65625 8.65625 6.95703 8.65625 7.3125V10.1289ZM12.7305 3.32031C13.0586 3.64844 13.25 4.08594 13.25 4.55078V13C13.25 13.9844 12.457 14.75 11.5 14.75H4.5C3.51562 14.75 2.75 13.9844 2.75 13V2.5C2.75 1.54297 3.51562 0.75 4.5 0.75H9.44922C9.91406 0.75 10.3516 0.941406 10.6797 1.26953L12.7305 3.32031ZM11.9375 13H11.9102V5.125H9.75C9.25781 5.125 8.875 4.74219 8.875 4.25V2.08984H4.5C4.25391 2.08984 4.0625 2.28125 4.0625 2.52734V13C4.0625 13.2461 4.25391 13.4375 4.5 13.4375H11.5C11.7188 13.4375 11.9375 13.2461 11.9375 13Z" fill="currentColor"/>
</svg>
