<svg width="12" height="12" viewBox="0 0 12 12" fill="none" xmlns="http://www.w3.org/2000/svg">
<path d="M1.3125 10C1.3125 10.1758 1.44922 10.3125 1.625 10.3125H7.81641C7.67969 10.8594 7.19141 11.25 6.625 11.25H1.60547C0.921875 11.25 0.375 10.7031 0.375 10V2.5C0.375 1.81641 0.921875 1.25 1.60547 1.25H5.16016C5.49219 1.25 5.80469 1.38672 6.03906 1.62109L7.50391 3.08594C7.73828 3.32031 7.875 3.63281 7.875 3.96484V5.29297L6.91797 6.23047V4.375H5.375C5.02344 4.375 4.75 4.10156 4.75 3.75V2.20703H1.625C1.44922 2.20703 1.3125 2.34375 1.3125 2.51953V10ZM6.07812 7.94922L9.16406 4.88281L10.4922 6.21094L7.42578 9.29688C7.36719 9.35547 7.28906 9.375 7.21094 9.375H5.6875C5.375 9.375 5.08203 9.19922 4.94531 8.92578C4.88672 8.80859 4.78906 8.78906 4.75 8.78906C4.69141 8.78906 4.59375 8.80859 4.53516 8.90625L4.39844 9.21875C4.33984 9.31641 4.22266 9.375 4.125 9.375H4.08594C3.96875 9.375 3.85156 9.29688 3.8125 9.16016L3.5 8.18359L3.28516 8.80859C3.16797 9.16016 2.85547 9.375 2.48438 9.375H2.25C2.07422 9.375 1.9375 9.23828 1.9375 9.0625C1.9375 8.90625 2.07422 8.75 2.25 8.75H2.48438C2.58203 8.75 2.66016 8.69141 2.69922 8.61328L3.05078 7.53906C3.10938 7.34375 3.28516 7.22656 3.5 7.22656C3.69531 7.22656 3.87109 7.34375 3.92969 7.53906L4.20312 8.35938C4.59375 8.04688 5.25781 8.16406 5.49219 8.63281C5.53125 8.71094 5.60938 8.75 5.6875 8.75H6V8.16406C6 8.08594 6.01953 8.00781 6.07812 7.94922ZM11.4688 4.53125C11.6641 4.72656 11.6641 5.03906 11.4688 5.23438L10.9414 5.76172L9.61328 4.43359L10.1406 3.90625C10.3359 3.71094 10.6484 3.71094 10.8438 3.90625L11.4688 4.53125Z" fill="currentColor"/>
</svg>
