<svg width="12" height="12" viewBox="0 0 12 12" fill="none" xmlns="http://www.w3.org/2000/svg">
<path d="M6.46875 7.94922L7.23047 7.16797C7.40625 6.99219 7.69922 6.99219 7.875 7.16797C8.07031 7.36328 8.07031 7.65625 7.875 7.83203L6.3125 9.39453C6.13672 9.58984 5.84375 9.58984 5.66797 9.39453L4.10547 7.83203C3.91016 7.65625 3.91016 7.36328 4.10547 7.16797C4.18359 7.08984 4.30078 7.03125 4.4375 7.03125C4.55469 7.03125 4.67188 7.08984 4.75 7.16797L5.53125 7.94922V5.9375C5.53125 5.68359 5.72656 5.46875 6 5.46875C6.25391 5.46875 6.46875 5.68359 6.46875 5.9375V7.94922ZM9.37891 3.08594C9.61328 3.32031 9.75 3.63281 9.75 3.96484V10C9.75 10.7031 9.18359 11.25 8.5 11.25H3.5C2.79688 11.25 2.25 10.7031 2.25 10V2.5C2.25 1.81641 2.79688 1.25 3.5 1.25H7.03516C7.36719 1.25 7.67969 1.38672 7.91406 1.62109L9.37891 3.08594ZM8.8125 10H8.79297V4.375H7.25C6.89844 4.375 6.625 4.10156 6.625 3.75V2.20703H3.5C3.32422 2.20703 3.1875 2.34375 3.1875 2.51953V10C3.1875 10.1758 3.32422 10.3125 3.5 10.3125H8.5C8.65625 10.3125 8.8125 10.1758 8.8125 10Z" fill="currentColor"/>
</svg>
