<svg width="12" height="12" viewBox="0 0 12 12" fill="none" xmlns="http://www.w3.org/2000/svg">
<path d="M1 2.69531C1 2.24609 1.35156 1.875 1.80078 1.875H10.1797C10.6289 1.875 11 2.24609 11 2.69531C11 2.89062 10.9219 3.06641 10.8047 3.20312L7.5625 7.20703V10C7.5625 10.3516 7.26953 10.625 6.91797 10.625C6.78125 10.625 6.64453 10.5859 6.52734 10.4883L4.73047 9.0625C4.53516 8.90625 4.4375 8.69141 4.4375 8.45703V7.20703L1.17578 3.20312C1.05859 3.06641 1 2.89062 1 2.69531ZM2.05469 2.8125L5.25781 6.73828C5.33594 6.83594 5.375 6.93359 5.375 7.03125V8.37891L6.625 9.375V7.03125C6.625 6.93359 6.64453 6.83594 6.72266 6.73828L9.92578 2.8125H2.05469Z" fill="currentColor"/>
</svg>
