<svg width="16" height="16" viewBox="0 0 16 16" fill="none" xmlns="http://www.w3.org/2000/svg">
<path d="M1 2.77344C1 2.14453 1.49219 1.625 2.12109 1.625H13.8516C14.4805 1.625 15 2.14453 15 2.77344C15 3.04688 14.8906 3.29297 14.7266 3.48438L10.1875 9.08984V13C10.1875 13.4922 9.77734 13.875 9.28516 13.875C9.09375 13.875 8.90234 13.8203 8.73828 13.6836L6.22266 11.6875C5.94922 11.4688 5.8125 11.168 5.8125 10.8398V9.08984L1.24609 3.48438C1.08203 3.29297 1 3.04688 1 2.77344ZM2.47656 2.9375L6.96094 8.43359C7.07031 8.57031 7.125 8.70703 7.125 8.84375V10.7305L8.875 12.125V8.84375C8.875 8.70703 8.90234 8.57031 9.01172 8.43359L13.4961 2.9375H2.47656Z" fill="currentColor"/>
</svg>
