<svg width="12" height="12" viewBox="0 0 12 12" fill="none" xmlns="http://www.w3.org/2000/svg">
<path d="M10.2969 1.25C10.668 1.25 11 1.48438 11 1.85547V7.75391C11 7.98828 10.8438 8.20312 10.5703 8.30078C9.73047 8.63281 9.02734 8.75 8.40234 8.75C6.95703 8.75 5.96094 8.14453 4.51562 8.14453C3.8125 8.14453 2.97266 8.30078 1.9375 8.75V10.7812C1.9375 11.0547 1.72266 11.25 1.46875 11.25C1.19531 11.25 1 11.0547 1 10.7812V1.71875C1 1.46484 1.19531 1.25 1.46875 1.25C1.72266 1.25 1.9375 1.46484 1.9375 1.71875V1.89453C3.08984 1.42578 3.92969 1.26953 4.61328 1.26953C5.96094 1.26953 6.64453 1.89453 7.81641 1.89453C8.36328 1.89453 9.02734 1.75781 9.90625 1.34766C10.043 1.28906 10.1602 1.25 10.2969 1.25ZM10.0625 7.5V2.30469C9.22266 2.65625 8.5 2.83203 7.81641 2.83203C7.09375 2.83203 6.52734 2.63672 6.03906 2.48047C5.57031 2.34375 5.16016 2.20703 4.61328 2.20703C3.96875 2.20703 3.20703 2.38281 2.28906 2.75391L1.9375 2.91016V7.73438C2.83594 7.38281 3.69531 7.20703 4.51562 7.20703C5.35547 7.20703 6.05859 7.38281 6.68359 7.53906C7.26953 7.67578 7.79688 7.8125 8.40234 7.8125C8.91016 7.8125 9.45703 7.71484 10.0625 7.5Z" fill="currentColor"/>
</svg>
