<svg width="16" height="16" viewBox="0 0 16 16" fill="none" xmlns="http://www.w3.org/2000/svg">
<path d="M14.0156 0.75C14.5352 0.75 15 1.07812 15 1.59766V9.85547C15 10.1836 14.7812 10.4844 14.3984 10.6211C13.2227 11.0859 12.2383 11.25 11.3633 11.25C9.33984 11.25 7.94531 10.4023 5.92188 10.4023C4.9375 10.4023 3.76172 10.6211 2.3125 11.25V14.0938C2.3125 14.4766 2.01172 14.75 1.65625 14.75C1.27344 14.75 1 14.4766 1 14.0938V1.40625C1 1.05078 1.27344 0.75 1.65625 0.75C2.01172 0.75 2.3125 1.05078 2.3125 1.40625V1.65234C3.92578 0.996094 5.10156 0.777344 6.05859 0.777344C7.94531 0.777344 8.90234 1.65234 10.543 1.65234C11.3086 1.65234 12.2383 1.46094 13.4688 0.886719C13.6602 0.804688 13.8242 0.75 14.0156 0.75ZM13.6875 9.5V2.22656C12.5117 2.71875 11.5 2.96484 10.543 2.96484C9.53125 2.96484 8.73828 2.69141 8.05469 2.47266C7.39844 2.28125 6.82422 2.08984 6.05859 2.08984C5.15625 2.08984 4.08984 2.33594 2.80469 2.85547L2.3125 3.07422V9.82812C3.57031 9.33594 4.77344 9.08984 5.92188 9.08984C7.09766 9.08984 8.08203 9.33594 8.95703 9.55469C9.77734 9.74609 10.5156 9.9375 11.3633 9.9375C12.0742 9.9375 12.8398 9.80078 13.6875 9.5Z" fill="currentColor"/>
</svg>
