<svg width="12" height="12" viewBox="0 0 12 12" fill="none" xmlns="http://www.w3.org/2000/svg">
<path d="M4.125 6.25C4.125 5.21484 4.94531 4.375 6 4.375C7.03516 4.375 7.875 5.21484 7.875 6.25C7.875 7.28516 7.03516 8.125 6 8.125C4.94531 8.125 4.125 7.28516 4.125 6.25ZM6 5.3125C5.47266 5.3125 5.0625 5.74219 5.0625 6.25C5.0625 6.77734 5.47266 7.1875 6 7.1875C6.50781 7.1875 6.9375 6.77734 6.9375 6.25C6.9375 5.74219 6.50781 5.3125 6 5.3125ZM6.72266 1.25C7.15234 1.25 7.52344 1.5625 7.62109 1.97266L7.77734 2.61719C7.95312 2.69531 8.10938 2.79297 8.24609 2.89062L8.89062 2.69531C9.30078 2.57812 9.75 2.75391 9.96484 3.125L10.6875 4.39453C10.9023 4.76562 10.8242 5.23438 10.5117 5.52734L10.043 5.97656C10.043 6.07422 10.0625 6.17188 10.0625 6.25C10.0625 6.34766 10.043 6.44531 10.043 6.52344L10.5117 6.99219C10.8242 7.28516 10.9023 7.75391 10.6875 8.125L9.96484 9.39453C9.75 9.76562 9.30078 9.94141 8.89062 9.82422L8.24609 9.62891C8.10938 9.72656 7.95312 9.82422 7.77734 9.90234L7.62109 10.5469C7.52344 10.957 7.15234 11.25 6.72266 11.25H5.25781C4.82812 11.25 4.45703 10.957 4.35938 10.5469L4.20312 9.90234C4.02734 9.82422 3.87109 9.72656 3.73438 9.62891L3.08984 9.82422C2.67969 9.94141 2.23047 9.76562 2.01562 9.39453L1.29297 8.125C1.07812 7.75391 1.15625 7.28516 1.46875 6.99219L1.9375 6.52344C1.9375 6.44531 1.9375 6.34766 1.9375 6.25C1.9375 6.17188 1.9375 6.07422 1.9375 5.97656L1.46875 5.52734C1.15625 5.23438 1.07812 4.76562 1.29297 4.39453L2.01562 3.125C2.23047 2.75391 2.67969 2.57812 3.08984 2.69531L3.73438 2.89062C3.87109 2.79297 4.02734 2.69531 4.20312 2.61719L4.35938 1.97266C4.45703 1.5625 4.82812 1.25 5.25781 1.25H6.72266ZM5.00391 3.28125L4.78906 3.37891C4.53516 3.47656 4.30078 3.61328 4.10547 3.76953L3.91016 3.92578L2.83594 3.59375L2.11328 4.86328L2.91406 5.625L2.89453 5.85938C2.875 5.99609 2.875 6.13281 2.875 6.25C2.875 6.38672 2.875 6.52344 2.89453 6.66016L2.91406 6.89453L2.11328 7.65625L2.83594 8.92578L3.91016 8.59375L4.10547 8.75C4.30078 8.90625 4.53516 9.04297 4.78906 9.14062L5.00391 9.23828L5.25781 10.3125H6.72266L6.97656 9.23828L7.19141 9.14062C7.44531 9.04297 7.67969 8.90625 7.875 8.75L8.07031 8.59375L9.14453 8.92578L9.86719 7.65625L9.06641 6.89453L9.08594 6.66016C9.10547 6.52344 9.125 6.38672 9.125 6.25C9.125 6.13281 9.10547 5.99609 9.08594 5.85938L9.06641 5.625L9.86719 4.86328L9.14453 3.59375L8.07031 3.92578L7.875 3.76953C7.67969 3.61328 7.44531 3.47656 7.19141 3.37891L6.97656 3.28125L6.72266 2.1875H5.25781L5.00391 3.28125Z" fill="currentColor"/>
</svg>
