<svg width="16" height="16" viewBox="0 0 16 16" fill="none" xmlns="http://www.w3.org/2000/svg">
<path d="M5.375 7.75C5.375 6.30078 6.52344 5.125 8 5.125C9.44922 5.125 10.625 6.30078 10.625 7.75C10.625 9.19922 9.44922 10.375 8 10.375C6.52344 10.375 5.375 9.19922 5.375 7.75ZM8 6.4375C7.26172 6.4375 6.6875 7.03906 6.6875 7.75C6.6875 8.48828 7.26172 9.0625 8 9.0625C8.71094 9.0625 9.3125 8.48828 9.3125 7.75C9.3125 7.03906 8.71094 6.4375 8 6.4375ZM9.01172 0.75C9.61328 0.75 10.1328 1.1875 10.2695 1.76172L10.4883 2.66406C10.7344 2.77344 10.9531 2.91016 11.1445 3.04688L12.0469 2.77344C12.6211 2.60938 13.25 2.85547 13.5508 3.375L14.5625 5.15234C14.8633 5.67188 14.7539 6.32812 14.3164 6.73828L13.6602 7.36719C13.6602 7.50391 13.6875 7.64062 13.6875 7.75C13.6875 7.88672 13.6602 8.02344 13.6602 8.13281L14.3164 8.78906C14.7539 9.19922 14.8633 9.85547 14.5625 10.375L13.5508 12.1523C13.25 12.6719 12.6211 12.918 12.0469 12.7539L11.1445 12.4805C10.9531 12.6172 10.7344 12.7539 10.4883 12.8633L10.2695 13.7656C10.1328 14.3398 9.61328 14.75 9.01172 14.75H6.96094C6.35938 14.75 5.83984 14.3398 5.70312 13.7656L5.48438 12.8633C5.23828 12.7539 5.01953 12.6172 4.82812 12.4805L3.92578 12.7539C3.35156 12.918 2.72266 12.6719 2.42188 12.1523L1.41016 10.375C1.10938 9.85547 1.21875 9.19922 1.65625 8.78906L2.3125 8.13281C2.3125 8.02344 2.3125 7.88672 2.3125 7.75C2.3125 7.64062 2.3125 7.50391 2.3125 7.36719L1.65625 6.73828C1.21875 6.32812 1.10938 5.67188 1.41016 5.15234L2.42188 3.375C2.72266 2.85547 3.35156 2.60938 3.92578 2.77344L4.82812 3.04688C5.01953 2.91016 5.23828 2.77344 5.48438 2.66406L5.70312 1.76172C5.83984 1.1875 6.35938 0.75 6.96094 0.75H9.01172ZM6.60547 3.59375L6.30469 3.73047C5.94922 3.86719 5.62109 4.05859 5.34766 4.27734L5.07422 4.49609L3.57031 4.03125L2.55859 5.80859L3.67969 6.875L3.65234 7.20312C3.625 7.39453 3.625 7.58594 3.625 7.75C3.625 7.94141 3.625 8.13281 3.65234 8.32422L3.67969 8.65234L2.55859 9.71875L3.57031 11.4961L5.07422 11.0312L5.34766 11.25C5.62109 11.4688 5.94922 11.6602 6.30469 11.7969L6.60547 11.9336L6.96094 13.4375H9.01172L9.36719 11.9336L9.66797 11.7969C10.0234 11.6602 10.3516 11.4688 10.625 11.25L10.8984 11.0312L12.4023 11.4961L13.4141 9.71875L12.293 8.65234L12.3203 8.32422C12.3477 8.13281 12.375 7.94141 12.375 7.75C12.375 7.58594 12.3477 7.39453 12.3203 7.20312L12.293 6.875L13.4141 5.80859L12.4023 4.03125L10.8984 4.49609L10.625 4.27734C10.3516 4.05859 10.0234 3.86719 9.66797 3.73047L9.36719 3.59375L9.01172 2.0625H6.96094L6.60547 3.59375Z" fill="currentColor"/>
</svg>
