<svg width="12" height="12" viewBox="0 0 12 12" fill="none" xmlns="http://www.w3.org/2000/svg">
<path d="M5.6875 1.36719C5.86328 1.23047 6.11719 1.23047 6.29297 1.36719L11.4492 5.74219C11.6445 5.91797 11.6836 6.21094 11.5078 6.40625C11.332 6.60156 11.0391 6.62109 10.8438 6.46484L10.375 6.05469V9.6875C10.375 10.5664 9.67188 11.25 8.8125 11.25H3.1875C2.30859 11.25 1.625 10.5664 1.625 9.6875V6.05469L1.13672 6.46484C0.941406 6.62109 0.648438 6.60156 0.472656 6.40625C0.316406 6.21094 0.335938 5.91797 0.53125 5.74219L5.6875 1.36719ZM6 2.34375L2.5625 5.25391V9.6875C2.5625 10.0391 2.83594 10.3125 3.1875 10.3125H4.125V7.34375C4.125 6.91406 4.45703 6.5625 4.90625 6.5625H7.09375C7.52344 6.5625 7.875 6.91406 7.875 7.34375V10.3125H8.8125C9.14453 10.3125 9.4375 10.0391 9.4375 9.6875V5.25391L6 2.34375ZM5.0625 10.3125H6.9375V7.5H5.0625V10.3125Z" fill="currentColor"/>
</svg>
