<svg width="16" height="16" viewBox="0 0 16 16" fill="none" xmlns="http://www.w3.org/2000/svg">
<path d="M6.05859 3.59375C6.03125 3.75781 5.92188 3.92188 5.78516 4.00391C5.62109 4.08594 5.45703 4.11328 5.29297 4.08594C5.15625 4.05859 5.04688 4.05859 4.9375 4.05859C4.08984 4.05859 3.40625 4.74219 3.40625 5.58984C3.40625 5.75391 3.43359 5.91797 3.48828 6.08203C3.57031 6.38281 3.46094 6.71094 3.16016 6.875C2.64062 7.14844 2.3125 7.69531 2.3125 8.29688C2.3125 9.22656 3.02344 9.9375 3.95312 9.9375H7.34375V9.5V7.75V4.90625C7.34375 4.55078 7.61719 4.25 8 4.25C8.35547 4.25 8.65625 4.55078 8.65625 4.90625V7.75V9.5V9.9375H12.0469C12.9492 9.9375 13.6875 9.22656 13.6875 8.29688C13.6875 7.69531 13.332 7.14844 12.8125 6.875C12.5117 6.71094 12.4023 6.38281 12.5117 6.08203C12.5391 5.91797 12.5938 5.75391 12.5938 5.5625C12.5938 4.74219 11.8828 4.03125 11.0625 4.03125C10.9258 4.03125 10.8164 4.05859 10.707 4.08594C10.5156 4.11328 10.3516 4.08594 10.1875 4.00391C10.0508 3.92188 9.94141 3.75781 9.91406 3.59375C9.69531 2.71875 8.92969 2.0625 8 2.0625C7.04297 2.0625 6.27734 2.71875 6.05859 3.59375ZM7.34375 11.25H3.95312C2.3125 11.25 1 9.9375 1 8.29688C1 7.36719 1.4375 6.51953 2.12109 6C2.09375 5.86328 2.09375 5.72656 2.09375 5.5625C2.09375 4.00391 3.35156 2.71875 4.9375 2.71875C4.9375 2.71875 4.96484 2.71875 4.99219 2.71875C5.48438 1.57031 6.63281 0.75 8 0.75C9.33984 0.75 10.4883 1.57031 11.0078 2.71875C11.0078 2.71875 11.0352 2.71875 11.0625 2.71875C12.6211 2.71875 13.9062 4.00391 13.9062 5.5625C13.9062 5.72656 13.8789 5.86328 13.8516 6C14.5352 6.51953 15 7.36719 15 8.29688C15 9.9375 13.6602 11.25 12.0469 11.25H8.65625V14.0938C8.65625 14.4766 8.35547 14.75 8 14.75C7.61719 14.75 7.34375 14.4766 7.34375 14.0938V11.25Z" fill="currentColor"/>
</svg>
