<svg width="12" height="12" viewBox="0 0 12 12" fill="none" xmlns="http://www.w3.org/2000/svg">
<path d="M4.61328 3.28125C4.59375 3.39844 4.51562 3.51562 4.41797 3.57422C4.30078 3.63281 4.18359 3.65234 4.06641 3.63281C3.96875 3.61328 3.89062 3.61328 3.8125 3.61328C3.20703 3.61328 2.71875 4.10156 2.71875 4.70703C2.71875 4.82422 2.73828 4.94141 2.77734 5.05859C2.83594 5.27344 2.75781 5.50781 2.54297 5.625C2.17188 5.82031 1.9375 6.21094 1.9375 6.64062C1.9375 7.30469 2.44531 7.8125 3.10938 7.8125H5.53125V7.5V6.25V4.21875C5.53125 3.96484 5.72656 3.75 6 3.75C6.25391 3.75 6.46875 3.96484 6.46875 4.21875V6.25V7.5V7.8125H8.89062C9.53516 7.8125 10.0625 7.30469 10.0625 6.64062C10.0625 6.21094 9.80859 5.82031 9.4375 5.625C9.22266 5.50781 9.14453 5.27344 9.22266 5.05859C9.24219 4.94141 9.28125 4.82422 9.28125 4.6875C9.28125 4.10156 8.77344 3.59375 8.1875 3.59375C8.08984 3.59375 8.01172 3.61328 7.93359 3.63281C7.79688 3.65234 7.67969 3.63281 7.5625 3.57422C7.46484 3.51562 7.38672 3.39844 7.36719 3.28125C7.21094 2.65625 6.66406 2.1875 6 2.1875C5.31641 2.1875 4.76953 2.65625 4.61328 3.28125ZM5.53125 8.75H3.10938C1.9375 8.75 1 7.8125 1 6.64062C1 5.97656 1.3125 5.37109 1.80078 5C1.78125 4.90234 1.78125 4.80469 1.78125 4.6875C1.78125 3.57422 2.67969 2.65625 3.8125 2.65625C3.8125 2.65625 3.83203 2.65625 3.85156 2.65625C4.20312 1.83594 5.02344 1.25 6 1.25C6.95703 1.25 7.77734 1.83594 8.14844 2.65625C8.14844 2.65625 8.16797 2.65625 8.1875 2.65625C9.30078 2.65625 10.2188 3.57422 10.2188 4.6875C10.2188 4.80469 10.1992 4.90234 10.1797 5C10.668 5.37109 11 5.97656 11 6.64062C11 7.8125 10.043 8.75 8.89062 8.75H6.46875V10.7812C6.46875 11.0547 6.25391 11.25 6 11.25C5.72656 11.25 5.53125 11.0547 5.53125 10.7812V8.75Z" fill="currentColor"/>
</svg>
