<svg width="12" height="12" viewBox="0 0 12 12" fill="none" xmlns="http://www.w3.org/2000/svg">
<path d="M10.0625 9.66797C10.2578 9.86328 10.2578 10.1562 10.0625 10.332C9.88672 10.5273 9.59375 10.5273 9.41797 10.332L9.18359 10.1172C8.30469 10.8203 7.21094 11.25 6 11.25C4.76953 11.25 3.67578 10.8203 2.79688 10.1172L2.5625 10.332C2.38672 10.5273 2.09375 10.5273 1.91797 10.332C1.72266 10.1562 1.72266 9.86328 1.91797 9.66797L2.13281 9.45312C1.42969 8.57422 1 7.48047 1 6.25C1 5.03906 1.42969 3.94531 2.13281 3.06641L1.91797 2.83203C1.72266 2.65625 1.72266 2.36328 1.91797 2.1875C2.09375 1.99219 2.38672 1.99219 2.5625 2.1875L2.79688 2.40234C3.67578 1.69922 4.76953 1.25 6 1.25C7.21094 1.25 8.30469 1.69922 9.18359 2.40234L9.41797 2.1875C9.59375 1.99219 9.88672 1.99219 10.0625 2.1875C10.2578 2.36328 10.2578 2.65625 10.0625 2.83203L9.84766 3.06641C10.5508 3.94531 11 5.03906 11 6.25C11 7.48047 10.5508 8.57422 9.84766 9.45312L10.0625 9.66797ZM6.9375 7.87109C6.66406 8.04688 6.33203 8.125 6 8.125C5.64844 8.125 5.31641 8.04688 5.04297 7.87109L3.46094 9.45312C4.16406 10 5.04297 10.3125 6 10.3125C6.9375 10.3125 7.81641 10 8.51953 9.45312L6.9375 7.87109ZM10.0625 6.25C10.0625 5.3125 9.73047 4.43359 9.18359 3.73047L7.60156 5.3125C7.77734 5.58594 7.875 5.91797 7.875 6.25C7.875 6.60156 7.77734 6.93359 7.60156 7.20703L9.18359 8.78906C9.73047 8.08594 10.0625 7.20703 10.0625 6.25ZM6 2.1875C5.04297 2.1875 4.16406 2.51953 3.46094 3.06641L5.04297 4.64844C5.31641 4.47266 5.64844 4.375 6 4.375C6.33203 4.375 6.66406 4.47266 6.9375 4.64844L8.51953 3.06641C7.81641 2.51953 6.9375 2.1875 6 2.1875ZM4.37891 7.20703C4.20312 6.93359 4.125 6.60156 4.125 6.25C4.125 5.91797 4.20312 5.58594 4.37891 5.3125L2.79688 3.73047C2.25 4.43359 1.9375 5.3125 1.9375 6.25C1.9375 7.20703 2.25 8.08594 2.79688 8.78906L4.37891 7.20703ZM6 5.3125C5.47266 5.3125 5.0625 5.74219 5.0625 6.25C5.0625 6.77734 5.47266 7.1875 6 7.1875C6.50781 7.1875 6.9375 6.77734 6.9375 6.25C6.9375 5.74219 6.50781 5.3125 6 5.3125Z" fill="currentColor"/>
</svg>
