<svg width="16" height="16" viewBox="0 0 16 16" fill="none" xmlns="http://www.w3.org/2000/svg">
<path d="M13.6875 12.5352C13.9609 12.8086 13.9609 13.2188 13.6875 13.4648C13.4414 13.7383 13.0312 13.7383 12.7852 13.4648L12.457 13.1641C11.2266 14.1484 9.69531 14.75 8 14.75C6.27734 14.75 4.74609 14.1484 3.51562 13.1641L3.1875 13.4648C2.94141 13.7383 2.53125 13.7383 2.28516 13.4648C2.01172 13.2188 2.01172 12.8086 2.28516 12.5352L2.58594 12.2344C1.60156 11.0039 1 9.47266 1 7.75C1 6.05469 1.60156 4.52344 2.58594 3.29297L2.28516 2.96484C2.01172 2.71875 2.01172 2.30859 2.28516 2.0625C2.53125 1.78906 2.94141 1.78906 3.1875 2.0625L3.51562 2.36328C4.74609 1.37891 6.27734 0.75 8 0.75C9.69531 0.75 11.2266 1.37891 12.457 2.36328L12.7852 2.0625C13.0312 1.78906 13.4414 1.78906 13.6875 2.0625C13.9609 2.30859 13.9609 2.71875 13.6875 2.96484L13.3867 3.29297C14.3711 4.52344 15 6.05469 15 7.75C15 9.47266 14.3711 11.0039 13.3867 12.2344L13.6875 12.5352ZM9.3125 10.0195C8.92969 10.2656 8.46484 10.375 8 10.375C7.50781 10.375 7.04297 10.2656 6.66016 10.0195L4.44531 12.2344C5.42969 13 6.66016 13.4375 8 13.4375C9.3125 13.4375 10.543 13 11.5273 12.2344L9.3125 10.0195ZM13.6875 7.75C13.6875 6.4375 13.2227 5.20703 12.457 4.22266L10.2422 6.4375C10.4883 6.82031 10.625 7.28516 10.625 7.75C10.625 8.24219 10.4883 8.70703 10.2422 9.08984L12.457 11.3047C13.2227 10.3203 13.6875 9.08984 13.6875 7.75ZM8 2.0625C6.66016 2.0625 5.42969 2.52734 4.44531 3.29297L6.66016 5.50781C7.04297 5.26172 7.50781 5.125 8 5.125C8.46484 5.125 8.92969 5.26172 9.3125 5.50781L11.5273 3.29297C10.543 2.52734 9.3125 2.0625 8 2.0625ZM5.73047 9.08984C5.48438 8.70703 5.375 8.24219 5.375 7.75C5.375 7.28516 5.48438 6.82031 5.73047 6.4375L3.51562 4.22266C2.75 5.20703 2.3125 6.4375 2.3125 7.75C2.3125 9.08984 2.75 10.3203 3.51562 11.3047L5.73047 9.08984ZM8 6.4375C7.26172 6.4375 6.6875 7.03906 6.6875 7.75C6.6875 8.48828 7.26172 9.0625 8 9.0625C8.71094 9.0625 9.3125 8.48828 9.3125 7.75C9.3125 7.03906 8.71094 6.4375 8 6.4375Z" fill="currentColor"/>
</svg>
