<svg width="12" height="12" viewBox="0 0 12 12" fill="none" xmlns="http://www.w3.org/2000/svg">
<path d="M2.25 2.5C2.58203 2.5 2.875 2.79297 2.875 3.125C2.875 3.47656 2.58203 3.75 2.25 3.75C1.89844 3.75 1.625 3.47656 1.625 3.125C1.625 2.79297 1.89844 2.5 2.25 2.5ZM10.5312 2.65625C10.7852 2.65625 11 2.87109 11 3.125C11 3.39844 10.7852 3.59375 10.5312 3.59375H4.59375C4.32031 3.59375 4.125 3.39844 4.125 3.125C4.125 2.87109 4.32031 2.65625 4.59375 2.65625H10.5312ZM10.5312 5.78125C10.7852 5.78125 11 5.99609 11 6.25C11 6.52344 10.7852 6.71875 10.5312 6.71875H4.59375C4.32031 6.71875 4.125 6.52344 4.125 6.25C4.125 5.99609 4.32031 5.78125 4.59375 5.78125H10.5312ZM10.5312 8.90625C10.7852 8.90625 11 9.12109 11 9.375C11 9.64844 10.7852 9.84375 10.5312 9.84375H4.59375C4.32031 9.84375 4.125 9.64844 4.125 9.375C4.125 9.12109 4.32031 8.90625 4.59375 8.90625H10.5312ZM2.25 6.875C1.89844 6.875 1.625 6.60156 1.625 6.25C1.625 5.91797 1.89844 5.625 2.25 5.625C2.58203 5.625 2.875 5.91797 2.875 6.25C2.875 6.60156 2.58203 6.875 2.25 6.875ZM2.25 8.75C2.58203 8.75 2.875 9.04297 2.875 9.375C2.875 9.72656 2.58203 10 2.25 10C1.89844 10 1.625 9.72656 1.625 9.375C1.625 9.04297 1.89844 8.75 2.25 8.75Z" fill="currentColor"/>
</svg>
