<svg width="16" height="16" viewBox="0 0 16 16" fill="none" xmlns="http://www.w3.org/2000/svg">
<path d="M2.75 2.5C3.21484 2.5 3.625 2.91016 3.625 3.375C3.625 3.86719 3.21484 4.25 2.75 4.25C2.25781 4.25 1.875 3.86719 1.875 3.375C1.875 2.91016 2.25781 2.5 2.75 2.5ZM14.3438 2.71875C14.6992 2.71875 15 3.01953 15 3.375C15 3.75781 14.6992 4.03125 14.3438 4.03125H6.03125C5.64844 4.03125 5.375 3.75781 5.375 3.375C5.375 3.01953 5.64844 2.71875 6.03125 2.71875H14.3438ZM14.3438 7.09375C14.6992 7.09375 15 7.39453 15 7.75C15 8.13281 14.6992 8.40625 14.3438 8.40625H6.03125C5.64844 8.40625 5.375 8.13281 5.375 7.75C5.375 7.39453 5.64844 7.09375 6.03125 7.09375H14.3438ZM14.3438 11.4688C14.6992 11.4688 15 11.7695 15 12.125C15 12.5078 14.6992 12.7812 14.3438 12.7812H6.03125C5.64844 12.7812 5.375 12.5078 5.375 12.125C5.375 11.7695 5.64844 11.4688 6.03125 11.4688H14.3438ZM2.75 8.625C2.25781 8.625 1.875 8.24219 1.875 7.75C1.875 7.28516 2.25781 6.875 2.75 6.875C3.21484 6.875 3.625 7.28516 3.625 7.75C3.625 8.24219 3.21484 8.625 2.75 8.625ZM2.75 11.25C3.21484 11.25 3.625 11.6602 3.625 12.125C3.625 12.6172 3.21484 13 2.75 13C2.25781 13 1.875 12.6172 1.875 12.125C1.875 11.6602 2.25781 11.25 2.75 11.25Z" fill="currentColor"/>
</svg>
