<svg width="12" height="12" viewBox="0 0 12 12" fill="none" xmlns="http://www.w3.org/2000/svg">
<path d="M6.46875 3.28125C6.46875 3.55469 6.25391 3.75 6 3.75C5.72656 3.75 5.53125 3.55469 5.53125 3.28125V1.71875C5.53125 1.46484 5.72656 1.25 6 1.25C6.25391 1.25 6.46875 1.46484 6.46875 1.71875V3.28125ZM6.46875 10.7812C6.46875 11.0547 6.25391 11.25 6 11.25C5.72656 11.25 5.53125 11.0547 5.53125 10.7812V9.21875C5.53125 8.96484 5.72656 8.75 6 8.75C6.25391 8.75 6.46875 8.96484 6.46875 9.21875V10.7812ZM1 6.25C1 5.99609 1.19531 5.78125 1.46875 5.78125H3.03125C3.28516 5.78125 3.5 5.99609 3.5 6.25C3.5 6.52344 3.28516 6.71875 3.03125 6.71875H1.46875C1.19531 6.71875 1 6.52344 1 6.25ZM10.5312 5.78125C10.7852 5.78125 11 5.99609 11 6.25C11 6.52344 10.7852 6.71875 10.5312 6.71875H8.96875C8.69531 6.71875 8.5 6.52344 8.5 6.25C8.5 5.99609 8.69531 5.78125 8.96875 5.78125H10.5312ZM9.53516 2.71484C9.71094 2.91016 9.71094 3.20312 9.53516 3.37891L8.42188 4.49219C8.24609 4.66797 7.93359 4.66797 7.75781 4.49219C7.58203 4.31641 7.58203 4.00391 7.75781 3.82812L8.87109 2.71484C9.04688 2.53906 9.33984 2.53906 9.53516 2.71484ZM3.10938 9.78516C2.93359 9.98047 2.64062 9.98047 2.44531 9.78516C2.26953 9.60938 2.26953 9.31641 2.44531 9.14062L3.55859 8.02734C3.73438 7.85156 4.04688 7.85156 4.22266 8.02734C4.39844 8.20312 4.39844 8.51562 4.22266 8.69141L3.10938 9.78516ZM2.44531 2.71484C2.64062 2.53906 2.93359 2.53906 3.10938 2.71484L4.22266 3.82812C4.39844 4.00391 4.39844 4.31641 4.22266 4.49219C4.04688 4.66797 3.73438 4.66797 3.55859 4.49219L2.44531 3.37891C2.26953 3.20312 2.26953 2.91016 2.44531 2.71484ZM9.53516 9.14062C9.71094 9.31641 9.71094 9.60938 9.53516 9.78516C9.33984 9.98047 9.04688 9.98047 8.87109 9.78516L7.75781 8.69141C7.58203 8.51562 7.58203 8.20312 7.75781 8.02734C7.93359 7.85156 8.24609 7.85156 8.42188 8.02734L9.53516 9.14062Z" fill="currentColor"/>
</svg>
