<svg width="16" height="16" viewBox="0 0 16 16" fill="none" xmlns="http://www.w3.org/2000/svg">
<path d="M8.65625 3.59375C8.65625 3.97656 8.35547 4.25 8 4.25C7.61719 4.25 7.34375 3.97656 7.34375 3.59375V1.40625C7.34375 1.05078 7.61719 0.75 8 0.75C8.35547 0.75 8.65625 1.05078 8.65625 1.40625V3.59375ZM8.65625 14.0938C8.65625 14.4766 8.35547 14.75 8 14.75C7.61719 14.75 7.34375 14.4766 7.34375 14.0938V11.9062C7.34375 11.5508 7.61719 11.25 8 11.25C8.35547 11.25 8.65625 11.5508 8.65625 11.9062V14.0938ZM1 7.75C1 7.39453 1.27344 7.09375 1.65625 7.09375H3.84375C4.19922 7.09375 4.5 7.39453 4.5 7.75C4.5 8.13281 4.19922 8.40625 3.84375 8.40625H1.65625C1.27344 8.40625 1 8.13281 1 7.75ZM14.3438 7.09375C14.6992 7.09375 15 7.39453 15 7.75C15 8.13281 14.6992 8.40625 14.3438 8.40625H12.1562C11.7734 8.40625 11.5 8.13281 11.5 7.75C11.5 7.39453 11.7734 7.09375 12.1562 7.09375H14.3438ZM12.9492 2.80078C13.1953 3.07422 13.1953 3.48438 12.9492 3.73047L11.3906 5.28906C11.1445 5.53516 10.707 5.53516 10.4609 5.28906C10.2148 5.04297 10.2148 4.60547 10.4609 4.35938L12.0195 2.80078C12.2656 2.55469 12.6758 2.55469 12.9492 2.80078ZM3.95312 12.6992C3.70703 12.9727 3.29688 12.9727 3.02344 12.6992C2.77734 12.4531 2.77734 12.043 3.02344 11.7969L4.58203 10.2383C4.82812 9.99219 5.26562 9.99219 5.51172 10.2383C5.75781 10.4844 5.75781 10.9219 5.51172 11.168L3.95312 12.6992ZM3.02344 2.80078C3.29688 2.55469 3.70703 2.55469 3.95312 2.80078L5.51172 4.35938C5.75781 4.60547 5.75781 5.04297 5.51172 5.28906C5.26562 5.53516 4.82812 5.53516 4.58203 5.28906L3.02344 3.73047C2.77734 3.48438 2.77734 3.07422 3.02344 2.80078ZM12.9492 11.7969C13.1953 12.043 13.1953 12.4531 12.9492 12.6992C12.6758 12.9727 12.2656 12.9727 12.0195 12.6992L10.4609 11.168C10.2148 10.9219 10.2148 10.4844 10.4609 10.2383C10.707 9.99219 11.1445 9.99219 11.3906 10.2383L12.9492 11.7969Z" fill="currentColor"/>
</svg>
