<svg width="12" height="12" viewBox="0 0 12 12" fill="none" xmlns="http://www.w3.org/2000/svg">
<path d="M7.5625 5C7.5625 5.87891 6.85938 6.5625 6 6.5625C5.12109 6.5625 4.4375 5.87891 4.4375 5C4.4375 4.14062 5.12109 3.4375 6 3.4375C6.85938 3.4375 7.5625 4.14062 7.5625 5ZM6 4.375C5.64844 4.375 5.375 4.66797 5.375 5C5.375 5.35156 5.64844 5.625 6 5.625C6.33203 5.625 6.625 5.35156 6.625 5C6.625 4.66797 6.33203 4.375 6 4.375ZM9.75 5C9.75 6.71875 7.46484 9.74609 6.44922 11.0156C6.21484 11.3086 5.76562 11.3086 5.53125 11.0156C4.51562 9.74609 2.25 6.71875 2.25 5C2.25 2.92969 3.91016 1.25 6 1.25C8.07031 1.25 9.75 2.92969 9.75 5ZM6 2.1875C4.4375 2.1875 3.1875 3.45703 3.1875 5C3.1875 5.25391 3.26562 5.625 3.48047 6.13281C3.67578 6.60156 3.96875 7.14844 4.30078 7.69531C4.86719 8.59375 5.51172 9.45312 6 10.0781C6.46875 9.45312 7.11328 8.59375 7.67969 7.69531C8.01172 7.14844 8.30469 6.60156 8.5 6.13281C8.71484 5.625 8.8125 5.25391 8.8125 5C8.8125 3.45703 7.54297 2.1875 6 2.1875Z" fill="currentColor"/>
</svg>
