<svg width="16" height="16" viewBox="0 0 16 16" fill="none" xmlns="http://www.w3.org/2000/svg">
<path d="M10.1875 6C10.1875 7.23047 9.20312 8.1875 8 8.1875C6.76953 8.1875 5.8125 7.23047 5.8125 6C5.8125 4.79688 6.76953 3.8125 8 3.8125C9.20312 3.8125 10.1875 4.79688 10.1875 6ZM8 5.125C7.50781 5.125 7.125 5.53516 7.125 6C7.125 6.49219 7.50781 6.875 8 6.875C8.46484 6.875 8.875 6.49219 8.875 6C8.875 5.53516 8.46484 5.125 8 5.125ZM13.25 6C13.25 8.40625 10.0508 12.6445 8.62891 14.4219C8.30078 14.832 7.67188 14.832 7.34375 14.4219C5.92188 12.6445 2.75 8.40625 2.75 6C2.75 3.10156 5.07422 0.75 8 0.75C10.8984 0.75 13.25 3.10156 13.25 6ZM8 2.0625C5.8125 2.0625 4.0625 3.83984 4.0625 6C4.0625 6.35547 4.17188 6.875 4.47266 7.58594C4.74609 8.24219 5.15625 9.00781 5.62109 9.77344C6.41406 11.0312 7.31641 12.2344 8 13.1094C8.65625 12.2344 9.55859 11.0312 10.3516 9.77344C10.8164 9.00781 11.2266 8.24219 11.5 7.58594C11.8008 6.875 11.9375 6.35547 11.9375 6C11.9375 3.83984 10.1602 2.0625 8 2.0625Z" fill="currentColor"/>
</svg>
