<svg width="12" height="12" viewBox="0 0 12 12" fill="none" xmlns="http://www.w3.org/2000/svg">
<path d="M3.5 5V3.75C3.5 2.38281 4.61328 1.25 6 1.25C7.36719 1.25 8.5 2.38281 8.5 3.75V5H9.125C9.80859 5 10.375 5.56641 10.375 6.25V10C10.375 10.7031 9.80859 11.25 9.125 11.25H2.875C2.17188 11.25 1.625 10.7031 1.625 10V6.25C1.625 5.56641 2.17188 5 2.875 5H3.5ZM4.4375 5H7.5625V3.75C7.5625 2.89062 6.85938 2.1875 6 2.1875C5.12109 2.1875 4.4375 2.89062 4.4375 3.75V5ZM2.5625 10C2.5625 10.1758 2.69922 10.3125 2.875 10.3125H9.125C9.28125 10.3125 9.4375 10.1758 9.4375 10V6.25C9.4375 6.09375 9.28125 5.9375 9.125 5.9375H2.875C2.69922 5.9375 2.5625 6.09375 2.5625 6.25V10Z" fill="currentColor"/>
</svg>
