<svg width="16" height="16" viewBox="0 0 16 16" fill="none" xmlns="http://www.w3.org/2000/svg">
<path d="M4.5 6V4.25C4.5 2.33594 6.05859 0.75 8 0.75C9.91406 0.75 11.5 2.33594 11.5 4.25V6H12.375C13.332 6 14.125 6.79297 14.125 7.75V13C14.125 13.9844 13.332 14.75 12.375 14.75H3.625C2.64062 14.75 1.875 13.9844 1.875 13V7.75C1.875 6.79297 2.64062 6 3.625 6H4.5ZM5.8125 6H10.1875V4.25C10.1875 3.04688 9.20312 2.0625 8 2.0625C6.76953 2.0625 5.8125 3.04688 5.8125 4.25V6ZM3.1875 13C3.1875 13.2461 3.37891 13.4375 3.625 13.4375H12.375C12.5938 13.4375 12.8125 13.2461 12.8125 13V7.75C12.8125 7.53125 12.5938 7.3125 12.375 7.3125H3.625C3.37891 7.3125 3.1875 7.53125 3.1875 7.75V13Z" fill="currentColor"/>
</svg>
