<svg width="12" height="12" viewBox="0 0 12 12" fill="none" xmlns="http://www.w3.org/2000/svg">
<path d="M4.94531 2.08984L5.21875 1.34766C5.23828 1.28906 5.29688 1.25 5.375 1.25C5.43359 1.25 5.49219 1.28906 5.51172 1.34766L5.78516 2.08984L6.52734 2.36328C6.58594 2.38281 6.625 2.44141 6.625 2.5C6.625 2.57812 6.58594 2.63672 6.52734 2.65625L5.78516 2.92969L5.51172 3.65234C5.49219 3.71094 5.43359 3.75 5.375 3.75C5.29688 3.75 5.23828 3.71094 5.21875 3.65234L4.94531 2.92969L4.22266 2.65625C4.16406 2.63672 4.125 2.57812 4.125 2.5C4.125 2.44141 4.16406 2.38281 4.22266 2.36328L4.94531 2.08984ZM9.37891 2.1875L7.23047 4.33594L7.91406 5.01953L10.0625 2.87109L9.37891 2.1875ZM1.9375 9.64844L2.60156 10.3125L7.25 5.68359L6.56641 5L1.9375 9.64844ZM8.71484 1.54297C9.08594 1.17188 9.67188 1.17188 10.043 1.54297L10.707 2.20703C11.0781 2.57812 11.0781 3.16406 10.707 3.53516L3.26562 10.9766C2.89453 11.3477 2.30859 11.3477 1.9375 10.9766L1.27344 10.3125C0.902344 9.94141 0.902344 9.35547 1.27344 8.98438L8.71484 1.54297ZM0.511719 3.55469L1.625 3.125L2.03516 2.03125C2.05469 1.93359 2.15234 1.875 2.25 1.875C2.32812 1.875 2.42578 1.93359 2.44531 2.03125L2.875 3.125L3.96875 3.55469C4.06641 3.57422 4.125 3.67188 4.125 3.75C4.125 3.84766 4.06641 3.94531 3.96875 3.96484L2.875 4.375L2.44531 5.48828C2.42578 5.56641 2.32812 5.625 2.25 5.625C2.15234 5.625 2.05469 5.56641 2.03516 5.48828L1.625 4.375L0.511719 3.96484C0.433594 3.94531 0.375 3.84766 0.375 3.75C0.375 3.67188 0.433594 3.57422 0.511719 3.55469ZM7.38672 8.55469L8.5 8.125L8.91016 7.03125C8.92969 6.93359 9.02734 6.875 9.125 6.875C9.20312 6.875 9.30078 6.93359 9.32031 7.03125L9.75 8.125L10.8438 8.55469C10.9414 8.57422 11 8.67188 11 8.75C11 8.84766 10.9414 8.94531 10.8438 8.96484L9.75 9.375L9.32031 10.4883C9.30078 10.5664 9.20312 10.625 9.125 10.625C9.02734 10.625 8.92969 10.5664 8.91016 10.4883L8.5 9.375L7.38672 8.96484C7.30859 8.94531 7.25 8.84766 7.25 8.75C7.25 8.67188 7.30859 8.57422 7.38672 8.55469Z" fill="currentColor"/>
</svg>
