<svg width="16" height="16" viewBox="0 0 16 16" fill="none" xmlns="http://www.w3.org/2000/svg">
<path d="M14.7812 13.6289C15.0547 13.9023 15.0547 14.3125 14.7812 14.5586C14.6719 14.6953 14.5078 14.75 14.3438 14.75C14.1523 14.75 13.9883 14.6953 13.8516 14.5586L10.1875 10.8945C9.20312 11.6875 7.97266 12.125 6.66016 12.125C3.54297 12.125 1 9.58203 1 6.4375C1 3.32031 3.51562 0.75 6.66016 0.75C9.77734 0.75 12.3477 3.32031 12.3477 6.4375C12.3477 7.77734 11.9102 9.00781 11.1172 9.96484L14.7812 13.6289ZM2.3125 6.4375C2.3125 8.87109 4.25391 10.8125 6.6875 10.8125C9.09375 10.8125 11.0625 8.87109 11.0625 6.4375C11.0625 4.03125 9.09375 2.0625 6.6875 2.0625C4.25391 2.0625 2.3125 4.03125 2.3125 6.4375Z" fill="currentColor"/>
</svg>
