<svg width="12" height="12" viewBox="0 0 12 12" fill="none" xmlns="http://www.w3.org/2000/svg">
<path d="M10.8438 10.4492C11.0391 10.6445 11.0391 10.9375 10.8438 11.1133C10.7656 11.2109 10.6484 11.25 10.5312 11.25C10.3945 11.25 10.2773 11.2109 10.1797 11.1133L7.5625 8.49609C6.85938 9.0625 5.98047 9.375 5.04297 9.375C2.81641 9.375 1 7.55859 1 5.3125C1 3.08594 2.79688 1.25 5.04297 1.25C7.26953 1.25 9.10547 3.08594 9.10547 5.3125C9.10547 6.26953 8.79297 7.14844 8.22656 7.83203L10.8438 10.4492ZM1.9375 5.3125C1.9375 7.05078 3.32422 8.4375 5.0625 8.4375C6.78125 8.4375 8.1875 7.05078 8.1875 5.3125C8.1875 3.59375 6.78125 2.1875 5.0625 2.1875C3.32422 2.1875 1.9375 3.59375 1.9375 5.3125Z" fill="currentColor"/>
</svg>
