<svg width="16" height="16" viewBox="0 0 16 16" fill="none" xmlns="http://www.w3.org/2000/svg">
<path d="M15.5742 1.76172C15.7656 1.87109 15.875 2.08984 15.875 2.28125V11.4688C15.875 11.7422 15.6836 11.9883 15.4375 12.0977L10.8438 13.8477C10.707 13.9023 10.543 13.9023 10.4062 13.8477L5.375 12.1797L1 13.8477C0.808594 13.9297 0.5625 13.9023 0.398438 13.7656C0.207031 13.6562 0.125 13.4375 0.125 13.2188V4.03125C0.125 3.75781 0.289062 3.53906 0.535156 3.42969L5.12891 1.67969C5.26562 1.625 5.42969 1.625 5.56641 1.67969L10.5977 3.34766L14.9727 1.67969C15.1641 1.59766 15.4102 1.625 15.5742 1.76172ZM1.4375 12.2891L4.71875 11.0312V3.23828L1.4375 4.49609V12.2891ZM9.96875 4.52344L6.03125 3.21094V11.0039L9.96875 12.3164V4.52344ZM11.2812 12.2891L14.5625 11.0312V3.23828L11.2812 4.49609V12.2891Z" fill="currentColor"/>
</svg>
