<svg width="12" height="12" viewBox="0 0 12 12" fill="none" xmlns="http://www.w3.org/2000/svg">
<path d="M11.4102 1.97266C11.5469 2.05078 11.625 2.20703 11.625 2.34375V8.90625C11.625 9.10156 11.4883 9.27734 11.3125 9.35547L8.03125 10.6055C7.93359 10.6445 7.81641 10.6445 7.71875 10.6055L4.125 9.41406L1 10.6055C0.863281 10.6641 0.6875 10.6445 0.570312 10.5469C0.433594 10.4688 0.375 10.3125 0.375 10.1562V3.59375C0.375 3.39844 0.492188 3.24219 0.667969 3.16406L3.94922 1.91406C4.04688 1.875 4.16406 1.875 4.26172 1.91406L7.85547 3.10547L10.9805 1.91406C11.1172 1.85547 11.293 1.875 11.4102 1.97266ZM1.3125 9.49219L3.65625 8.59375V3.02734L1.3125 3.92578V9.49219ZM7.40625 3.94531L4.59375 3.00781V8.57422L7.40625 9.51172V3.94531ZM8.34375 9.49219L10.6875 8.59375V3.02734L8.34375 3.92578V9.49219Z" fill="currentColor"/>
</svg>
