<svg width="12" height="12" viewBox="0 0 12 12" fill="none" xmlns="http://www.w3.org/2000/svg">
<path d="M6 7.1875C7.25 7.1875 8.32422 6.91406 9.06641 6.48438C9.82812 6.05469 10.0625 5.60547 10.0625 5.3125C10.0625 5.03906 9.82812 4.58984 9.06641 4.14062C8.32422 3.73047 7.25 3.4375 6 3.4375C4.75 3.4375 3.65625 3.73047 2.91406 4.14062C2.15234 4.58984 1.9375 5.03906 1.9375 5.3125C1.9375 5.60547 2.15234 6.05469 2.91406 6.48438C3.65625 6.91406 4.75 7.1875 6 7.1875ZM1 5.3125C1 3.76953 3.22656 2.5 6 2.5C8.75391 2.5 11 3.76953 11 5.3125V6.25V7.5C11 8.88672 8.75391 10 6 10C3.22656 10 1 8.88672 1 7.5V6.25V5.3125ZM6 8.125C5.72656 8.125 5.47266 8.125 5.21875 8.10547V9.04297C5.45312 9.0625 5.72656 9.0625 6 9.0625C6.25391 9.0625 6.52734 9.0625 6.78125 9.04297V8.10547C6.52734 8.125 6.25391 8.125 6 8.125ZM3.34375 7.69531V8.63281C3.69531 8.76953 4.125 8.88672 4.59375 8.96484V8.02734C4.14453 7.94922 3.71484 7.83203 3.34375 7.69531ZM2.71875 7.44141C2.42578 7.30469 2.15234 7.12891 1.9375 6.95312V7.5C1.9375 7.63672 2.05469 7.98828 2.71875 8.35938V7.44141ZM7.40625 8.02734V8.96484C7.85547 8.88672 8.28516 8.76953 8.65625 8.63281V7.71484C8.26562 7.85156 7.83594 7.94922 7.40625 8.02734ZM10.0625 7.5V6.95312C9.82812 7.14844 9.57422 7.30469 9.28125 7.44141V8.35938C9.92578 7.98828 10.0625 7.63672 10.0625 7.51953V7.5Z" fill="currentColor"/>
</svg>
