<svg width="16" height="16" viewBox="0 0 16 16" fill="none" xmlns="http://www.w3.org/2000/svg">
<path d="M8 9.0625C9.75 9.0625 11.2539 8.67969 12.293 8.07812C13.3594 7.47656 13.6875 6.84766 13.6875 6.4375C13.6875 6.05469 13.3594 5.42578 12.293 4.79688C11.2539 4.22266 9.75 3.8125 8 3.8125C6.25 3.8125 4.71875 4.22266 3.67969 4.79688C2.61328 5.42578 2.3125 6.05469 2.3125 6.4375C2.3125 6.84766 2.61328 7.47656 3.67969 8.07812C4.71875 8.67969 6.25 9.0625 8 9.0625ZM1 6.4375C1 4.27734 4.11719 2.5 8 2.5C11.8555 2.5 15 4.27734 15 6.4375V7.75V9.5C15 11.4414 11.8555 13 8 13C4.11719 13 1 11.4414 1 9.5V7.75V6.4375ZM8 10.375C7.61719 10.375 7.26172 10.375 6.90625 10.3477V11.6602C7.23438 11.6875 7.61719 11.6875 8 11.6875C8.35547 11.6875 8.73828 11.6875 9.09375 11.6602V10.3477C8.73828 10.375 8.35547 10.375 8 10.375ZM4.28125 9.77344V11.0859C4.77344 11.2773 5.375 11.4414 6.03125 11.5508V10.2383C5.40234 10.1289 4.80078 9.96484 4.28125 9.77344ZM3.40625 9.41797C2.99609 9.22656 2.61328 8.98047 2.3125 8.73438V9.5C2.3125 9.69141 2.47656 10.1836 3.40625 10.7031V9.41797ZM9.96875 10.2383V11.5508C10.5977 11.4414 11.1992 11.2773 11.7188 11.0859V9.80078C11.1719 9.99219 10.5703 10.1289 9.96875 10.2383ZM13.6875 9.5V8.73438C13.3594 9.00781 13.0039 9.22656 12.5938 9.41797V10.7031C13.4961 10.1836 13.6875 9.69141 13.6875 9.52734V9.5Z" fill="currentColor"/>
</svg>
