<svg width="12" height="12" viewBox="0 0 12 12" fill="none" xmlns="http://www.w3.org/2000/svg">
<path d="M1.70312 8.30078C1.78125 8.02734 1.9375 7.77344 2.13281 7.57812L8.07031 1.64062C8.55859 1.15234 9.35938 1.15234 9.84766 1.64062L10.6094 2.40234C10.668 2.46094 10.7266 2.53906 10.7656 2.59766C11.0977 3.08594 11.0391 3.75 10.6094 4.17969L4.67188 10.1172C4.65234 10.1367 4.61328 10.1562 4.59375 10.1953C4.39844 10.3516 4.18359 10.4688 3.94922 10.5469L2.42578 10.9961L1.58594 11.25C1.42969 11.2891 1.25391 11.25 1.13672 11.1133C1 10.9961 0.960938 10.8203 1.01953 10.6641L1.25391 9.82422L1.70312 8.30078ZM2.60156 8.57422L2.46484 9.02344L2.15234 10.0977L3.22656 9.78516L3.67578 9.64844C3.8125 9.60938 3.91016 9.55078 4.00781 9.45312L8.48047 4.98047L7.26953 3.76953L2.79688 8.24219C2.77734 8.24219 2.77734 8.26172 2.75781 8.28125C2.67969 8.35938 2.64062 8.45703 2.60156 8.57422Z" fill="currentColor"/>
</svg>
