<svg width="16" height="16" viewBox="0 0 16 16" fill="none" xmlns="http://www.w3.org/2000/svg">
<path d="M1 1.40625C1 1.05078 1.27344 0.75 1.65625 0.75C2.01172 0.75 2.3125 1.05078 2.3125 1.40625C2.3125 1.78906 2.01172 2.0625 1.65625 2.0625C1.27344 2.0625 1 1.78906 1 1.40625ZM1.65625 3.59375C2.01172 3.59375 2.3125 3.89453 2.3125 4.25C2.3125 4.63281 2.01172 4.90625 1.65625 4.90625C1.27344 4.90625 1 4.63281 1 4.25C1 3.89453 1.27344 3.59375 1.65625 3.59375ZM1.65625 6.4375C2.01172 6.4375 2.3125 6.73828 2.3125 7.09375C2.3125 7.47656 2.01172 7.75 1.65625 7.75C1.27344 7.75 1 7.47656 1 7.09375C1 6.73828 1.27344 6.4375 1.65625 6.4375ZM3.40625 2.0625C3.76172 2.0625 4.0625 2.36328 4.0625 2.71875C4.0625 3.10156 3.76172 3.375 3.40625 3.375C3.02344 3.375 2.75 3.10156 2.75 2.71875C2.75 2.36328 3.02344 2.0625 3.40625 2.0625ZM2.75 5.78125C2.75 5.42578 3.02344 5.125 3.40625 5.125C3.76172 5.125 4.0625 5.42578 4.0625 5.78125C4.0625 6.16406 3.76172 6.4375 3.40625 6.4375C3.02344 6.4375 2.75 6.16406 2.75 5.78125ZM5.15625 3.59375C5.51172 3.59375 5.8125 3.89453 5.8125 4.25C5.8125 4.63281 5.51172 4.90625 5.15625 4.90625C4.77344 4.90625 4.5 4.63281 4.5 4.25C4.5 3.89453 4.77344 3.59375 5.15625 3.59375ZM15 7.09375C15 7.47656 14.6992 7.75 14.3438 7.75C13.9609 7.75 13.6875 7.47656 13.6875 7.09375C13.6875 6.73828 13.9609 6.4375 14.3438 6.4375C14.6992 6.4375 15 6.73828 15 7.09375ZM14.3438 3.59375C14.6992 3.59375 15 3.89453 15 4.25C15 4.63281 14.6992 4.90625 14.3438 4.90625C13.9609 4.90625 13.6875 4.63281 13.6875 4.25C13.6875 3.89453 13.9609 3.59375 14.3438 3.59375ZM15 1.40625C15 1.78906 14.6992 2.0625 14.3438 2.0625C13.9609 2.0625 13.6875 1.78906 13.6875 1.40625C13.6875 1.05078 13.9609 0.75 14.3438 0.75C14.6992 0.75 15 1.05078 15 1.40625ZM12.5938 2.0625C12.9492 2.0625 13.25 2.36328 13.25 2.71875C13.25 3.10156 12.9492 3.375 12.5938 3.375C12.2109 3.375 11.9375 3.10156 11.9375 2.71875C11.9375 2.36328 12.2109 2.0625 12.5938 2.0625ZM13.25 5.78125C13.25 6.16406 12.9492 6.4375 12.5938 6.4375C12.2109 6.4375 11.9375 6.16406 11.9375 5.78125C11.9375 5.42578 12.2109 5.125 12.5938 5.125C12.9492 5.125 13.25 5.42578 13.25 5.78125ZM10.8438 3.59375C11.1992 3.59375 11.5 3.89453 11.5 4.25C11.5 4.63281 11.1992 4.90625 10.8438 4.90625C10.4609 4.90625 10.1875 4.63281 10.1875 4.25C10.1875 3.89453 10.4609 3.59375 10.8438 3.59375ZM3.65234 8.16016C3.76172 7.91406 4.00781 7.75 4.28125 7.75H7.34375V3.15625C7.34375 2.80078 7.61719 2.5 8 2.5C8.35547 2.5 8.65625 2.80078 8.65625 3.15625V7.75H11.7188C11.9648 7.75 12.2109 7.91406 12.3203 8.16016C12.4023 8.40625 12.3477 8.70703 12.1836 8.87109L9.75 11.3047V13.6836C9.75 14.2852 9.25781 14.7773 8.65625 14.7773H7.34375C6.71484 14.7773 6.25 14.2852 6.25 13.6836V11.3047L3.81641 8.87109C3.625 8.70703 3.57031 8.40625 3.65234 8.16016ZM8 9.0625H5.83984L7.34375 10.5664C7.48047 10.7031 7.53516 10.8672 7.53516 11.0312V13.4375H8.41016V11.0312C8.41016 10.8672 8.49219 10.7031 8.60156 10.5664L10.1055 9.0625H8Z" fill="currentColor"/>
</svg>
