<svg width="12" height="12" viewBox="0 0 12 12" fill="none" xmlns="http://www.w3.org/2000/svg">
<path d="M1 1.71875C1 1.46484 1.19531 1.25 1.46875 1.25C1.72266 1.25 1.9375 1.46484 1.9375 1.71875C1.9375 1.99219 1.72266 2.1875 1.46875 2.1875C1.19531 2.1875 1 1.99219 1 1.71875ZM1.46875 3.28125C1.72266 3.28125 1.9375 3.49609 1.9375 3.75C1.9375 4.02344 1.72266 4.21875 1.46875 4.21875C1.19531 4.21875 1 4.02344 1 3.75C1 3.49609 1.19531 3.28125 1.46875 3.28125ZM1.46875 5.3125C1.72266 5.3125 1.9375 5.52734 1.9375 5.78125C1.9375 6.05469 1.72266 6.25 1.46875 6.25C1.19531 6.25 1 6.05469 1 5.78125C1 5.52734 1.19531 5.3125 1.46875 5.3125ZM2.71875 2.1875C2.97266 2.1875 3.1875 2.40234 3.1875 2.65625C3.1875 2.92969 2.97266 3.125 2.71875 3.125C2.44531 3.125 2.25 2.92969 2.25 2.65625C2.25 2.40234 2.44531 2.1875 2.71875 2.1875ZM2.25 4.84375C2.25 4.58984 2.44531 4.375 2.71875 4.375C2.97266 4.375 3.1875 4.58984 3.1875 4.84375C3.1875 5.11719 2.97266 5.3125 2.71875 5.3125C2.44531 5.3125 2.25 5.11719 2.25 4.84375ZM3.96875 3.28125C4.22266 3.28125 4.4375 3.49609 4.4375 3.75C4.4375 4.02344 4.22266 4.21875 3.96875 4.21875C3.69531 4.21875 3.5 4.02344 3.5 3.75C3.5 3.49609 3.69531 3.28125 3.96875 3.28125ZM11 5.78125C11 6.05469 10.7852 6.25 10.5312 6.25C10.2578 6.25 10.0625 6.05469 10.0625 5.78125C10.0625 5.52734 10.2578 5.3125 10.5312 5.3125C10.7852 5.3125 11 5.52734 11 5.78125ZM10.5312 3.28125C10.7852 3.28125 11 3.49609 11 3.75C11 4.02344 10.7852 4.21875 10.5312 4.21875C10.2578 4.21875 10.0625 4.02344 10.0625 3.75C10.0625 3.49609 10.2578 3.28125 10.5312 3.28125ZM11 1.71875C11 1.99219 10.7852 2.1875 10.5312 2.1875C10.2578 2.1875 10.0625 1.99219 10.0625 1.71875C10.0625 1.46484 10.2578 1.25 10.5312 1.25C10.7852 1.25 11 1.46484 11 1.71875ZM9.28125 2.1875C9.53516 2.1875 9.75 2.40234 9.75 2.65625C9.75 2.92969 9.53516 3.125 9.28125 3.125C9.00781 3.125 8.8125 2.92969 8.8125 2.65625C8.8125 2.40234 9.00781 2.1875 9.28125 2.1875ZM9.75 4.84375C9.75 5.11719 9.53516 5.3125 9.28125 5.3125C9.00781 5.3125 8.8125 5.11719 8.8125 4.84375C8.8125 4.58984 9.00781 4.375 9.28125 4.375C9.53516 4.375 9.75 4.58984 9.75 4.84375ZM8.03125 3.28125C8.28516 3.28125 8.5 3.49609 8.5 3.75C8.5 4.02344 8.28516 4.21875 8.03125 4.21875C7.75781 4.21875 7.5625 4.02344 7.5625 3.75C7.5625 3.49609 7.75781 3.28125 8.03125 3.28125ZM2.89453 6.54297C2.97266 6.36719 3.14844 6.25 3.34375 6.25H5.53125V2.96875C5.53125 2.71484 5.72656 2.5 6 2.5C6.25391 2.5 6.46875 2.71484 6.46875 2.96875V6.25H8.65625C8.83203 6.25 9.00781 6.36719 9.08594 6.54297C9.14453 6.71875 9.10547 6.93359 8.98828 7.05078L7.25 8.78906V10.4883C7.25 10.918 6.89844 11.2695 6.46875 11.2695H5.53125C5.08203 11.2695 4.75 10.918 4.75 10.4883V8.78906L3.01172 7.05078C2.875 6.93359 2.83594 6.71875 2.89453 6.54297ZM6 7.1875H4.45703L5.53125 8.26172C5.62891 8.35938 5.66797 8.47656 5.66797 8.59375V10.3125H6.29297V8.59375C6.29297 8.47656 6.35156 8.35938 6.42969 8.26172L7.50391 7.1875H6Z" fill="currentColor"/>
</svg>
