<svg width="16" height="16" viewBox="0 0 16 16" fill="none" xmlns="http://www.w3.org/2000/svg">
<path d="M13.6875 7.75C13.6875 8.13281 13.3867 8.40625 13.0312 8.40625H8.65625V12.7812C8.65625 13.1641 8.35547 13.4648 8 13.4648C7.61719 13.4648 7.34375 13.1641 7.34375 12.7812V8.40625H2.96875C2.58594 8.40625 2.3125 8.13281 2.3125 7.77734C2.3125 7.39453 2.58594 7.09375 2.96875 7.09375H7.34375V2.71875C7.34375 2.36328 7.61719 2.08984 8 2.08984C8.35547 2.08984 8.65625 2.36328 8.65625 2.71875V7.09375H13.0312C13.3867 7.09375 13.6875 7.39453 13.6875 7.75Z" fill="currentColor"/>
</svg>
