<svg width="12" height="12" viewBox="0 0 12 12" fill="none" xmlns="http://www.w3.org/2000/svg">
<path d="M10.0625 6.25C10.0625 6.52344 9.84766 6.71875 9.59375 6.71875H6.46875V9.84375C6.46875 10.1172 6.25391 10.332 6 10.332C5.72656 10.332 5.53125 10.1172 5.53125 9.84375V6.71875H2.40625C2.13281 6.71875 1.9375 6.52344 1.9375 6.26953C1.9375 5.99609 2.13281 5.78125 2.40625 5.78125H5.53125V2.65625C5.53125 2.40234 5.72656 2.20703 6 2.20703C6.25391 2.20703 6.46875 2.40234 6.46875 2.65625V5.78125H9.59375C9.84766 5.78125 10.0625 5.99609 10.0625 6.25Z" fill="currentColor"/>
</svg>
