<svg width="12" height="12" viewBox="0 0 12 12" fill="none" xmlns="http://www.w3.org/2000/svg">
<path d="M6.46875 6.40625C6.46875 6.67969 6.25391 6.875 6 6.875C5.72656 6.875 5.53125 6.67969 5.53125 6.40625V1.71875C5.53125 1.46484 5.72656 1.25 6 1.25C6.25391 1.25 6.46875 1.46484 6.46875 1.71875V6.40625ZM2.09375 6.36719C2.09375 8.4375 3.75391 10.1172 5.84375 10.1172C7.91406 10.1172 9.59375 8.4375 9.59375 6.36719C9.59375 5.13672 8.98828 4.04297 8.05078 3.35938C7.85547 3.20312 7.79688 2.91016 7.95312 2.69531C8.10938 2.5 8.40234 2.44141 8.61719 2.59766C9.76953 3.45703 10.5312 4.82422 10.5312 6.36719C10.5312 8.96484 8.42188 11.0547 5.84375 11.0547C3.24609 11.0547 1.15625 8.96484 1.15625 6.36719C1.15625 4.82422 1.89844 3.45703 3.05078 2.59766C3.26562 2.44141 3.55859 2.5 3.71484 2.69531C3.87109 2.91016 3.8125 3.20312 3.61719 3.35938C2.67969 4.04297 2.07422 5.13672 2.07422 6.36719H2.09375Z" fill="currentColor"/>
</svg>
