<svg width="16" height="16" viewBox="0 0 16 16" fill="none" xmlns="http://www.w3.org/2000/svg">
<path d="M8.65625 7.96875C8.65625 8.35156 8.35547 8.625 8 8.625C7.61719 8.625 7.34375 8.35156 7.34375 7.96875V1.40625C7.34375 1.05078 7.61719 0.75 8 0.75C8.35547 0.75 8.65625 1.05078 8.65625 1.40625V7.96875ZM2.53125 7.91406C2.53125 10.8125 4.85547 13.1641 7.78125 13.1641C10.6797 13.1641 13.0312 10.8125 13.0312 7.91406C13.0312 6.19141 12.1836 4.66016 10.8711 3.70312C10.5977 3.48438 10.5156 3.07422 10.7344 2.77344C10.9531 2.5 11.3633 2.41797 11.6641 2.63672C13.2773 3.83984 14.3438 5.75391 14.3438 7.91406C14.3438 11.5508 11.3906 14.4766 7.78125 14.4766C4.14453 14.4766 1.21875 11.5508 1.21875 7.91406C1.21875 5.75391 2.25781 3.83984 3.87109 2.63672C4.17188 2.41797 4.58203 2.5 4.80078 2.77344C5.01953 3.07422 4.9375 3.48438 4.66406 3.70312C3.35156 4.66016 2.50391 6.19141 2.50391 7.91406H2.53125Z" fill="currentColor"/>
</svg>
