<svg width="16" height="16" viewBox="0 0 16 16" fill="none" xmlns="http://www.w3.org/2000/svg">
<path d="M7.5625 12.125C8.02734 12.125 8.4375 12.5352 8.4375 13C8.4375 13.4922 8.02734 13.9023 7.5625 13.9023C7.07031 13.9023 6.6875 13.4922 6.6875 13C6.6875 12.5352 7.07031 12.125 7.5625 12.125ZM9.39453 1.625C11.0352 1.625 12.375 2.96484 12.375 4.60547C12.375 5.72656 11.7461 6.73828 10.7617 7.25781L8.79297 8.29688C8.4375 8.48828 8.21875 8.84375 8.21875 9.25391V9.71875C8.21875 10.1016 7.91797 10.4023 7.5625 10.4023C7.17969 10.4023 6.90625 10.1016 6.90625 9.71875V9.25391C6.90625 8.35156 7.37109 7.53125 8.19141 7.12109L10.1602 6.08203C10.707 5.80859 11.0625 5.23438 11.0625 4.60547C11.0625 3.70312 10.2969 2.9375 9.39453 2.9375H6.46875C5.62109 2.9375 4.9375 3.64844 4.9375 4.46875V4.90625C4.9375 5.28906 4.63672 5.5625 4.28125 5.5625C3.89844 5.5625 3.625 5.28906 3.625 4.90625V4.46875C3.625 2.91016 4.88281 1.625 6.46875 1.625H9.39453Z" fill="currentColor"/>
</svg>
