<svg width="12" height="12" viewBox="0 0 12 12" fill="none" xmlns="http://www.w3.org/2000/svg">
<path d="M5.6875 9.375C6.01953 9.375 6.3125 9.66797 6.3125 10C6.3125 10.3516 6.01953 10.6445 5.6875 10.6445C5.33594 10.6445 5.0625 10.3516 5.0625 10C5.0625 9.66797 5.33594 9.375 5.6875 9.375ZM6.99609 1.875C8.16797 1.875 9.125 2.83203 9.125 4.00391C9.125 4.80469 8.67578 5.52734 7.97266 5.89844L6.56641 6.64062C6.3125 6.77734 6.15625 7.03125 6.15625 7.32422V7.65625C6.15625 7.92969 5.94141 8.14453 5.6875 8.14453C5.41406 8.14453 5.21875 7.92969 5.21875 7.65625V7.32422C5.21875 6.67969 5.55078 6.09375 6.13672 5.80078L7.54297 5.05859C7.93359 4.86328 8.1875 4.45312 8.1875 4.00391C8.1875 3.35938 7.64062 2.8125 6.99609 2.8125H4.90625C4.30078 2.8125 3.8125 3.32031 3.8125 3.90625V4.21875C3.8125 4.49219 3.59766 4.6875 3.34375 4.6875C3.07031 4.6875 2.875 4.49219 2.875 4.21875V3.90625C2.875 2.79297 3.77344 1.875 4.90625 1.875H6.99609Z" fill="currentColor"/>
</svg>
