<svg width="12" height="12" viewBox="0 0 12 12" fill="none" xmlns="http://www.w3.org/2000/svg">
<path d="M2.875 5C2.52344 5 2.25 4.72656 2.25 4.375C2.25 4.04297 2.52344 3.75 2.875 3.75C3.20703 3.75 3.5 4.04297 3.5 4.375C3.5 4.72656 3.20703 5 2.875 5ZM4.28125 4.375C4.28125 4.12109 4.47656 3.90625 4.75 3.90625H9.125C9.37891 3.90625 9.59375 4.12109 9.59375 4.375C9.59375 4.64844 9.37891 4.84375 9.125 4.84375H4.75C4.47656 4.84375 4.28125 4.64844 4.28125 4.375ZM4.28125 6.25C4.28125 5.99609 4.47656 5.78125 4.75 5.78125H9.125C9.37891 5.78125 9.59375 5.99609 9.59375 6.25C9.59375 6.52344 9.37891 6.71875 9.125 6.71875H4.75C4.47656 6.71875 4.28125 6.52344 4.28125 6.25ZM4.28125 8.125C4.28125 7.87109 4.47656 7.65625 4.75 7.65625H9.125C9.37891 7.65625 9.59375 7.87109 9.59375 8.125C9.59375 8.39844 9.37891 8.59375 9.125 8.59375H4.75C4.47656 8.59375 4.28125 8.39844 4.28125 8.125ZM2.875 5.625C3.20703 5.625 3.5 5.91797 3.5 6.25C3.5 6.60156 3.20703 6.875 2.875 6.875C2.52344 6.875 2.25 6.60156 2.25 6.25C2.25 5.91797 2.52344 5.625 2.875 5.625ZM2.875 8.75C2.52344 8.75 2.25 8.47656 2.25 8.125C2.25 7.79297 2.52344 7.5 2.875 7.5C3.20703 7.5 3.5 7.79297 3.5 8.125C3.5 8.47656 3.20703 8.75 2.875 8.75ZM0.375 3.125C0.375 2.44141 0.921875 1.875 1.625 1.875H10.375C11.0586 1.875 11.625 2.44141 11.625 3.125V9.375C11.625 10.0781 11.0586 10.625 10.375 10.625H1.625C0.921875 10.625 0.375 10.0781 0.375 9.375V3.125ZM1.3125 3.125V9.375C1.3125 9.55078 1.44922 9.6875 1.625 9.6875H10.375C10.5312 9.6875 10.6875 9.55078 10.6875 9.375V3.125C10.6875 2.96875 10.5312 2.8125 10.375 2.8125H1.625C1.44922 2.8125 1.3125 2.96875 1.3125 3.125Z" fill="currentColor"/>
</svg>
