<svg width="13" height="12" viewBox="0 0 13 12" fill="none" xmlns="http://www.w3.org/2000/svg">
<path d="M2.96875 1.25H5.19531C5.64453 1.25 6.03516 1.52344 6.21094 1.95312L7.1875 4.375H9.375V3.57422C9.375 3.10547 9.47266 2.65625 9.6875 2.24609L9.72656 2.14844C9.84375 1.91406 10.1172 1.81641 10.3516 1.93359C10.5859 2.05078 10.6836 2.32422 10.5664 2.55859L10.5078 2.65625C10.3711 2.94922 10.3125 3.26172 10.3125 3.57422V4.375H11.4062C11.9922 4.375 12.5 4.88281 12.5 5.46875V6.11328C12.5 6.54297 12.2852 6.95312 11.9531 7.22656L11.543 7.53906C11.2305 7.34375 10.8594 7.22656 10.4688 7.20703L11.3672 6.48438C11.4844 6.38672 11.5625 6.25 11.5625 6.11328V5.46875C11.5625 5.39062 11.4844 5.3125 11.4062 5.3125H6.875H6.85547H5.78125L6.07422 5.60547C6.32812 5.85938 6.32812 6.25 6.07422 6.50391L5.95703 6.60156C6.01562 6.69922 6.05469 6.79688 6.07422 6.875H6.23047C6.58203 6.875 6.875 7.16797 6.875 7.5V7.8125H8.71094C8.4375 8.08594 8.22266 8.39844 8.08594 8.75H6.07422C6.05469 8.84766 6.01562 8.94531 5.95703 9.04297L6.07422 9.14062C6.32812 9.39453 6.32812 9.78516 6.07422 10.0391L5.64453 10.4688C5.39062 10.7227 5 10.7227 4.74609 10.4688L4.64844 10.3516C4.55078 10.4102 4.45312 10.4492 4.375 10.4688V10.625C4.375 10.9766 4.08203 11.25 3.75 11.25H3.125C2.77344 11.25 2.5 10.9766 2.5 10.625V10.4688C2.40234 10.4492 2.30469 10.4102 2.20703 10.3516L2.10938 10.4688C1.85547 10.7227 1.46484 10.7227 1.21094 10.4688L0.78125 10.0391C0.527344 9.78516 0.527344 9.39453 0.78125 9.14062L0.898438 9.04297C0.839844 8.94531 0.800781 8.84766 0.78125 8.75H0.625C0.273438 8.75 0 8.47656 0 8.125V7.5C0 7.16797 0.273438 6.875 0.625 6.875H0.78125C0.800781 6.79688 0.839844 6.69922 0.898438 6.60156L0.78125 6.50391C0.527344 6.25 0.527344 5.85938 0.78125 5.60547L1.21094 5.17578C1.38672 5 1.64062 4.94141 1.875 5.01953V2.34375C1.875 1.75781 2.36328 1.25 2.96875 1.25ZM2.96875 2.1875C2.87109 2.1875 2.8125 2.26562 2.8125 2.34375V4.375H6.17188L5.33203 2.30469C5.3125 2.22656 5.25391 2.1875 5.19531 2.1875H2.96875ZM3.4375 9.375C4.29688 9.375 5 8.69141 5 7.8125C5 6.95312 4.29688 6.25 3.4375 6.25C2.55859 6.25 1.875 6.95312 1.875 7.8125C1.875 8.69141 2.55859 9.375 3.4375 9.375ZM8.59375 9.53125C8.59375 8.59375 9.35547 7.8125 10.3125 7.8125C11.25 7.8125 12.0312 8.59375 12.0312 9.53125C12.0312 10.4883 11.25 11.25 10.3125 11.25C9.35547 11.25 8.59375 10.4883 8.59375 9.53125ZM10.3125 10.3125C10.7422 10.3125 11.0938 9.98047 11.0938 9.53125C11.0938 9.10156 10.7422 8.75 10.3125 8.75C9.86328 8.75 9.53125 9.10156 9.53125 9.53125C9.53125 9.98047 9.86328 10.3125 10.3125 10.3125Z" fill="currentColor"/>
</svg>
