<svg width="12" height="12" viewBox="0 0 12 12" fill="none" xmlns="http://www.w3.org/2000/svg">
<path d="M7.09375 2.8125C6.82031 2.8125 6.625 2.61719 6.625 2.34375C6.625 2.08984 6.82031 1.875 7.09375 1.875H9.90625C10.1602 1.875 10.375 2.08984 10.375 2.34375V5.15625C10.375 5.42969 10.1602 5.625 9.90625 5.625C9.63281 5.625 9.4375 5.42969 9.4375 5.15625V3.47656L5.53125 7.36328C5.35547 7.55859 5.0625 7.55859 4.88672 7.36328C4.69141 7.1875 4.69141 6.89453 4.88672 6.69922L8.77344 2.8125H7.09375ZM1.625 3.59375C1.625 3.00781 2.11328 2.5 2.71875 2.5H4.90625C5.16016 2.5 5.375 2.71484 5.375 2.96875C5.375 3.24219 5.16016 3.4375 4.90625 3.4375H2.71875C2.62109 3.4375 2.5625 3.51562 2.5625 3.59375V9.53125C2.5625 9.62891 2.62109 9.6875 2.71875 9.6875H8.65625C8.73438 9.6875 8.8125 9.62891 8.8125 9.53125V7.34375C8.8125 7.08984 9.00781 6.875 9.28125 6.875C9.53516 6.875 9.75 7.08984 9.75 7.34375V9.53125C9.75 10.1367 9.24219 10.625 8.65625 10.625H2.71875C2.11328 10.625 1.625 10.1367 1.625 9.53125V3.59375Z" fill="currentColor"/>
</svg>
