<svg width="16" height="16" viewBox="0 0 16 16" fill="none" xmlns="http://www.w3.org/2000/svg">
<path d="M1 12.125C1 11.7695 1.27344 11.4688 1.65625 11.4688H3.26953C3.54297 10.5938 4.39062 9.9375 5.375 9.9375C6.33203 9.9375 7.17969 10.5938 7.45312 11.4688H14.3438C14.6992 11.4688 15 11.7695 15 12.125C15 12.5078 14.6992 12.7812 14.3438 12.7812H7.45312C7.17969 13.6836 6.33203 14.3125 5.375 14.3125C4.39062 14.3125 3.54297 13.6836 3.26953 12.7812H1.65625C1.27344 12.7812 1 12.5078 1 12.125ZM6.25 12.125C6.25 11.6602 5.83984 11.25 5.375 11.25C4.88281 11.25 4.5 11.6602 4.5 12.125C4.5 12.6172 4.88281 13 5.375 13C5.83984 13 6.25 12.6172 6.25 12.125ZM10.625 5.5625C11.582 5.5625 12.4297 6.21875 12.7031 7.09375H14.3438C14.6992 7.09375 15 7.39453 15 7.75C15 8.13281 14.6992 8.40625 14.3438 8.40625H12.7031C12.4297 9.30859 11.582 9.9375 10.625 9.9375C9.64062 9.9375 8.79297 9.30859 8.51953 8.40625H1.65625C1.27344 8.40625 1 8.13281 1 7.75C1 7.39453 1.27344 7.09375 1.65625 7.09375H8.51953C8.79297 6.21875 9.64062 5.5625 10.625 5.5625ZM11.5 7.75C11.5 7.28516 11.0898 6.875 10.625 6.875C10.1328 6.875 9.75 7.28516 9.75 7.75C9.75 8.24219 10.1328 8.625 10.625 8.625C11.0898 8.625 11.5 8.24219 11.5 7.75ZM14.3438 2.71875C14.6992 2.71875 15 3.01953 15 3.375C15 3.75781 14.6992 4.03125 14.3438 4.03125H8.32812C8.05469 4.93359 7.20703 5.5625 6.25 5.5625C5.26562 5.5625 4.41797 4.93359 4.14453 4.03125H1.65625C1.27344 4.03125 1 3.75781 1 3.375C1 3.01953 1.27344 2.71875 1.65625 2.71875H4.14453C4.41797 1.84375 5.26562 1.1875 6.25 1.1875C7.20703 1.1875 8.05469 1.84375 8.32812 2.71875H14.3438ZM5.375 3.375C5.375 3.86719 5.75781 4.25 6.25 4.25C6.71484 4.25 7.125 3.86719 7.125 3.375C7.125 2.91016 6.71484 2.5 6.25 2.5C5.75781 2.5 5.375 2.91016 5.375 3.375Z" fill="currentColor"/>
</svg>
