<svg width="16" height="16" viewBox="0 0 16 16" fill="none" xmlns="http://www.w3.org/2000/svg">
<path d="M9.53125 2.9375C9.14844 2.9375 8.875 2.66406 8.875 2.28125C8.875 1.92578 9.14844 1.625 9.53125 1.625H13.4688C13.8242 1.625 14.125 1.92578 14.125 2.28125V6.21875C14.125 6.60156 13.8242 6.875 13.4688 6.875C13.0859 6.875 12.8125 6.60156 12.8125 6.21875V3.86719L7.34375 9.30859C7.09766 9.58203 6.6875 9.58203 6.44141 9.30859C6.16797 9.0625 6.16797 8.65234 6.44141 8.37891L11.8828 2.9375H9.53125ZM1.875 4.03125C1.875 3.21094 2.55859 2.5 3.40625 2.5H6.46875C6.82422 2.5 7.125 2.80078 7.125 3.15625C7.125 3.53906 6.82422 3.8125 6.46875 3.8125H3.40625C3.26953 3.8125 3.1875 3.92188 3.1875 4.03125V12.3438C3.1875 12.4805 3.26953 12.5625 3.40625 12.5625H11.7188C11.8281 12.5625 11.9375 12.4805 11.9375 12.3438V9.28125C11.9375 8.92578 12.2109 8.625 12.5938 8.625C12.9492 8.625 13.25 8.92578 13.25 9.28125V12.3438C13.25 13.1914 12.5391 13.875 11.7188 13.875H3.40625C2.55859 13.875 1.875 13.1914 1.875 12.3438V4.03125Z" fill="currentColor"/>
</svg>
