<svg width="12" height="12" viewBox="0 0 12 12" fill="none" xmlns="http://www.w3.org/2000/svg">
<path d="M9.75 4.375C10.4336 4.375 11 4.94141 11 5.625V10C11 10.7031 10.4336 11.25 9.75 11.25H2.25C1.54688 11.25 1 10.7031 1 10V5.625C1 4.94141 1.54688 4.375 2.25 4.375H9.75ZM9.75 5.3125H2.25C2.07422 5.3125 1.9375 5.46875 1.9375 5.625V10C1.9375 10.1758 2.07422 10.3125 2.25 10.3125H9.75C9.90625 10.3125 10.0625 10.1758 10.0625 10V5.625C10.0625 5.46875 9.90625 5.3125 9.75 5.3125ZM9.59375 2.8125C9.84766 2.8125 10.0625 3.02734 10.0625 3.28125C10.0625 3.55469 9.84766 3.75 9.59375 3.75H2.40625C2.13281 3.75 1.9375 3.55469 1.9375 3.28125C1.9375 3.02734 2.13281 2.8125 2.40625 2.8125H9.59375ZM8.65625 1.25C8.91016 1.25 9.125 1.46484 9.125 1.71875C9.125 1.99219 8.91016 2.1875 8.65625 2.1875H3.34375C3.07031 2.1875 2.875 1.99219 2.875 1.71875C2.875 1.46484 3.07031 1.25 3.34375 1.25H8.65625Z" fill="currentColor"/>
</svg>
