<svg width="12" height="12" viewBox="0 0 12 12" fill="none" xmlns="http://www.w3.org/2000/svg">
<path d="M1 9.375C1 9.12109 1.19531 8.90625 1.46875 8.90625H2.62109C2.81641 8.28125 3.42188 7.8125 4.125 7.8125C4.80859 7.8125 5.41406 8.28125 5.60938 8.90625H10.5312C10.7852 8.90625 11 9.12109 11 9.375C11 9.64844 10.7852 9.84375 10.5312 9.84375H5.60938C5.41406 10.4883 4.80859 10.9375 4.125 10.9375C3.42188 10.9375 2.81641 10.4883 2.62109 9.84375H1.46875C1.19531 9.84375 1 9.64844 1 9.375ZM4.75 9.375C4.75 9.04297 4.45703 8.75 4.125 8.75C3.77344 8.75 3.5 9.04297 3.5 9.375C3.5 9.72656 3.77344 10 4.125 10C4.45703 10 4.75 9.72656 4.75 9.375ZM7.875 4.6875C8.55859 4.6875 9.16406 5.15625 9.35938 5.78125H10.5312C10.7852 5.78125 11 5.99609 11 6.25C11 6.52344 10.7852 6.71875 10.5312 6.71875H9.35938C9.16406 7.36328 8.55859 7.8125 7.875 7.8125C7.17188 7.8125 6.56641 7.36328 6.37109 6.71875H1.46875C1.19531 6.71875 1 6.52344 1 6.25C1 5.99609 1.19531 5.78125 1.46875 5.78125H6.37109C6.56641 5.15625 7.17188 4.6875 7.875 4.6875ZM8.5 6.25C8.5 5.91797 8.20703 5.625 7.875 5.625C7.52344 5.625 7.25 5.91797 7.25 6.25C7.25 6.60156 7.52344 6.875 7.875 6.875C8.20703 6.875 8.5 6.60156 8.5 6.25ZM10.5312 2.65625C10.7852 2.65625 11 2.87109 11 3.125C11 3.39844 10.7852 3.59375 10.5312 3.59375H6.23438C6.03906 4.23828 5.43359 4.6875 4.75 4.6875C4.04688 4.6875 3.44141 4.23828 3.24609 3.59375H1.46875C1.19531 3.59375 1 3.39844 1 3.125C1 2.87109 1.19531 2.65625 1.46875 2.65625H3.24609C3.44141 2.03125 4.04688 1.5625 4.75 1.5625C5.43359 1.5625 6.03906 2.03125 6.23438 2.65625H10.5312ZM4.125 3.125C4.125 3.47656 4.39844 3.75 4.75 3.75C5.08203 3.75 5.375 3.47656 5.375 3.125C5.375 2.79297 5.08203 2.5 4.75 2.5C4.39844 2.5 4.125 2.79297 4.125 3.125Z" fill="currentColor"/>
</svg>
