<svg width="16" height="16" viewBox="0 0 16 16" fill="none" xmlns="http://www.w3.org/2000/svg">
<path d="M13.25 5.125C14.207 5.125 15 5.91797 15 6.875V13C15 13.9844 14.207 14.75 13.25 14.75H2.75C1.76562 14.75 1 13.9844 1 13V6.875C1 5.91797 1.76562 5.125 2.75 5.125H13.25ZM13.25 6.4375H2.75C2.50391 6.4375 2.3125 6.65625 2.3125 6.875V13C2.3125 13.2461 2.50391 13.4375 2.75 13.4375H13.25C13.4688 13.4375 13.6875 13.2461 13.6875 13V6.875C13.6875 6.65625 13.4688 6.4375 13.25 6.4375ZM13.0312 2.9375C13.3867 2.9375 13.6875 3.23828 13.6875 3.59375C13.6875 3.97656 13.3867 4.25 13.0312 4.25H2.96875C2.58594 4.25 2.3125 3.97656 2.3125 3.59375C2.3125 3.23828 2.58594 2.9375 2.96875 2.9375H13.0312ZM11.7188 0.75C12.0742 0.75 12.375 1.05078 12.375 1.40625C12.375 1.78906 12.0742 2.0625 11.7188 2.0625H4.28125C3.89844 2.0625 3.625 1.78906 3.625 1.40625C3.625 1.05078 3.89844 0.75 4.28125 0.75H11.7188Z" fill="currentColor"/>
</svg>
