<svg width="18" height="16" viewBox="0 0 18 16" fill="none" xmlns="http://www.w3.org/2000/svg">
<path d="M4.15625 0.75H7.27344C7.90234 0.75 8.44922 1.13281 8.69531 1.73438L10.0625 5.125H13.125V4.00391C13.125 3.34766 13.2617 2.71875 13.5625 2.14453L13.6172 2.00781C13.7812 1.67969 14.1641 1.54297 14.4922 1.70703C14.8203 1.87109 14.957 2.25391 14.793 2.58203L14.7109 2.71875C14.5195 3.12891 14.4375 3.56641 14.4375 4.00391V5.125H15.9688C16.7891 5.125 17.5 5.83594 17.5 6.65625V7.55859C17.5 8.16016 17.1992 8.73438 16.7344 9.11719L16.1602 9.55469C15.7227 9.28125 15.2031 9.11719 14.6562 9.08984L15.9141 8.07812C16.0781 7.94141 16.1875 7.75 16.1875 7.55859V6.65625C16.1875 6.54688 16.0781 6.4375 15.9688 6.4375H9.625H9.59766H8.09375L8.50391 6.84766C8.85938 7.20312 8.85938 7.75 8.50391 8.10547L8.33984 8.24219C8.42188 8.37891 8.47656 8.51562 8.50391 8.625H8.72266C9.21484 8.625 9.625 9.03516 9.625 9.5V9.9375H12.1953C11.8125 10.3203 11.5117 10.7578 11.3203 11.25H8.50391C8.47656 11.3867 8.42188 11.5234 8.33984 11.6602L8.50391 11.7969C8.85938 12.1523 8.85938 12.6992 8.50391 13.0547L7.90234 13.6562C7.54688 14.0117 7 14.0117 6.64453 13.6562L6.50781 13.4922C6.37109 13.5742 6.23438 13.6289 6.125 13.6562V13.875C6.125 14.3672 5.71484 14.75 5.25 14.75H4.375C3.88281 14.75 3.5 14.3672 3.5 13.875V13.6562C3.36328 13.6289 3.22656 13.5742 3.08984 13.4922L2.95312 13.6562C2.59766 14.0117 2.05078 14.0117 1.69531 13.6562L1.09375 13.0547C0.738281 12.6992 0.738281 12.1523 1.09375 11.7969L1.25781 11.6602C1.17578 11.5234 1.12109 11.3867 1.09375 11.25H0.875C0.382812 11.25 0 10.8672 0 10.375V9.5C0 9.03516 0.382812 8.625 0.875 8.625H1.09375C1.12109 8.51562 1.17578 8.37891 1.25781 8.24219L1.09375 8.10547C0.738281 7.75 0.738281 7.20312 1.09375 6.84766L1.69531 6.24609C1.94141 6 2.29688 5.91797 2.625 6.02734V2.28125C2.625 1.46094 3.30859 0.75 4.15625 0.75ZM4.15625 2.0625C4.01953 2.0625 3.9375 2.17188 3.9375 2.28125V5.125H8.64062L7.46484 2.22656C7.4375 2.11719 7.35547 2.0625 7.27344 2.0625H4.15625ZM4.8125 12.125C6.01562 12.125 7 11.168 7 9.9375C7 8.73438 6.01562 7.75 4.8125 7.75C3.58203 7.75 2.625 8.73438 2.625 9.9375C2.625 11.168 3.58203 12.125 4.8125 12.125ZM12.0312 12.3438C12.0312 11.0312 13.0977 9.9375 14.4375 9.9375C15.75 9.9375 16.8438 11.0312 16.8438 12.3438C16.8438 13.6836 15.75 14.75 14.4375 14.75C13.0977 14.75 12.0312 13.6836 12.0312 12.3438ZM14.4375 13.4375C15.0391 13.4375 15.5312 12.9727 15.5312 12.3438C15.5312 11.7422 15.0391 11.25 14.4375 11.25C13.8086 11.25 13.3438 11.7422 13.3438 12.3438C13.3438 12.9727 13.8086 13.4375 14.4375 13.4375Z" fill="currentColor"/>
</svg>
