<svg width="16" height="16" viewBox="0 0 16 16" fill="none" xmlns="http://www.w3.org/2000/svg">
<path d="M3.625 6C3.13281 6 2.75 5.61719 2.75 5.125C2.75 4.66016 3.13281 4.25 3.625 4.25C4.08984 4.25 4.5 4.66016 4.5 5.125C4.5 5.61719 4.08984 6 3.625 6ZM5.59375 5.125C5.59375 4.76953 5.86719 4.46875 6.25 4.46875H12.375C12.7305 4.46875 13.0312 4.76953 13.0312 5.125C13.0312 5.50781 12.7305 5.78125 12.375 5.78125H6.25C5.86719 5.78125 5.59375 5.50781 5.59375 5.125ZM5.59375 7.75C5.59375 7.39453 5.86719 7.09375 6.25 7.09375H12.375C12.7305 7.09375 13.0312 7.39453 13.0312 7.75C13.0312 8.13281 12.7305 8.40625 12.375 8.40625H6.25C5.86719 8.40625 5.59375 8.13281 5.59375 7.75ZM5.59375 10.375C5.59375 10.0195 5.86719 9.71875 6.25 9.71875H12.375C12.7305 9.71875 13.0312 10.0195 13.0312 10.375C13.0312 10.7578 12.7305 11.0312 12.375 11.0312H6.25C5.86719 11.0312 5.59375 10.7578 5.59375 10.375ZM3.625 6.875C4.08984 6.875 4.5 7.28516 4.5 7.75C4.5 8.24219 4.08984 8.625 3.625 8.625C3.13281 8.625 2.75 8.24219 2.75 7.75C2.75 7.28516 3.13281 6.875 3.625 6.875ZM3.625 11.25C3.13281 11.25 2.75 10.8672 2.75 10.375C2.75 9.91016 3.13281 9.5 3.625 9.5C4.08984 9.5 4.5 9.91016 4.5 10.375C4.5 10.8672 4.08984 11.25 3.625 11.25ZM0.125 3.375C0.125 2.41797 0.890625 1.625 1.875 1.625H14.125C15.082 1.625 15.875 2.41797 15.875 3.375V12.125C15.875 13.1094 15.082 13.875 14.125 13.875H1.875C0.890625 13.875 0.125 13.1094 0.125 12.125V3.375ZM1.4375 3.375V12.125C1.4375 12.3711 1.62891 12.5625 1.875 12.5625H14.125C14.3438 12.5625 14.5625 12.3711 14.5625 12.125V3.375C14.5625 3.15625 14.3438 2.9375 14.125 2.9375H1.875C1.62891 2.9375 1.4375 3.15625 1.4375 3.375Z" fill="currentColor"/>
</svg>
