<svg width="12" height="12" viewBox="0 0 12 12" fill="none" xmlns="http://www.w3.org/2000/svg">
<path d="M6 8.75H3.5V6.25L6 8.75ZM11 10.5859V10.625C11 10.9766 10.707 11.25 10.375 11.25H2.25C1.54688 11.25 1 10.7031 1 10V1.875C1 1.54297 1.27344 1.25 1.625 1.25H1.66406C1.83984 1.25 1.99609 1.32812 2.11328 1.44531L10.8047 10.1367C10.9219 10.2539 11 10.4102 11 10.5859ZM2.25 10.3125H9.67188L8.36328 9.02344L8.08984 9.29688C7.97266 9.41406 7.75781 9.41406 7.64062 9.29688C7.52344 9.17969 7.52344 8.96484 7.64062 8.84766L7.91406 8.57422L6.80078 7.46094L6.52734 7.73438C6.41016 7.85156 6.19531 7.85156 6.07812 7.73438C5.96094 7.61719 5.96094 7.40234 6.07812 7.28516L6.35156 7.01172L5.23828 5.89844L4.96484 6.17188C4.84766 6.28906 4.63281 6.28906 4.51562 6.17188C4.39844 6.05469 4.39844 5.83984 4.51562 5.72266L4.78906 5.44922L3.67578 4.33594L3.40234 4.60938C3.28516 4.72656 3.07031 4.72656 2.95312 4.60938C2.83594 4.49219 2.83594 4.27734 2.95312 4.16016L3.22656 3.88672L1.91797 2.57812V10C1.91797 10.1758 2.07422 10.3125 2.23047 10.3125H2.25Z" fill="currentColor"/>
</svg>
