<svg width="16" height="16" viewBox="0 0 16 16" fill="none" xmlns="http://www.w3.org/2000/svg">
<path d="M8 11.25H4.5V7.75L8 11.25ZM15 13.8203V13.875C15 14.3672 14.5898 14.75 14.125 14.75H2.75C1.76562 14.75 1 13.9844 1 13V1.625C1 1.16016 1.38281 0.75 1.875 0.75H1.92969C2.17578 0.75 2.39453 0.859375 2.55859 1.02344L14.7266 13.1914C14.8906 13.3555 15 13.5742 15 13.8203ZM2.75 13.4375H13.1406L11.3086 11.6328L10.9258 12.0156C10.7617 12.1797 10.4609 12.1797 10.2969 12.0156C10.1328 11.8516 10.1328 11.5508 10.2969 11.3867L10.6797 11.0039L9.12109 9.44531L8.73828 9.82812C8.57422 9.99219 8.27344 9.99219 8.10938 9.82812C7.94531 9.66406 7.94531 9.36328 8.10938 9.19922L8.49219 8.81641L6.93359 7.25781L6.55078 7.64062C6.38672 7.80469 6.08594 7.80469 5.92188 7.64062C5.75781 7.47656 5.75781 7.17578 5.92188 7.01172L6.30469 6.62891L4.74609 5.07031L4.36328 5.45312C4.19922 5.61719 3.89844 5.61719 3.73438 5.45312C3.57031 5.28906 3.57031 4.98828 3.73438 4.82422L4.11719 4.44141L2.28516 2.60938V13C2.28516 13.2461 2.50391 13.4375 2.72266 13.4375H2.75Z" fill="currentColor"/>
</svg>
