<svg width="12" height="12" viewBox="0 0 12 12" fill="none" xmlns="http://www.w3.org/2000/svg">
<path d="M9.51562 1.875H11V2.34375C11 4.84375 9.20312 6.875 6.99609 6.875H6.46875V10.1562C6.46875 10.4297 6.21484 10.625 5.98047 10.625C5.72656 10.625 5.53125 10.4297 5.53125 10.1562V8.125H4.98438C2.77734 8.125 1 6.09375 1 3.59375V3.125H2.46484C3.8125 3.125 4.98438 3.88672 5.70703 5.03906C6.23438 3.20312 7.73828 1.875 9.51562 1.875ZM4.98438 7.1875H5.49219C5.29688 5.42969 4.00781 4.0625 2.46484 4.0625H1.95703C2.15234 5.83984 3.44141 7.1875 4.98438 7.1875ZM6.99609 5.9375C8.53906 5.9375 9.82812 4.58984 10.0234 2.8125H9.51562C7.97266 2.8125 6.68359 4.17969 6.48828 5.9375H6.99609Z" fill="currentColor"/>
</svg>
