<svg width="16" height="16" viewBox="0 0 16 16" fill="none" xmlns="http://www.w3.org/2000/svg">
<path d="M12.9219 1.625H15V2.28125C15 5.78125 12.4844 8.625 9.39453 8.625H8.65625V13.2188C8.65625 13.6016 8.30078 13.875 7.97266 13.875C7.61719 13.875 7.34375 13.6016 7.34375 13.2188V10.375H6.57812C3.48828 10.375 1 7.53125 1 4.03125V3.375H3.05078C4.9375 3.375 6.57812 4.44141 7.58984 6.05469C8.32812 3.48438 10.4336 1.625 12.9219 1.625ZM6.57812 9.0625H7.28906C7.01562 6.60156 5.21094 4.6875 3.05078 4.6875H2.33984C2.61328 7.17578 4.41797 9.0625 6.57812 9.0625ZM9.39453 7.3125C11.5547 7.3125 13.3594 5.42578 13.6328 2.9375H12.9219C10.7617 2.9375 8.95703 4.85156 8.68359 7.3125H9.39453Z" fill="currentColor"/>
</svg>
