<svg width="16" height="16" viewBox="0 0 16 16" fill="none" xmlns="http://www.w3.org/2000/svg">
<path d="M3.48828 4.87891C3.29688 5.72656 3.1875 6.62891 3.1875 7.53125V7.99609C3.1875 8.89844 3.29688 9.80078 3.48828 10.6484L3.65234 11.25H12.3203L12.4844 10.6484C12.6758 9.80078 12.7852 8.89844 12.7852 7.99609V7.53125C12.7852 6.62891 12.6758 5.72656 12.4844 4.87891L12.3203 4.25H3.65234L3.51562 4.87891H3.48828ZM12.6758 2.0625H3.29688L3.67969 2.9375H12.293L12.6758 2.0625ZM3.26953 13.4375H12.7031L12.3477 12.5625H3.625L3.26953 13.4375ZM2.50391 3.48438L1.95703 2.28125C1.90234 2.14453 1.875 2.00781 1.875 1.84375C1.875 1.24219 2.33984 0.75 2.94141 0.75H13.0312C13.6328 0.75 14.125 1.24219 14.125 1.84375C14.125 2.00781 14.0703 2.14453 14.0156 2.28125L13.4961 3.48438L13.7422 4.55078C13.9883 5.50781 14.125 6.51953 14.125 7.53125V7.99609C14.125 9.00781 13.9883 9.99219 13.7422 10.9766L13.4961 11.9336L14.043 13.2461C14.0977 13.3828 14.125 13.5195 14.125 13.6562C14.125 14.2578 13.6328 14.75 13.0039 14.75H2.96875C2.36719 14.75 1.875 14.2578 1.875 13.6562C1.875 13.5195 1.90234 13.3828 1.92969 13.2461L2.47656 11.9336L2.23047 10.9766C1.98438 9.99219 1.875 9.00781 1.875 7.99609V7.53125C1.875 6.51953 1.98438 5.53516 2.23047 4.55078L2.50391 3.48438ZM4.9375 5.125H4.99219C6.27734 5.125 7.39844 5.83594 8 6.90234C8.57422 5.83594 9.69531 5.125 11.0078 5.125H11.0625C11.2812 5.125 11.5 5.34375 11.5 5.5625C11.5 7.20312 10.2422 8.51562 8.65625 8.625V9.71875C8.65625 10.1016 8.35547 10.375 8 10.375C7.61719 10.375 7.34375 10.1016 7.34375 9.71875V8.625C5.73047 8.51562 4.5 7.20312 4.5 5.5625C4.5 5.34375 4.69141 5.125 4.9375 5.125Z" fill="currentColor"/>
</svg>
