<svg width="12" height="12" viewBox="0 0 12 12" fill="none" xmlns="http://www.w3.org/2000/svg">
<path d="M2.77734 4.19922C2.64062 4.80469 2.5625 5.44922 2.5625 6.09375V6.42578C2.5625 7.07031 2.64062 7.71484 2.77734 8.32031L2.89453 8.75H9.08594L9.20312 8.32031C9.33984 7.71484 9.41797 7.07031 9.41797 6.42578V6.09375C9.41797 5.44922 9.33984 4.80469 9.20312 4.19922L9.08594 3.75H2.89453L2.79688 4.19922H2.77734ZM9.33984 2.1875H2.64062L2.91406 2.8125H9.06641L9.33984 2.1875ZM2.62109 10.3125H9.35938L9.10547 9.6875H2.875L2.62109 10.3125ZM2.07422 3.20312L1.68359 2.34375C1.64453 2.24609 1.625 2.14844 1.625 2.03125C1.625 1.60156 1.95703 1.25 2.38672 1.25H9.59375C10.0234 1.25 10.375 1.60156 10.375 2.03125C10.375 2.14844 10.3359 2.24609 10.2969 2.34375L9.92578 3.20312L10.1016 3.96484C10.2773 4.64844 10.375 5.37109 10.375 6.09375V6.42578C10.375 7.14844 10.2773 7.85156 10.1016 8.55469L9.92578 9.23828L10.3164 10.1758C10.3555 10.2734 10.375 10.3711 10.375 10.4688C10.375 10.8984 10.0234 11.25 9.57422 11.25H2.40625C1.97656 11.25 1.625 10.8984 1.625 10.4688C1.625 10.3711 1.64453 10.2734 1.66406 10.1758L2.05469 9.23828L1.87891 8.55469C1.70312 7.85156 1.625 7.14844 1.625 6.42578V6.09375C1.625 5.37109 1.70312 4.66797 1.87891 3.96484L2.07422 3.20312ZM3.8125 4.375H3.85156C4.76953 4.375 5.57031 4.88281 6 5.64453C6.41016 4.88281 7.21094 4.375 8.14844 4.375H8.1875C8.34375 4.375 8.5 4.53125 8.5 4.6875C8.5 5.85938 7.60156 6.79688 6.46875 6.875V7.65625C6.46875 7.92969 6.25391 8.125 6 8.125C5.72656 8.125 5.53125 7.92969 5.53125 7.65625V6.875C4.37891 6.79688 3.5 5.85938 3.5 4.6875C3.5 4.53125 3.63672 4.375 3.8125 4.375Z" fill="currentColor"/>
</svg>
