<svg width="12" height="12" viewBox="0 0 12 12" fill="none" xmlns="http://www.w3.org/2000/svg">
<path d="M8.16797 6.875C9.00781 6.875 9.41797 7.89062 8.83203 8.47656L6.66406 10.6641C6.29297 11.0352 5.6875 11.0352 5.33594 10.6641L3.14844 8.47656C2.54297 7.89062 2.97266 6.875 3.8125 6.875H8.16797ZM6 10L8.1875 7.8125H3.8125L6 10ZM3.8125 5.625C2.97266 5.625 2.5625 4.62891 3.14844 4.04297L5.33594 1.85547C5.6875 1.48438 6.29297 1.48438 6.64453 1.85547L8.83203 4.02344C9.4375 4.60938 9.00781 5.625 8.16797 5.625H3.8125ZM6 2.5L3.8125 4.6875H8.16797L6 2.5Z" fill="currentColor"/>
</svg>
