<svg width="16" height="16" viewBox="0 0 16 16" fill="none" xmlns="http://www.w3.org/2000/svg">
<path d="M11.0352 8.625C12.2109 8.625 12.7852 10.0469 11.9648 10.8672L8.92969 13.9297C8.41016 14.4492 7.5625 14.4492 7.07031 13.9297L4.00781 10.8672C3.16016 10.0469 3.76172 8.625 4.9375 8.625H11.0352ZM8 13L11.0625 9.9375H4.9375L8 13ZM4.9375 6.875C3.76172 6.875 3.1875 5.48047 4.00781 4.66016L7.07031 1.59766C7.5625 1.07812 8.41016 1.07812 8.90234 1.59766L11.9648 4.63281C12.8125 5.45312 12.2109 6.875 11.0352 6.875H4.9375ZM8 2.5L4.9375 5.5625H11.0352L8 2.5Z" fill="currentColor"/>
</svg>
