<svg width="16" height="16" viewBox="0 0 16 16" fill="none" xmlns="http://www.w3.org/2000/svg">
<path d="M10.3516 4.52344C10.1602 4.93359 9.96875 5.37109 9.96875 5.83594C9.96875 6.90234 10.8164 7.75 11.8828 7.75H12.375C13.8242 7.75 15 8.92578 15 10.375V10.5938C15 11.4414 14.2891 12.125 13.4688 12.125H2.53125C1.68359 12.125 1 11.4414 1 10.5938V10.375C1 8.92578 2.14844 7.75 3.625 7.75H4.08984C5.15625 7.75 6.03125 6.90234 6.03125 5.83594C6.03125 5.37109 5.8125 4.93359 5.62109 4.52344C5.45703 4.16797 5.375 3.78516 5.375 3.375C5.375 1.92578 6.52344 0.75 8 0.75C9.44922 0.75 10.625 1.92578 10.625 3.375C10.625 3.78516 10.5156 4.16797 10.3516 4.52344ZM9.3125 3.375C9.3125 2.66406 8.71094 2.0625 8 2.0625C7.26172 2.0625 6.6875 2.66406 6.6875 3.375C6.6875 3.59375 6.71484 3.78516 6.79688 3.94922V3.97656C6.98828 4.35938 7.34375 5.04297 7.34375 5.83594C7.34375 7.64062 5.89453 9.0625 4.08984 9.0625H3.625C2.88672 9.0625 2.3125 9.66406 2.3125 10.375V10.5938C2.3125 10.7305 2.39453 10.8125 2.53125 10.8125H13.4688C13.5781 10.8125 13.6875 10.7305 13.6875 10.5938V10.375C13.6875 9.66406 13.0859 9.0625 12.375 9.0625H11.8828C10.0781 9.0625 8.65625 7.64062 8.65625 5.83594C8.65625 5.04297 8.98438 4.35938 9.17578 3.97656V3.94922C9.25781 3.78516 9.3125 3.59375 9.3125 3.375ZM1.875 13.875C1.875 13.4102 2.25781 13 2.75 13H13.25C13.7148 13 14.125 13.4102 14.125 13.875C14.125 14.3672 13.7148 14.75 13.25 14.75H2.75C2.25781 14.75 1.875 14.3672 1.875 13.875Z" fill="currentColor"/>
</svg>
