<svg width="12" height="12" viewBox="0 0 12 12" fill="none" xmlns="http://www.w3.org/2000/svg">
<path d="M7.67969 3.94531C7.54297 4.23828 7.40625 4.55078 7.40625 4.88281C7.40625 5.64453 8.01172 6.25 8.77344 6.25H9.125C10.1602 6.25 11 7.08984 11 8.125V8.28125C11 8.88672 10.4922 9.375 9.90625 9.375H2.09375C1.48828 9.375 1 8.88672 1 8.28125V8.125C1 7.08984 1.82031 6.25 2.875 6.25H3.20703C3.96875 6.25 4.59375 5.64453 4.59375 4.88281C4.59375 4.55078 4.4375 4.23828 4.30078 3.94531C4.18359 3.69141 4.125 3.41797 4.125 3.125C4.125 2.08984 4.94531 1.25 6 1.25C7.03516 1.25 7.875 2.08984 7.875 3.125C7.875 3.41797 7.79688 3.69141 7.67969 3.94531ZM6.9375 3.125C6.9375 2.61719 6.50781 2.1875 6 2.1875C5.47266 2.1875 5.0625 2.61719 5.0625 3.125C5.0625 3.28125 5.08203 3.41797 5.14062 3.53516V3.55469C5.27734 3.82812 5.53125 4.31641 5.53125 4.88281C5.53125 6.17188 4.49609 7.1875 3.20703 7.1875H2.875C2.34766 7.1875 1.9375 7.61719 1.9375 8.125V8.28125C1.9375 8.37891 1.99609 8.4375 2.09375 8.4375H9.90625C9.98438 8.4375 10.0625 8.37891 10.0625 8.28125V8.125C10.0625 7.61719 9.63281 7.1875 9.125 7.1875H8.77344C7.48438 7.1875 6.46875 6.17188 6.46875 4.88281C6.46875 4.31641 6.70312 3.82812 6.83984 3.55469V3.53516C6.89844 3.41797 6.9375 3.28125 6.9375 3.125ZM1.625 10.625C1.625 10.293 1.89844 10 2.25 10H9.75C10.082 10 10.375 10.293 10.375 10.625C10.375 10.9766 10.082 11.25 9.75 11.25H2.25C1.89844 11.25 1.625 10.9766 1.625 10.625Z" fill="currentColor"/>
</svg>
