<svg width="16" height="16" viewBox="0 0 16 16" fill="none" xmlns="http://www.w3.org/2000/svg">
<path d="M12.4622 10.1421C12.1809 10.7281 11.7869 11.253 11.3028 11.6867C10.8186 12.1204 10.2538 12.4545 9.64053 12.67C9.02726 12.8854 8.37756 12.9779 7.72853 12.9423C7.0795 12.9066 6.44384 12.7435 5.85786 12.4622C5.27188 12.1809 4.74704 11.7869 4.31331 11.3028C3.87958 10.8186 3.54546 10.2538 3.33003 9.64053C3.11459 9.02726 3.02205 8.37756 3.0577 7.72853C3.09335 7.0795 3.25649 6.44384 3.5378 5.85786C3.81911 5.27188 4.21308 4.74704 4.69723 4.31331C5.18137 3.87958 5.7462 3.54546 6.35947 3.33003C6.97274 3.11459 7.62244 3.02205 8.27147 3.0577C8.9205 3.09335 9.55616 3.25649 10.1421 3.5378C10.7281 3.81911 11.253 4.21308 11.6867 4.69723C12.1204 5.18137 12.4545 5.7462 12.67 6.35947C12.8854 6.97274 12.9779 7.62244 12.9423 8.27147C12.9066 8.9205 12.7435 9.55616 12.4622 10.1421L12.4622 10.1421Z" stroke="#0D0D0D" stroke-width="1.3" stroke-linecap="round" stroke-linejoin="round"/>
<path d="M4.63977 4.36556C3.68329 5.24988 3.11396 6.4756 3.05525 7.77692C2.99654 9.07824 3.45319 10.3502 4.32616 11.3171C5.19914 12.2839 6.41806 12.8677 7.7186 12.9417C9.01914 13.0158 10.2964 12.5742 11.2735 11.7127" stroke="#0D0D0D" stroke-width="1.3" stroke-linecap="round" stroke-linejoin="round"/>
<path d="M9.41353 8.04594C9.40749 8.23156 9.36495 8.41418 9.28834 8.58335C9.21173 8.75253 9.10255 8.90497 8.96702 9.03195C8.8315 9.15893 8.6723 9.25798 8.4985 9.32344C8.3247 9.38889 8.13971 9.41948 7.95409 9.41344C7.76847 9.4074 7.58586 9.36486 7.41668 9.28825C7.2475 9.21164 7.09507 9.10246 6.96808 8.96694C6.8411 8.83142 6.74205 8.67221 6.6766 8.49841C6.61114 8.32461 6.58056 8.13962 6.58659 7.954C6.59263 7.76838 6.63517 7.58577 6.71178 7.41659C6.78839 7.24741 6.89757 7.09498 7.0331 6.96799C7.16862 6.84101 7.32782 6.74196 7.50162 6.67651C7.67542 6.61105 7.86041 6.58047 8.04603 6.58651C8.23165 6.59254 8.41426 6.63508 8.58344 6.71169C8.75262 6.7883 8.90506 6.89749 9.03204 7.03301C9.15902 7.16853 9.25807 7.32774 9.32353 7.50153C9.38898 7.67533 9.41956 7.86033 9.41353 8.04594L9.41353 8.04594Z" stroke="#0D0D0D" stroke-width="1.3" stroke-linecap="round" stroke-linejoin="round"/>
<path d="M8 3L9 1.5" stroke="#0D0D0D" stroke-width="1.3" stroke-linecap="round"/>
<path d="M8 14.5L9 13" stroke="#0D0D0D" stroke-width="1.3" stroke-linecap="round"/>
<path d="M13 7.5L14.5 8.5" stroke="#0D0D0D" stroke-width="1.3" stroke-linecap="round"/>
<path d="M1.5 7.5L3 8.5" stroke="#0D0D0D" stroke-width="1.3" stroke-linecap="round"/>
<path d="M11.889 11.182L12.1331 12.4025L12.2426 12.9497" stroke="#0D0D0D" stroke-width="1.3" stroke-linecap="round"/>
<path d="M3.75721 3.05024L4.11076 4.81801" stroke="#0D0D0D" stroke-width="1.3" stroke-linecap="round"/>
<path d="M4.81798 11.8891L3.05022 12.2427" stroke="#0D0D0D" stroke-width="1.3" stroke-linecap="round"/>
<path d="M12.9498 3.75733L11.1821 4.11089" stroke="#0D0D0D" stroke-width="1.3" stroke-linecap="round"/>
</svg>
