<svg width="12" height="12" viewBox="0 0 12 12" fill="none" xmlns="http://www.w3.org/2000/svg">
<path d="M9.34665 7.60661C9.13567 8.04609 8.84019 8.43972 8.47708 8.76502C8.11397 9.09031 7.69035 9.3409 7.2304 9.50248C6.77045 9.66406 6.28317 9.73346 5.7964 9.70672C5.30962 9.67999 4.83288 9.55763 4.39339 9.34665C3.95391 9.13567 3.56028 8.84019 3.23498 8.47708C2.90969 8.11397 2.6591 7.69035 2.49752 7.2304C2.33594 6.77045 2.26654 6.28317 2.29328 5.7964C2.32001 5.30962 2.44237 4.83288 2.65335 4.39339C2.86433 3.95391 3.15981 3.56028 3.52292 3.23498C3.88603 2.90969 4.30965 2.6591 4.7696 2.49752C5.22955 2.33594 5.71683 2.26654 6.2036 2.29328C6.69038 2.32001 7.16712 2.44237 7.60661 2.65335C8.04609 2.86433 8.43972 3.15981 8.76502 3.52292C9.09031 3.88603 9.3409 4.30965 9.50248 4.7696C9.66406 5.22955 9.73346 5.71683 9.70672 6.2036C9.67999 6.69038 9.55763 7.16712 9.34665 7.60661L9.34665 7.60661Z" stroke="#0D0D0D" stroke-width="0.975" stroke-linecap="round" stroke-linejoin="round"/>
<path d="M3.47977 3.27417C2.7624 3.93741 2.33541 4.8567 2.29138 5.83269C2.24734 6.80868 2.58983 7.76269 3.24456 8.48782C3.89929 9.21296 4.81349 9.65077 5.78889 9.7063C6.76429 9.76184 7.72227 9.43063 8.45508 8.78449" stroke="#0D0D0D" stroke-width="0.975" stroke-linecap="round" stroke-linejoin="round"/>
<path d="M7.06014 6.03444C7.05562 6.17366 7.02371 6.31062 6.96625 6.4375C6.9088 6.56439 6.82691 6.67871 6.72527 6.77395C6.62363 6.86919 6.50422 6.94347 6.37387 6.99256C6.24352 7.04165 6.10478 7.06459 5.96557 7.06006C5.82635 7.05554 5.68939 7.02363 5.56251 6.96617C5.43562 6.90872 5.3213 6.82683 5.22606 6.72519C5.13082 6.62355 5.05654 6.50414 5.00745 6.37379C4.95835 6.24344 4.93542 6.1047 4.93995 5.96548C4.94447 5.82627 4.97638 5.68931 5.03384 5.56243C5.09129 5.43554 5.17318 5.32122 5.27482 5.22598C5.37646 5.13074 5.49587 5.05646 5.62622 5.00737C5.75657 4.95827 5.89531 4.93534 6.03452 4.93986C6.17374 4.94439 6.3107 4.9763 6.43758 5.03375C6.56447 5.09121 6.67879 5.1731 6.77403 5.27474C6.86927 5.37638 6.94355 5.49579 6.99264 5.62614C7.04174 5.75649 7.06467 5.89523 7.06014 6.03444L7.06014 6.03444Z" stroke="#0D0D0D" stroke-width="0.975" stroke-linecap="round" stroke-linejoin="round"/>
<path d="M6 2.25L6.75 1.125" stroke="#0D0D0D" stroke-width="0.975" stroke-linecap="round"/>
<path d="M6 10.875L6.75 9.75" stroke="#0D0D0D" stroke-width="0.975" stroke-linecap="round"/>
<path d="M9.75 5.625L10.875 6.375" stroke="#0D0D0D" stroke-width="0.975" stroke-linecap="round"/>
<path d="M1.125 5.625L2.25 6.375" stroke="#0D0D0D" stroke-width="0.975" stroke-linecap="round"/>
<path d="M8.91691 8.38645L9.09998 9.30183L9.18207 9.71228" stroke="#0D0D0D" stroke-width="0.975" stroke-linecap="round"/>
<path d="M2.81779 2.2877L3.08295 3.61352" stroke="#0D0D0D" stroke-width="0.975" stroke-linecap="round"/>
<path d="M3.61337 8.91685L2.28754 9.18201" stroke="#0D0D0D" stroke-width="0.975" stroke-linecap="round"/>
<path d="M9.71249 2.81803L8.38666 3.0832" stroke="#0D0D0D" stroke-width="0.975" stroke-linecap="round"/>
</svg>
