<svg width="16" height="16" viewBox="0 0 16 16" fill="none" xmlns="http://www.w3.org/2000/svg">
<path d="M6.25 11.6875C6.25 11.9336 6.03125 12.125 5.8125 12.125C5.56641 12.125 5.375 11.9336 5.375 11.6875V6C5.375 5.78125 5.56641 5.5625 5.8125 5.5625C6.03125 5.5625 6.25 5.78125 6.25 6V11.6875ZM8.4375 11.6875C8.4375 11.9336 8.21875 12.125 8 12.125C7.75391 12.125 7.5625 11.9336 7.5625 11.6875V6C7.5625 5.78125 7.75391 5.5625 8 5.5625C8.21875 5.5625 8.4375 5.78125 8.4375 6V11.6875ZM10.625 11.6875C10.625 11.9336 10.4062 12.125 10.1875 12.125C9.94141 12.125 9.75 11.9336 9.75 11.6875V6C9.75 5.78125 9.94141 5.5625 10.1875 5.5625C10.4062 5.5625 10.625 5.78125 10.625 6V11.6875ZM10.543 1.43359L11.5547 2.9375H13.4688C13.8242 2.9375 14.125 3.23828 14.125 3.59375C14.125 3.97656 13.8242 4.25 13.4688 4.25H13.25V12.5625C13.25 13.793 12.2656 14.75 11.0625 14.75H4.9375C3.70703 14.75 2.75 13.793 2.75 12.5625V4.25H2.53125C2.14844 4.25 1.875 3.97656 1.875 3.59375C1.875 3.23828 2.14844 2.9375 2.53125 2.9375H4.41797L5.42969 1.43359C5.70312 1.02344 6.19531 0.75 6.71484 0.75H9.25781C9.77734 0.75 10.2695 1.02344 10.543 1.43359ZM6.00391 2.9375H9.96875L9.44922 2.17188C9.42188 2.11719 9.33984 2.0625 9.25781 2.0625H6.71484C6.63281 2.0625 6.55078 2.11719 6.52344 2.17188L6.00391 2.9375ZM4.0625 12.5625C4.0625 13.0547 4.44531 13.4375 4.9375 13.4375H11.0625C11.5273 13.4375 11.9375 13.0547 11.9375 12.5625V4.25H4.0625V12.5625Z" fill="currentColor"/>
</svg>
