<svg width="12" height="12" viewBox="0 0 12 12" fill="none" xmlns="http://www.w3.org/2000/svg">
<path d="M4.75 9.0625C4.75 9.23828 4.59375 9.375 4.4375 9.375C4.26172 9.375 4.125 9.23828 4.125 9.0625V5C4.125 4.84375 4.26172 4.6875 4.4375 4.6875C4.59375 4.6875 4.75 4.84375 4.75 5V9.0625ZM6.3125 9.0625C6.3125 9.23828 6.15625 9.375 6 9.375C5.82422 9.375 5.6875 9.23828 5.6875 9.0625V5C5.6875 4.84375 5.82422 4.6875 6 4.6875C6.15625 4.6875 6.3125 4.84375 6.3125 5V9.0625ZM7.875 9.0625C7.875 9.23828 7.71875 9.375 7.5625 9.375C7.38672 9.375 7.25 9.23828 7.25 9.0625V5C7.25 4.84375 7.38672 4.6875 7.5625 4.6875C7.71875 4.6875 7.875 4.84375 7.875 5V9.0625ZM7.81641 1.73828L8.53906 2.8125H9.90625C10.1602 2.8125 10.375 3.02734 10.375 3.28125C10.375 3.55469 10.1602 3.75 9.90625 3.75H9.75V9.6875C9.75 10.5664 9.04688 11.25 8.1875 11.25H3.8125C2.93359 11.25 2.25 10.5664 2.25 9.6875V3.75H2.09375C1.82031 3.75 1.625 3.55469 1.625 3.28125C1.625 3.02734 1.82031 2.8125 2.09375 2.8125H3.44141L4.16406 1.73828C4.35938 1.44531 4.71094 1.25 5.08203 1.25H6.89844C7.26953 1.25 7.62109 1.44531 7.81641 1.73828ZM4.57422 2.8125H7.40625L7.03516 2.26562C7.01562 2.22656 6.95703 2.1875 6.89844 2.1875H5.08203C5.02344 2.1875 4.96484 2.22656 4.94531 2.26562L4.57422 2.8125ZM3.1875 9.6875C3.1875 10.0391 3.46094 10.3125 3.8125 10.3125H8.1875C8.51953 10.3125 8.8125 10.0391 8.8125 9.6875V3.75H3.1875V9.6875Z" fill="currentColor"/>
</svg>
