<svg width="12" height="12" viewBox="0 0 12 12" fill="none" xmlns="http://www.w3.org/2000/svg">
<path d="M10.8828 9.39453C11.1953 9.94141 10.8047 10.625 10.1602 10.625H1.82031C1.17578 10.625 0.785156 9.94141 1.07812 9.39453L5.25781 2.28516C5.43359 2.01172 5.70703 1.875 6 1.875C6.27344 1.875 6.54688 2.01172 6.72266 2.28516L10.8828 9.39453ZM2.01562 9.6875H9.96484L5.98047 2.91016L2.01562 9.6875ZM6 7.85156C6.33203 7.85156 6.60547 8.125 6.60547 8.45703C6.60547 8.78906 6.33203 9.0625 6 9.0625C5.64844 9.0625 5.375 8.78906 5.375 8.45703C5.375 8.125 5.64844 7.85156 6 7.85156ZM5.53125 4.84375C5.53125 4.58984 5.72656 4.375 6 4.375C6.25391 4.375 6.46875 4.58984 6.46875 4.84375V6.71875C6.46875 6.99219 6.25391 7.1875 6 7.1875C5.72656 7.1875 5.53125 6.99219 5.53125 6.71875V4.84375Z" fill="currentColor"/>
</svg>
