<svg width="12" height="12" viewBox="0 0 12 12" fill="none" xmlns="http://www.w3.org/2000/svg">
<path d="M6.9375 7.1875C8.83203 7.1875 10.375 8.73047 10.375 10.625C10.375 10.9766 10.082 11.25 9.75 11.25H2.25C1.89844 11.25 1.625 10.9766 1.625 10.625C1.625 8.73047 3.14844 7.1875 5.0625 7.1875H6.9375ZM2.5625 10.3125H9.41797C9.26172 9.08203 8.20703 8.125 6.9375 8.125H5.0625C3.77344 8.125 2.71875 9.08203 2.5625 10.3125ZM6 6.25C4.61328 6.25 3.5 5.13672 3.5 3.75C3.5 2.38281 4.61328 1.25 6 1.25C7.36719 1.25 8.5 2.38281 8.5 3.75C8.5 5.13672 7.36719 6.25 6 6.25ZM6 2.1875C5.12109 2.1875 4.4375 2.89062 4.4375 3.75C4.4375 4.62891 5.12109 5.3125 6 5.3125C6.85938 5.3125 7.5625 4.62891 7.5625 3.75C7.5625 2.89062 6.85938 2.1875 6 2.1875Z" fill="currentColor"/>
</svg>
