<svg width="16" height="16" viewBox="0 0 16 16" fill="none" xmlns="http://www.w3.org/2000/svg">
<path d="M9.3125 9.0625C11.9648 9.0625 14.125 11.2227 14.125 13.875C14.125 14.3672 13.7148 14.75 13.25 14.75H2.75C2.25781 14.75 1.875 14.3672 1.875 13.875C1.875 11.2227 4.00781 9.0625 6.6875 9.0625H9.3125ZM3.1875 13.4375H12.7852C12.5664 11.7148 11.0898 10.375 9.3125 10.375H6.6875C4.88281 10.375 3.40625 11.7148 3.1875 13.4375ZM8 7.75C6.05859 7.75 4.5 6.19141 4.5 4.25C4.5 2.33594 6.05859 0.75 8 0.75C9.91406 0.75 11.5 2.33594 11.5 4.25C11.5 6.19141 9.91406 7.75 8 7.75ZM8 2.0625C6.76953 2.0625 5.8125 3.04688 5.8125 4.25C5.8125 5.48047 6.76953 6.4375 8 6.4375C9.20312 6.4375 10.1875 5.48047 10.1875 4.25C10.1875 3.04688 9.20312 2.0625 8 2.0625Z" fill="currentColor"/>
</svg>
